<svg width="19" height="19" viewBox="0 0 19 19" fill="none" xmlns="http://www.w3.org/2000/svg">
<path d="M17.9134 7.52151C18.0454 7.34557 18.0454 7.12563 17.9134 6.94969L14.7904 3.43079C14.7024 3.34281 14.5705 3.29883 14.4825 3.29883C10.5237 3.29883 7.48867 3.29883 3.5299 3.29883C3.44193 3.29883 3.26598 3.3868 3.222 3.43079L0.0989692 6.94969C-0.0329897 7.08165 -0.0329897 7.34557 0.0989692 7.52151L8.6763 18.3861C8.85224 18.65 9.20413 18.6061 9.38008 18.3861L17.9134 7.52151ZM8.9842 4.3545L11.3155 6.81773H6.65293L8.9842 4.3545ZM5.72921 6.55381L4.32165 4.17855H7.97252L5.72921 6.55381ZM9.99588 4.17855H13.6467L12.2392 6.55381L9.99588 4.17855ZM11.7553 7.69746L8.9842 16.6707L6.21306 7.69746H11.7553ZM12.679 7.69746H16.6818L10.0839 16.0549L12.679 7.69746ZM13.1189 6.81773L14.5265 4.44247L16.5938 6.81773H13.1189ZM3.44193 4.48646L4.84949 6.86172H1.37457L3.44193 4.48646ZM5.28935 7.69746L7.84056 16.0549L1.2866 7.69746H5.28935Z" fill="#8F1416"/>
<path d="M5.24533 2.46295C5.42128 2.63889 5.68519 2.63889 5.86114 2.46295C6.03708 2.287 6.03708 2.02308 5.86114 1.84714L4.45358 0.439576C4.27763 0.263631 4.01371 0.263631 3.83777 0.439576C3.66182 0.615521 3.66182 0.879439 3.83777 1.05538L5.24533 2.46295Z" fill="#8F1416"/>
<path d="M12.7231 2.46295L14.1307 1.05538C14.3066 0.879439 14.3066 0.615521 14.1307 0.439576C13.9547 0.263631 13.6908 0.263631 13.5149 0.439576L12.1073 1.84714C11.9314 2.02308 11.9314 2.287 12.1073 2.46295C12.2832 2.63889 12.5472 2.63889 12.7231 2.46295Z" fill="#8F1416"/>
<path d="M8.98405 2.59519C9.24797 2.59519 9.42392 2.41925 9.42392 2.15533V0.439863C9.42392 0.175945 9.24797 0 8.98405 0C8.72013 0 8.54419 0.175945 8.54419 0.439863V2.15533C8.54419 2.37526 8.72013 2.59519 8.98405 2.59519Z" fill="#8F1416"/>
</svg>
