<svg width="19" height="13" viewBox="0 0 19 13" fill="none" xmlns="http://www.w3.org/2000/svg">
<path d="M9.34149 5.06464C10.7379 5.06464 11.8736 3.92853 11.8736 2.53232C11.8736 1.13611 10.7377 0 9.34149 0C7.94528 0 6.80896 1.1359 6.80896 2.53232C6.80896 3.92874 7.94507 5.06464 9.34149 5.06464Z" fill="#8F1416"/>
<path d="M11.681 5.17041C11.0572 5.72424 10.2391 6.06385 9.34128 6.06385C8.44327 6.06385 7.62518 5.72424 7.00139 5.17041C6.03903 5.5177 5.34777 6.43771 5.34777 7.51839V13.0001H13.3344V7.51839C13.3346 6.43771 12.6435 5.5177 11.681 5.17041Z" fill="#8F1416"/>
<path d="M3.58476 5.14952C4.80681 5.14952 5.8028 4.17243 5.83808 2.95868C5.82106 2.81856 5.80965 2.67678 5.80965 2.5321C5.80965 2.53189 5.80965 2.53189 5.80965 2.53168C5.6359 1.45889 4.70571 0.63623 3.58455 0.63623C2.34009 0.63623 1.32791 1.64862 1.32791 2.89288C1.32811 4.13734 2.3405 5.14952 3.58476 5.14952Z" fill="#8F1416"/>
<path d="M1.5135 5.40332C0.624413 5.78611 0 6.67041 0 7.69816V11.864H4.34889V7.51839C4.34889 6.94878 4.48859 6.41239 4.73105 5.93681C4.3738 6.07174 3.98873 6.14917 3.58477 6.14917C2.79865 6.14896 2.07667 5.86872 1.5135 5.40332Z" fill="#8F1416"/>
<path d="M12.8445 2.95744C12.8791 4.1718 13.8753 5.14952 15.0976 5.14952C16.3421 5.14952 17.3542 4.13714 17.3542 2.89288C17.3542 1.64862 16.3418 0.63623 15.0976 0.63623C13.976 0.63623 13.0454 1.45992 12.8725 2.53376C12.8727 2.6772 12.8615 2.81815 12.8445 2.95744Z" fill="#8F1416"/>
<path d="M17.169 5.40332C16.6059 5.86893 15.8839 6.14896 15.0978 6.14896C14.694 6.14896 14.3087 6.07153 13.9515 5.9366C14.1939 6.41218 14.3337 6.94878 14.3337 7.51839V11.864H18.6825V7.69816C18.6825 6.67041 18.0581 5.78611 17.169 5.40332Z" fill="#8F1416"/>
</svg>
