<svg width="18" height="21" viewBox="0 0 18 21" fill="none" xmlns="http://www.w3.org/2000/svg">
<path d="M14.9575 7.8701C15.1401 7.85773 15.3123 7.78055 15.4426 7.65258L17.7679 5.40771C17.8468 5.33151 17.9082 5.2393 17.948 5.13735C17.9878 5.0354 18.0051 4.92611 17.9987 4.81691C17.9923 4.70772 17.9623 4.60118 17.9108 4.50456C17.8592 4.40794 17.7874 4.3235 17.7002 4.25699L15.1192 2.2862C14.973 2.17502 14.7914 2.12017 14.6078 2.13176L10.3571 2.39279V0.652579C10.3571 0.479504 10.2881 0.313518 10.1651 0.191136C10.0422 0.0687537 9.8754 0 9.70152 0H8.30722C8.13334 0 7.96658 0.0687537 7.84362 0.191136C7.72067 0.313518 7.6516 0.479504 7.6516 0.652579V2.56029L3.4381 2.82132C3.23589 2.83418 3.04706 2.92639 2.91308 3.07769C2.77909 3.229 2.7109 3.42704 2.72347 3.62834L2.98791 7.84835C3.00013 8.04149 3.08578 8.22275 3.22746 8.35528C3.36913 8.48781 3.5562 8.56167 3.75062 8.56184H3.7987L7.64285 8.32256V9.34711L3.40095 9.0839C3.21736 9.07231 3.03574 9.12716 2.88956 9.23835L0.299841 11.2113C0.212591 11.2778 0.140763 11.3623 0.0892478 11.4589C0.0377323 11.5555 0.00773902 11.662 0.00131006 11.7712C-0.00511889 11.8804 0.0121674 11.9897 0.0519921 12.0917C0.0918168 12.1936 0.153245 12.2858 0.232094 12.362L2.55738 14.6091C2.68773 14.737 2.85988 14.8142 3.04254 14.8266L7.64285 15.1094V19.2598H5.94041C5.70857 19.2598 5.48622 19.3515 5.32228 19.5146C5.15834 19.6778 5.06624 19.8991 5.06624 20.1299C5.06624 20.3607 5.15834 20.582 5.32228 20.7452C5.48622 20.9083 5.70857 21 5.94041 21H12.0596C12.2914 21 12.5138 20.9083 12.6777 20.7452C12.8417 20.582 12.9338 20.3607 12.9338 20.1299C12.9338 19.8991 12.8417 19.6778 12.6777 19.5146C12.5138 19.3515 12.2914 19.2598 12.0596 19.2598H10.3571V15.2834L14.21 15.5227H14.2581C14.4525 15.5225 14.6396 15.4487 14.7813 15.3161C14.923 15.1836 15.0086 15.0023 15.0208 14.8092L15.2853 10.5892C15.2978 10.3879 15.2296 10.1898 15.0957 10.0385C14.9617 9.88723 14.7729 9.79503 14.5706 9.78216L10.3571 9.52113V8.15506L14.9575 7.8701ZM13.7118 11.2505L13.5435 13.95L3.41844 13.3257L1.93235 11.89L3.59108 10.6262L13.7118 11.2505ZM4.4587 6.99565L4.29042 4.29615L14.4089 3.6675L16.0676 4.93132L14.5816 6.36482L4.4587 6.99565Z" fill="#8F1416"/>
</svg>
