<svg width="70" height="70" viewBox="0 0 70 70" fill="none" xmlns="http://www.w3.org/2000/svg">
<rect width="70" height="70" fill="#841214"/>
<path d="M22.8021 32.4043L22.1455 32.7668L22.1456 32.767L22.1459 32.7675L22.1471 32.7697L22.1518 32.7784L22.1705 32.8122L22.2416 32.9409L22.4972 33.4038C22.7099 33.7889 22.9964 34.3074 23.2912 34.8405C23.8789 35.9033 24.5053 37.0344 24.6423 37.2753L25.3035 38.437L25.9505 37.2673C26.5876 36.1154 28.6031 32.4636 30.459 29.1003L32.9315 24.6195L33.7178 23.1943L33.9354 22.7999L33.9924 22.6966L34.007 22.6701L34.0107 22.6634L34.0111 22.6626C34.0112 22.6624 34.0113 22.6623 34.0113 22.6622C34.7889 21.2599 35.698 20.75 36.4352 20.75C37.1719 20.75 38.0788 21.2593 38.852 22.6612L38.8521 22.6614L52.3386 47.0917L52.9962 48.2829L53.6523 47.0909C53.8326 46.7632 54.0128 46.4367 54.1898 46.1156C54.6916 45.2059 55.169 44.3405 55.5575 43.6198C56.0985 42.6467 56.6954 42.351 57.1222 42.351C57.5497 42.351 58.1483 42.6475 58.6919 43.6225C59.9105 45.8435 61.9081 49.4627 63.1357 51.6674C63.1362 51.6683 63.1367 51.6691 63.1371 51.6699L64.7342 54.5863H5.26974L7.73262 50.1178L7.73283 50.1174L17.3087 32.7673C17.3088 32.7672 17.3088 32.7671 17.3089 32.767C18.0844 31.3651 18.9928 30.8554 19.7296 30.8554C20.4659 30.8554 21.3728 31.3647 22.1452 32.7663L22.1455 32.7668L22.8021 32.4043Z" fill="#C62325" stroke="#F9F9F9" stroke-width="1.5"/>
</svg>
