<svg width="16" height="16" viewBox="0 0 16 16" fill="none" xmlns="http://www.w3.org/2000/svg">
<path d="M13.0578 10.169C12.1236 10.169 11.2995 10.6103 10.7612 11.2861L5.76763 8.75407C5.83301 8.51231 5.87999 8.26252 5.87999 7.99963C5.87999 7.71344 5.82419 7.444 5.74632 7.18182L10.7178 4.66143C11.2532 5.36782 12.0986 5.82953 13.0585 5.82953C14.6846 5.82953 16 4.52527 16 2.91441C16 1.305 14.6846 0 13.0586 0C11.4361 0 10.1193 1.305 10.1193 2.91438C10.1193 3.17801 10.1663 3.42851 10.2324 3.67101L5.23958 6.20308C4.70049 5.52657 3.87495 5.0838 2.93926 5.0838C1.31464 5.0838 0 6.38951 0 7.99963C0 9.60975 1.31468 10.9147 2.93926 10.9147C3.90066 10.9147 4.7453 10.4516 5.28289 9.74449L10.2522 12.2649C10.1743 12.5263 10.1178 12.798 10.1178 13.0849C10.1178 14.695 11.4347 16 13.0571 16C14.6831 16 15.9985 14.695 15.9985 13.0849C15.9993 11.4733 14.6839 10.169 13.0578 10.169Z" fill="#8F1416"/>
</svg>
