<svg width="38" height="26" viewBox="0 0 38 26" fill="none" xmlns="http://www.w3.org/2000/svg">
<path d="M38 17.5162C38 17.443 37.9604 17.3333 37.9207 17.2602L32.7696 6.03376L32.6903 5.88748L32.6507 5.85091C32.6507 5.85091 32.6111 5.81435 32.6111 5.77778L32.4922 5.74121C32.4129 5.66807 32.3337 5.63151 32.2148 5.59494L32.0959 5.55837C31.9374 5.5218 31.8186 5.48523 31.6601 5.48523H22.4275C22.0709 4.53446 21.2388 3.76653 20.2085 3.43741V1.09705C20.2085 0.475387 19.6934 0 19.0198 0C18.3462 0 17.8311 0.475387 17.8311 1.09705V3.40084C16.7612 3.72996 15.9291 4.49789 15.5328 5.48523H6.30031C6.14181 5.48523 6.02294 5.5218 5.86444 5.55837C5.82482 5.55837 5.78519 5.59494 5.74557 5.59494C5.66632 5.63151 5.58707 5.70464 5.4682 5.74121L5.38895 5.81435C5.27007 5.92405 5.23045 6.03376 5.1512 6.14346L0.118874 17.2602C0.0792492 17.3333 0.0792492 17.4065 0.0396246 17.4796C0.0396246 17.5162 0 17.5893 0 17.699C0 20.8805 2.81335 23.5134 6.30031 23.5134C9.78728 23.5134 12.6006 20.917 12.6006 17.699C12.6006 17.5893 12.6006 17.5162 12.561 17.4796C12.561 17.443 12.5214 17.3699 12.4818 17.2602L8.12304 7.67933H15.5328C15.8895 8.70324 16.7612 9.50774 17.8707 9.83685V24.903C17.8707 25.5246 18.3858 26 19.0594 26C19.7331 26 20.2482 25.5246 20.2482 24.903V9.80028C21.318 9.4346 22.1502 8.66667 22.5068 7.67933H29.9562L25.5182 17.2602C25.439 17.4065 25.439 17.5162 25.439 17.5162L25.3994 17.699C25.3994 20.8805 28.2127 23.5134 31.6997 23.5134C35.1867 23.5134 38 20.917 38 17.699V17.5162ZM28.4108 16.5654L31.6997 9.36146L34.9885 16.5654H28.4108ZM20.2878 6.61885C20.2878 7.27707 19.6934 7.8256 18.9802 7.8256C18.2669 7.8256 17.6726 7.27707 17.6726 6.61885C17.6726 5.96062 18.2669 5.4121 18.9802 5.4121C19.6934 5.4121 20.2878 5.96062 20.2878 6.61885ZM3.01147 16.5654L6.30031 9.36146L9.58916 16.5654H3.01147Z" fill="#FF9966"/>
</svg>
