<svg width="7" height="14" viewBox="0 0 7 14" fill="none" xmlns="http://www.w3.org/2000/svg">
<path d="M5.37885 6.35961C4.84872 6.05601 4.2851 5.82469 3.72706 5.5847C3.4034 5.44591 3.09369 5.28399 2.82026 5.05845C2.28175 4.61317 2.38499 3.8903 3.01557 3.60405C3.19414 3.52309 3.38108 3.49706 3.57082 3.4855C4.30184 3.44502 4.9966 3.58381 5.65787 3.91344C5.98711 4.07825 6.09593 4.0262 6.20753 3.67055C6.32472 3.29466 6.42238 2.91299 6.53119 2.53421C6.60374 2.27976 6.51445 2.11205 6.28287 2.00507C5.85876 1.81134 5.42349 1.67255 4.9659 1.59737C4.36881 1.50195 4.36881 1.49906 4.36602 0.877399C4.36323 0.00128511 4.36323 0.0012851 3.51501 0.0012851C3.39224 0.0012851 3.26948 -0.00160637 3.14671 0.0012851C2.7505 0.012851 2.68354 0.0851375 2.67238 0.498617C2.6668 0.683671 2.67238 0.868724 2.66959 1.05667C2.6668 1.60605 2.66401 1.59737 2.15619 1.78821C0.928516 2.25084 0.169587 3.11828 0.0886723 4.50619C0.0161277 5.73506 0.635547 6.56491 1.60932 7.16922C2.20921 7.54222 2.87327 7.76197 3.50943 8.05401C3.75776 8.16678 3.99492 8.2969 4.2014 8.47617C4.81244 8.99952 4.70084 9.86985 3.97539 10.1995C3.58756 10.3759 3.1774 10.4192 2.75608 10.3643C2.10597 10.2804 1.48376 10.1041 0.897824 9.78889C0.554632 9.60384 0.454186 9.65299 0.336998 10.0376C0.236552 10.3701 0.147266 10.7055 0.0579804 11.0409C-0.0619973 11.492 -0.0173547 11.5989 0.398382 11.81C0.928516 12.076 1.49492 12.2119 2.07249 12.3074C2.5245 12.3825 2.53845 12.4028 2.54403 12.8885C2.54682 13.1083 2.54682 13.3309 2.54961 13.5507C2.5524 13.8283 2.68075 13.9902 2.95698 13.996C3.26948 14.0018 3.58477 14.0018 3.89727 13.9931C4.15396 13.9873 4.2851 13.8427 4.2851 13.5738C4.2851 13.2731 4.29905 12.9695 4.28789 12.6688C4.27394 12.3623 4.40229 12.2062 4.68689 12.1252C5.34258 11.9401 5.90061 11.5758 6.3303 11.0322C7.5245 9.52866 7.0697 7.32825 5.37885 6.35961Z" fill="#8F1416"/>
</svg>
