<svg width="22" height="22" viewBox="0 0 22 22" fill="none" xmlns="http://www.w3.org/2000/svg">
<path d="M2.93437 18.4096L2.83029 18.3044L4.36341 21.0781C4.8067 21.044 5.19493 20.8557 5.45778 20.5461L5.34296 20.45L5.32946 20.4662L5.32715 20.4689C5.0809 20.7589 4.72422 20.9135 4.353 20.9429C4.35292 20.9429 4.35283 20.9429 4.35275 20.9429C4.3516 20.943 4.35045 20.9431 4.3493 20.9432C4.30685 20.9465 4.26424 20.9481 4.22158 20.9482C3.82628 20.9488 3.42767 20.8126 3.12825 20.5568L3.12809 20.5567C3.12211 20.5516 3.11617 20.5464 3.11027 20.5412C2.78812 20.2569 2.59251 19.8382 2.57461 19.4087M2.93437 18.4096C2.67611 18.6786 2.55955 19.0408 2.57454 19.4069M2.93437 18.4096L3.18208 18.6598L3.18353 18.6583C3.00315 18.8403 2.90214 19.0955 2.9146 19.3926L2.57454 19.4069M2.93437 18.4096L2.9146 19.3927L2.57454 19.4069M2.57454 19.4069C2.57456 19.4075 2.57459 19.4081 2.57461 19.4087M2.57461 19.4087C2.57462 19.4088 2.57462 19.4089 2.57462 19.4091L2.91469 19.3947C2.91468 19.3946 2.91468 19.3946 2.91468 19.3946L2.57461 19.4087ZM21.0357 1.06206C21.1557 1.16446 21.2364 1.30487 21.2633 1.45708L20.5353 5.34005C21.3487 4.18969 21.6617 2.80527 21.4211 1.43761C21.4206 1.43493 21.4201 1.43225 21.4196 1.42958C21.4196 1.42956 21.4196 1.42953 21.4196 1.4295C21.3869 1.25454 21.2919 1.08914 21.1485 0.966657L21.1485 0.966644C21.1425 0.961501 21.1364 0.95644 21.1302 0.951464L21.0357 1.06206ZM21.0357 1.06206L21.1301 0.951393L20.6015 0.891567C20.7616 0.899008 20.9157 0.959507 21.0357 1.06206ZM5.07559 20.2237C5.07593 20.2233 5.07627 20.2229 5.07661 20.2225L5.07559 20.2237ZM5.07559 20.2237C5.07063 20.2295 5.06558 20.2353 5.06045 20.241C5.06021 20.2413 5.05997 20.2416 5.05974 20.2418C4.89188 20.4286 4.63903 20.5554 4.32503 20.5796L4.32411 20.5797C4.32317 20.5798 4.32223 20.5798 4.3213 20.5799L5.07559 20.2237ZM5.34364 20.4492L14.9294 8.99426C14.9296 8.99402 14.9299 8.99377 14.9301 8.99353C14.9351 8.98761 14.9401 8.98171 14.9452 8.97585C14.9453 8.97571 14.9454 8.97556 14.9455 8.97542C15.29 8.57766 15.7972 8.32734 16.3422 8.29393C16.3423 8.29393 16.3423 8.29393 16.3424 8.29392L16.3453 8.29374L16.3536 8.42901L16.3453 8.29374L17.6313 8.21531L17.6313 8.21543L5.34364 20.4492ZM16.3201 7.9304L16.3118 7.79486L16.3201 7.9304ZM16.3201 7.9304C15.6844 7.97002 15.0857 8.2656 14.6776 8.74945L14.6764 8.75091L14.6621 8.76802L14.5472 8.67192L16.3201 7.9304Z" fill="#4C4C4C" stroke="#4C4C4C"/>
<mask id="path-2-inside-1" fill="white">
<path d="M21.3909 18.223L14.2357 11.9423C14.1011 11.824 13.8927 11.8334 13.7698 11.9631C13.6473 12.0929 13.657 12.2939 13.7916 12.4122L20.9449 18.6914C21.1151 18.843 21.2117 19.0664 21.2169 19.3203C21.2231 19.6225 21.1 19.9248 20.8877 20.1295C20.6755 20.3339 20.3623 20.4528 20.0481 20.4467C19.7846 20.4417 19.5528 20.3486 19.3972 20.1864L13.0214 13.4403C12.8987 13.3104 12.69 13.3012 12.5554 13.4193C12.4208 13.5376 12.4111 13.7386 12.5338 13.8684L18.9111 20.616C19.1914 20.9082 19.5906 21.0738 20.0352 21.0822C20.0468 21.0824 20.0582 21.0826 20.0698 21.0826C20.5476 21.0826 21.0255 20.8957 21.354 20.579C21.6907 20.2545 21.8859 19.7794 21.8762 19.3079C21.8674 18.8794 21.6957 18.4947 21.3909 18.223Z"/>
</mask>
<path d="M21.3909 18.223L14.2357 11.9423C14.1011 11.824 13.8927 11.8334 13.7698 11.9631C13.6473 12.0929 13.657 12.2939 13.7916 12.4122L20.9449 18.6914C21.1151 18.843 21.2117 19.0664 21.2169 19.3203C21.2231 19.6225 21.1 19.9248 20.8877 20.1295C20.6755 20.3339 20.3623 20.4528 20.0481 20.4467C19.7846 20.4417 19.5528 20.3486 19.3972 20.1864L13.0214 13.4403C12.8987 13.3104 12.69 13.3012 12.5554 13.4193C12.4208 13.5376 12.4111 13.7386 12.5338 13.8684L18.9111 20.616C19.1914 20.9082 19.5906 21.0738 20.0352 21.0822C20.0468 21.0824 20.0582 21.0826 20.0698 21.0826C20.5476 21.0826 21.0255 20.8957 21.354 20.579C21.6907 20.2545 21.8859 19.7794 21.8762 19.3079C21.8674 18.8794 21.6957 18.4947 21.3909 18.223Z" fill="#4C4C4C"/>
<path d="M14.2357 11.9423L13.5758 12.6936L13.5761 12.6938L14.2357 11.9423ZM13.7698 11.9631L13.0437 11.2755L13.0428 11.2765L13.7698 11.9631ZM13.7916 12.4122L13.1317 13.1635L13.1319 13.1637L13.7916 12.4122ZM20.9449 18.6914L21.61 17.9446L21.6046 17.9399L20.9449 18.6914ZM21.2169 19.3203L20.2171 19.3408L20.2171 19.3409L21.2169 19.3203ZM20.8877 20.1295L20.1938 19.4094L20.8877 20.1295ZM20.0481 20.4467L20.0677 19.4469L20.0672 19.4469L20.0481 20.4467ZM19.3972 20.1864L18.6704 20.8733L18.6755 20.8786L19.3972 20.1864ZM13.0214 13.4403L12.2944 14.127L12.2946 14.1272L13.0214 13.4403ZM12.5554 13.4193L11.896 12.6676L11.8955 12.668L12.5554 13.4193ZM12.5338 13.8684L13.2605 13.1815L13.2603 13.1812L12.5338 13.8684ZM18.9111 20.616L18.1843 21.3029L18.1896 21.3084L18.9111 20.616ZM20.0352 21.0822L20.0163 22.0821L20.0212 22.0821L20.0352 21.0822ZM21.354 20.579L20.6601 19.859L20.6599 19.8591L21.354 20.579ZM21.8762 19.3079L20.8764 19.3282L20.8764 19.3285L21.8762 19.3079ZM22.0506 17.4714L14.8954 11.1907L13.5761 12.6938L20.7312 18.9745L22.0506 17.4714ZM14.8957 11.191C14.3586 10.7192 13.5377 10.7539 13.0437 11.2755L14.4959 12.6508C14.2476 12.9129 13.8437 12.9289 13.5758 12.6936L14.8957 11.191ZM13.0428 11.2765C12.5288 11.8207 12.5742 12.6738 13.1317 13.1635L14.4516 11.6609C14.7398 11.914 14.7657 12.3651 14.4968 12.6498L13.0428 11.2765ZM13.1319 13.1637L20.2852 19.4429L21.6046 17.9399L14.4513 11.6607L13.1319 13.1637ZM20.2799 19.4382C20.2515 19.4129 20.234 19.3854 20.2249 19.3643C20.216 19.3438 20.2169 19.3344 20.2171 19.3408L22.2166 19.2999C22.2065 18.8034 22.0131 18.3036 21.61 17.9446L20.2799 19.4382ZM20.2171 19.3409C20.2173 19.3509 20.2151 19.3671 20.208 19.3846C20.2008 19.4023 20.1932 19.4099 20.1938 19.4094L21.5816 20.8495C22.0002 20.4461 22.2284 19.8729 22.2166 19.2998L20.2171 19.3409ZM20.1938 19.4094C20.1942 19.409 20.1912 19.4119 20.1837 19.4166C20.1762 19.4212 20.1657 19.4267 20.1524 19.4317C20.1243 19.4424 20.094 19.4474 20.0677 19.4469L20.0286 21.4465C20.5907 21.4575 21.1659 21.2501 21.5816 20.8495L20.1938 19.4094ZM20.0672 19.4469C20.0467 19.4465 20.0433 19.4429 20.0538 19.4471C20.0647 19.4515 20.0903 19.4644 20.119 19.4942L18.6755 20.8786C19.0458 21.2647 19.5477 21.4373 20.0291 21.4465L20.0672 19.4469ZM20.124 19.4995L13.7481 12.7535L12.2946 14.1272L18.6705 20.8733L20.124 19.4995ZM13.7483 12.7537C13.2536 12.2299 12.4321 12.1973 11.896 12.6676L13.2149 14.1711C12.948 14.4052 12.5438 14.391 12.2944 14.127L13.7483 12.7537ZM11.8955 12.668C11.338 13.1577 11.2925 14.0113 11.8072 14.5555L13.2603 13.1812C13.5296 13.466 13.5037 13.9174 13.2154 14.1706L11.8955 12.668ZM11.807 14.5552L18.1844 21.3029L19.6379 19.9292L13.2605 13.1815L11.807 14.5552ZM18.1896 21.3084C18.6727 21.812 19.3344 22.0692 20.0163 22.0821L20.0541 20.0824C19.8468 20.0785 19.7101 20.0044 19.6327 19.9237L18.1896 21.3084ZM20.0212 22.0821C20.0315 22.0823 20.05 22.0826 20.0698 22.0826V20.0826C20.0664 20.0826 20.0621 20.0825 20.0492 20.0823L20.0212 22.0821ZM20.0698 22.0826C20.7918 22.0826 21.5229 21.8053 22.0481 21.2989L20.6599 19.8591C20.5282 19.9861 20.3035 20.0826 20.0698 20.0826V22.0826ZM22.0479 21.299C22.5873 20.7793 22.8914 20.0349 22.8759 19.2872L20.8764 19.3285C20.8804 19.524 20.7941 19.7297 20.6601 19.859L22.0479 21.299ZM22.876 19.2875C22.8619 18.5974 22.5807 17.944 22.0564 17.4765L20.7254 18.9694C20.8108 19.0455 20.873 19.1613 20.8764 19.3282L22.876 19.2875Z" fill="#4C4C4C" mask="url(#path-2-inside-1)"/>
<path d="M6.61114 5.68429V5.68395V5.68429ZM6.19956 4.92656C6.19947 4.92648 6.19939 4.9264 6.19931 4.92632L6.19955 4.92655L6.19956 4.92656ZM5.08526 5.94915L5.08506 5.94896C5.08513 5.94903 5.0852 5.94909 5.08527 5.94916L5.08526 5.94915ZM4.27186 6.75872L4.37412 6.65261L4.27186 6.75872ZM9.54273 9.9764L9.54252 9.97618C9.54261 9.97627 9.54269 9.97635 9.54277 9.97644L9.54273 9.9764Z" fill="#4C4C4C" stroke="#4C4C4C"/>
</svg>
