<svg width="13" height="17" viewBox="0 0 13 17" fill="none" xmlns="http://www.w3.org/2000/svg">
<path d="M6.49973 0.5C3.17412 0.5 0.5 3.10148 0.5 6.25878C0.5 7.08649 0.67557 7.87255 1.02015 8.59913C2.55827 11.8399 5.47923 15.2821 6.4999 16.4349C7.52032 15.2822 10.4412 11.8403 11.9798 8.59917L6.49973 0.5ZM6.49973 0.5C9.8255 0.5 12.4996 3.10146 12.5 6.25878L6.49973 0.5ZM6.49973 10.0096C4.37995 10.0096 2.62338 8.34493 2.62338 6.25861C2.62338 4.17212 4.37993 2.50743 6.49973 2.50743C8.61951 2.50743 10.376 4.1721 10.3761 6.25856L6.49973 10.0096ZM6.49973 10.0096C8.61964 10.0096 10.3763 8.34498 10.3761 6.25861L6.49973 10.0096ZM12.5 6.25883C12.5 7.0866 12.3246 7.87262 11.9799 8.59909L12.5 6.25883Z" stroke="#616161"/>
</svg>
