<svg width="158" height="34" viewBox="0 0 158 34" fill="none" xmlns="http://www.w3.org/2000/svg">
<path d="M25.2344 9.51102C25.2344 9.51102 47.1386 1.88391 58.5766 0.322168C70.0147 -1.23957 82.2177 3.04614 91.8739 9.51102C101.53 15.9759 108.541 18.6998 119.592 17.1381C111.645 18.8996 100.207 21.0515 90.911 17.7192C81.6147 14.3869 70.1227 8.82093 58.1537 7.15932C46.3646 5.53402 25.2344 9.51102 25.2344 9.51102Z" fill="white" fill-opacity="0.14"/>
<path d="M15.1641 15.5673C15.1641 15.5673 32.7936 8.30342 48.2993 9.31129C63.8051 10.3192 76.404 15.5673 89.9749 20.4614C103.546 25.3554 114.399 22.2229 125.441 17.1381C130.572 14.8424 136.128 13.6722 141.741 13.7051C147.354 13.7379 152.896 14.9731 158 17.3288C148.317 13.2247 136.339 15.7762 127.187 22.6133C111.969 33.9722 101.206 35.4522 87.2571 32.9734C71.9584 30.2495 62.2572 20.8518 47.1384 14.9862C32.0197 9.12061 15.1641 15.5673 15.1641 15.5673Z" fill="white" fill-opacity="0.14"/>
<path d="M0 23.1218C0 23.1218 20.9773 16.1576 29.8865 15.9669C38.7958 15.7762 46.2652 17.1382 53.0506 20.6612C59.8361 24.1842 70.7792 31.1394 79.6974 33.482C66.9005 30.3585 63.4988 30.6945 55.0845 30.2405C44.2314 29.6503 38.8858 29.0419 29.8236 24.3567C16.9636 17.6921 0 23.1218 0 23.1218Z" fill="white" fill-opacity="0.14"/>
</svg>
