<svg width="17" height="20" viewBox="0 0 17 20" fill="none" xmlns="http://www.w3.org/2000/svg">
<path d="M4.49145 10.2477C4.49145 9.70912 4.13253 9.3877 3.49911 9.3877C3.24073 9.3877 3.06567 9.41366 2.97388 9.43969V11.1691C3.0824 11.1947 3.21581 11.2035 3.39878 11.2035C4.07457 11.2035 4.49145 10.8474 4.49145 10.2477Z" fill="#616161"/>
<path d="M8.41188 9.40527C8.12802 9.40527 7.94499 9.43131 7.83618 9.45738V13.289C7.94478 13.3155 8.11994 13.3155 8.27844 13.3155C9.42911 13.3239 10.1797 12.6638 10.1797 11.2649C10.1881 10.048 9.50411 9.40527 8.41188 9.40527Z" fill="#616161"/>
<path d="M15.9241 7.15391H15.4632V4.8367C15.4632 4.82225 15.461 4.80769 15.4591 4.79306C15.4584 4.70104 15.4303 4.61067 15.3698 4.53906L11.6688 0.134132C11.6677 0.133006 11.6666 0.132607 11.6658 0.131372C11.6438 0.105701 11.618 0.0843499 11.5908 0.0658677C11.5828 0.0602395 11.5747 0.0555191 11.5662 0.0506535C11.5427 0.0372548 11.5177 0.0261437 11.492 0.0181191C11.485 0.0160857 11.4787 0.0131082 11.4718 0.01122C11.4438 0.00432098 11.4148 0 11.3854 0H2.28956C1.87421 0 1.53678 0.35196 1.53678 0.784349V7.15373H1.07595C0.481777 7.15373 0 7.65547 0 8.27475V14.1043C0 14.7231 0.481777 15.2252 1.07595 15.2252H1.53681V19.2157C1.53681 19.648 1.87424 20 2.28959 20H14.7104C15.1254 20 15.4632 19.648 15.4632 19.2157V15.2252H15.9241C16.5181 15.2252 17 14.7231 17 14.1043V8.27493C17 7.65569 16.5181 7.15391 15.9241 7.15391ZM2.28956 0.784494H11.009V4.7973C11.009 5.01397 11.1777 5.18946 11.3854 5.18946H14.7104V7.15416H2.28956V0.784494ZM11.5306 11.2209C11.5306 12.342 11.1387 13.115 10.5959 13.5931C10.0044 14.1057 9.10355 14.3489 8.0031 14.3489C7.34442 14.3489 6.87752 14.3055 6.56024 14.2622V8.50997C7.02721 8.43194 7.63636 8.38847 8.27852 8.38847C9.34538 8.38847 10.0377 8.58847 10.58 9.01396C11.1635 9.46585 11.5306 10.1869 11.5306 11.2209ZM1.71452 14.2882V8.50997C2.10628 8.44083 2.65695 8.38847 3.43252 8.38847C4.21635 8.38847 4.77522 8.5449 5.15035 8.8579C5.50904 9.15314 5.75031 9.63982 5.75031 10.2133C5.75031 10.787 5.56734 11.2735 5.23351 11.6035C4.79989 12.0293 4.15784 12.2206 3.40708 12.2206C3.24057 12.2206 3.08994 12.2118 2.97371 12.1944V14.2884H1.71452V14.2882ZM14.7104 19.0033H2.28956V15.2252H14.7104V19.0033H14.7104ZM15.8011 9.51803H13.6408V10.8561H15.6591V11.9336H13.6408V14.2883H12.3655V8.43194H15.8011V9.51803Z" fill="#616161"/>
</svg>
