<svg width="24" height="24" viewBox="0 0 24 24" fill="none" xmlns="http://www.w3.org/2000/svg">
<path d="M1 2C1 1.44772 1.44772 1 2 1H22C22.5523 1 23 1.44772 23 2V22C23 22.5523 22.5523 23 22 23H2C1.44772 23 1 22.5523 1 22V2Z" stroke="#BF2629" stroke-width="2"/>
<path d="M17.3488 11.1628H12.8372V6.65116C12.8372 6.44564 12.5581 6 12 6C11.4418 6 11.1628 6.44567 11.1628 6.65116V11.1628H6.65116C6.44566 11.1628 6 11.4419 6 12C6 12.5581 6.44566 12.8372 6.65116 12.8372H11.1628V17.3488C11.1628 17.5543 11.4418 18 12 18C12.5582 18 12.8372 17.5543 12.8372 17.3488V12.8372H17.3488C17.5543 12.8372 18 12.5581 18 12C18 11.4418 17.5543 11.1628 17.3488 11.1628Z" fill="#BF2629"/>
</svg>
