<svg width="70" height="70" viewBox="0 0 70 70" fill="none" xmlns="http://www.w3.org/2000/svg">
<rect width="70" height="70" fill="#841214"/>
<path d="M16.3049 47.3861L12.8721 55.628L21.8501 53.0524L18.4174 50.2192L16.3049 47.3861Z" fill="#C62325"/>
<path d="M26.3392 51.507L17.3611 42.75L22.3783 29.3569L23.6986 28.0691L26.6032 27.8115L31.8845 30.1296L38.486 36.0534L41.6547 41.9773L42.1829 45.3256L39.0141 47.6436L26.3392 51.507Z" fill="#C62325"/>
<path d="M49.0484 41.2046L48.7844 37.3412L52.4812 36.5686L53.0094 40.9471L49.0484 41.2046Z" fill="#C62325"/>
<path d="M38.7501 29.872L34.5251 25.2359L40.8625 23.6906L38.7501 29.872Z" fill="#C62325"/>
<path d="M49.0484 19.8272H46.4078C46.2318 20.5998 45.8797 22.2482 45.8797 22.6603C45.8797 23.1754 46.4078 23.433 46.4078 23.6906C46.4078 23.9481 49.0484 23.6906 49.3125 23.6906C49.5766 23.6906 50.1047 21.115 50.3687 20.8574C50.58 20.6514 49.5766 20.0847 49.0484 19.8272Z" fill="#C62325"/>
<path d="M24.7548 13.6457C24.5436 13.8518 24.4908 15.6204 24.4908 16.4789V16.6293L26.8673 17.5091C27.4835 17.3374 28.7685 16.994 28.9798 16.994C29.191 16.994 28.8918 15.1052 28.7157 14.1608C28.2756 13.7316 27.3426 12.873 27.1314 12.873C26.8673 12.873 25.0189 13.3882 24.7548 13.6457Z" fill="#C62325"/>
<path d="M36.7072 32.9518C33.0148 29.2469 28.7044 26.9453 25.4581 26.9453C24.0865 26.9453 22.9378 27.3704 22.1363 28.1748C21.5217 28.7914 21.1367 29.5902 20.9845 30.5347L12.0503 56.5183C11.9355 56.8523 12.0207 57.2227 12.2696 57.4724C12.4451 57.6484 12.6802 57.7428 12.9202 57.7428C13.0209 57.7428 13.1223 57.7262 13.2206 57.6922L39.0753 48.7307C40.0385 48.5797 40.855 48.1872 41.4681 47.572C42.8704 46.165 43.0775 43.8096 42.0514 40.9396C41.1072 38.2991 39.2093 35.4624 36.7072 32.9518ZM21.5529 34.8073C22.4971 37.4477 24.395 40.2845 26.8971 42.7951C29.4783 45.3851 32.3612 47.2878 34.9721 48.1993L27.2532 50.8747C25.6401 49.9279 24.0172 48.6535 22.5379 47.1692C21.0562 45.6824 19.7848 44.0516 18.8408 42.4309L21.5073 34.6756C21.5226 34.7196 21.5372 34.7632 21.5529 34.8073ZM22.3514 52.5738C21.3899 51.8572 20.4542 51.0446 19.5649 50.1522C18.6743 49.2586 17.8634 48.3184 17.1487 47.3522L18.0732 44.6634C18.9668 45.9788 20.0388 47.2729 21.2366 48.4748C22.4326 49.6749 23.7206 50.7493 25.0298 51.6453L22.3514 52.5738ZM16.4336 49.4321C17.001 50.1267 17.6125 50.8045 18.2636 51.4579C18.9139 52.1105 19.5884 52.7231 20.2796 53.2918L14.4065 55.3274L16.4336 49.4321ZM40.1667 46.2663C39.8198 46.6145 39.3424 46.8315 38.7435 46.9153C38.7359 46.9161 38.7283 46.917 38.7206 46.9182C38.5401 46.9423 38.349 46.9551 38.1468 46.9551H38.1462C35.4119 46.9547 31.507 44.8093 28.1983 41.4895C25.8842 39.1676 24.1394 36.5731 23.285 34.1838C22.5241 32.0555 22.5796 30.3412 23.4374 29.4805C23.8928 29.0236 24.5726 28.7919 25.4579 28.7919C28.192 28.7919 32.0968 30.9372 35.4058 34.2575C37.7198 36.5794 39.4647 39.1739 40.319 41.5632C41.0801 43.6914 41.0247 45.4056 40.1667 46.2663Z" fill="#F9F9F9"/>
<path d="M38.1569 43.3246C38.1532 43.3246 38.1496 43.3246 38.1459 43.3247C36.9841 43.3234 33.9527 42.1279 30.7583 38.9228C30.399 38.5621 29.8163 38.5623 29.457 38.9228C29.0976 39.2833 29.0977 39.8679 29.457 40.2285C32.3571 43.1383 35.9308 45.1709 38.1475 45.1712L38.1749 45.171C38.683 45.1608 39.0866 44.7391 39.0764 44.2294C39.0664 43.7259 38.6566 43.3246 38.1569 43.3246Z" fill="#F9F9F9"/>
<path d="M56.8554 29.3544C56.4961 28.9938 55.9134 28.9939 55.5541 29.3544C53.5699 31.3453 51.9756 31.2621 50.1302 31.1662C48.1686 31.0641 45.9452 30.9482 43.4668 33.435C43.1074 33.7955 43.1074 34.3801 43.4668 34.7407C43.6465 34.9209 43.882 35.0111 44.1174 35.0111C44.3528 35.0111 44.5884 34.9209 44.768 34.7407C46.6673 32.8348 48.2275 32.9163 50.0347 33.0102C52.0302 33.1142 54.2921 33.2319 56.8553 30.6601C57.2148 30.2995 57.2148 29.7149 56.8554 29.3544Z" fill="#F9F9F9"/>
<path d="M28.9181 25.308C29.4263 25.308 29.8383 24.8946 29.8383 24.3847C29.8383 21.5692 31.0239 20.4969 32.3968 19.2554C33.8559 17.9358 35.5097 16.4402 35.5097 12.9233C35.5097 12.4134 35.0977 12 34.5895 12C34.0814 12 33.6694 12.4134 33.6694 12.9233C33.6694 15.6186 32.5087 16.6683 31.1647 17.8838C29.6805 19.2262 27.998 20.7476 27.998 24.3847C27.998 24.8947 28.41 25.308 28.9181 25.308Z" fill="#F9F9F9"/>
<path d="M47.622 25.2113H47.6223C48.4857 25.2113 49.2977 24.8738 49.9084 24.2611C51.1691 22.9961 51.1691 20.9379 49.9084 19.6729C49.2977 19.0601 48.4857 18.7227 47.6221 18.7227C46.7584 18.7227 45.9465 19.0601 45.3358 19.6729C44.725 20.2856 44.3887 21.1003 44.3887 21.967C44.3887 22.8336 44.725 23.6483 45.3358 24.2611C45.9464 24.8737 46.7583 25.2112 47.622 25.2113ZM46.6371 20.9786C46.9001 20.7146 47.25 20.5692 47.6221 20.5692C47.9942 20.5692 48.344 20.7146 48.6071 20.9786C49.1502 21.5236 49.1502 22.4104 48.6071 22.9553C48.344 23.2194 47.9943 23.3647 47.6223 23.3647H47.6221C47.25 23.3647 46.9001 23.2193 46.637 22.9553C46.3739 22.6913 46.229 22.3403 46.229 21.9669C46.229 21.5935 46.3739 21.2426 46.6371 20.9786Z" fill="#F9F9F9"/>
<path d="M26.8091 18.6039C27.6727 18.6039 28.4847 18.2664 29.0954 17.6536C30.356 16.3886 30.356 14.3304 29.0954 13.0655C28.4847 12.4527 27.6727 12.1152 26.809 12.1152C25.9454 12.1152 25.1334 12.4527 24.5227 13.0655C23.262 14.3304 23.262 16.3887 24.5227 17.6537C25.1335 18.2664 25.9454 18.6039 26.8091 18.6039ZM25.824 14.3712C26.0871 14.1072 26.437 13.9618 26.8091 13.9618C27.1812 13.9618 27.5311 14.1072 27.7942 14.3712C28.3373 14.9161 28.3373 15.803 27.7941 16.3479C27.5311 16.6119 27.1813 16.7573 26.8092 16.7573C26.437 16.7573 26.0872 16.6119 25.824 16.3479C25.2808 15.8029 25.2808 14.9161 25.824 14.3712Z" fill="#F9F9F9"/>
<path d="M33.8285 24.3817C33.7306 24.4383 33.6456 24.5117 33.5761 24.5972C33.4913 24.7011 33.4325 24.8191 33.3996 24.9427C33.379 25.0197 33.3681 25.0999 33.3682 25.1816C33.3682 25.2307 33.3722 25.2803 33.3803 25.3301C33.3978 25.4383 33.4345 25.544 33.4905 25.6416C33.5342 25.7179 33.5878 25.7865 33.6494 25.846L38.2113 30.4232C38.2701 30.4843 38.3377 30.5377 38.4127 30.5812C38.5102 30.6378 38.6158 30.675 38.7239 30.6927C38.7741 30.7011 38.8242 30.7051 38.8737 30.7051C38.954 30.7051 39.0331 30.6945 39.1089 30.6742C39.2346 30.6409 39.3546 30.5805 39.4598 30.493C39.5423 30.4246 39.6134 30.3415 39.6686 30.2461C39.7129 30.1699 39.7454 30.0887 39.766 30.0052L41.4358 23.7522C41.4592 23.6705 41.4716 23.585 41.4715 23.4979V23.4978C41.4716 23.3849 41.4509 23.2745 41.412 23.1717C41.3643 23.0445 41.2909 22.9332 41.1992 22.8422C41.1101 22.7533 41.0018 22.6818 40.8786 22.6349C40.7755 22.5954 40.665 22.5743 40.5517 22.5743C40.551 22.5742 40.5508 22.5742 40.5504 22.5743C40.464 22.5743 40.379 22.5867 40.2978 22.6101L34.0658 24.2855C33.9836 24.306 33.9036 24.3381 33.8285 24.3817ZM39.2498 24.8035L38.3969 27.998L36.0662 25.6594L39.2498 24.8035Z" fill="#F9F9F9"/>
<path d="M52.5989 36.3691H48.6662C48.1581 36.3691 47.7461 36.7825 47.7461 37.2924V41.2384C47.7461 41.7482 48.1581 42.1617 48.6662 42.1617H52.5989C53.1071 42.1617 53.5191 41.7482 53.5191 41.2384V37.2924C53.5191 36.7825 53.1071 36.3691 52.5989 36.3691ZM51.6788 40.3152H49.5864V38.2157H51.6788V40.3152Z" fill="#F9F9F9"/>
</svg>
