<svg width="30" height="27" viewBox="0 0 30 27" fill="none" xmlns="http://www.w3.org/2000/svg">
<path d="M15.9001 0.816211L19.1709 7.02945C19.3984 7.46159 19.8382 7.76102 20.3469 7.83021L27.6611 8.82662C28.9423 9.00129 29.4535 10.4769 28.5267 11.3236L23.2342 16.1599C22.8664 16.4962 22.6983 16.9811 22.7854 17.4557L24.0345 24.2849C24.2535 25.4809 22.9142 26.3928 21.7685 25.8285L15.2268 22.6045C14.7719 22.3805 14.2281 22.3805 13.7732 22.6045L7.23152 25.8285C6.08579 26.3934 4.74648 25.4809 4.96547 24.2849L6.21464 17.4557C6.30175 16.9811 6.13358 16.4962 5.76578 16.1599L0.473288 11.3236C-0.453458 10.4763 0.0577042 9.00072 1.33894 8.82662L8.65309 7.83021C9.16183 7.76102 9.60162 7.46159 9.82907 7.02945L13.0999 0.816211C13.6722 -0.27207 15.3272 -0.27207 15.9001 0.816211Z" fill="#FF9966"/>
</svg>
