<svg width="40" height="36" viewBox="0 0 40 36" fill="none" xmlns="http://www.w3.org/2000/svg">
<path d="M21.0248 1.61713L21.0248 1.61712C20.4387 0.503741 18.7143 0.504181 18.1292 1.61693L18.129 1.61713L13.713 10.0058C13.3262 10.7407 12.5875 11.2356 11.7503 11.3495C11.7503 11.3495 11.7502 11.3495 11.7502 11.3495L1.87523 12.6948L1.87507 12.6948C0.516988 12.8793 0.0736094 14.3762 0.976376 15.2016L8.12186 21.7311L8.12197 21.7312C8.74037 22.2967 9.03227 23.1227 8.88242 23.9398C8.88241 23.9399 8.88239 23.94 8.88237 23.9401L7.19588 33.16L7.19586 33.1601C7.08858 33.746 7.35551 34.271 7.82433 34.5904C8.29507 34.9111 8.94244 35.0015 9.54242 34.7057L9.54247 34.7057L18.3746 30.3528L18.3747 30.3528C19.1282 29.9817 20.0257 29.9817 20.7791 30.3528L20.7793 30.3528L29.6113 34.7056C30.2113 35.0012 30.8588 34.9107 31.3296 34.5901C31.7984 34.2708 32.0653 33.746 31.958 33.1601L31.958 33.16L30.2715 23.9401C30.2715 23.94 30.2714 23.9399 30.2714 23.9398C30.1216 23.1227 30.4135 22.2967 31.0319 21.7312L31.032 21.7311L38.1776 15.2015L38.1776 15.2015C39.0798 14.3772 38.6373 12.88 37.2786 12.6948L21.0248 1.61713ZM21.0248 1.61713L25.4408 10.0058C25.4409 10.0058 25.4409 10.0058 25.4409 10.0058C25.8277 10.7407 26.5663 11.2356 27.4035 11.3495C27.4036 11.3495 27.4036 11.3495 27.4036 11.3495L37.2786 12.6948L21.0248 1.61713Z" fill="#8F1416" stroke="#8F1416"/>
</svg>
