<svg width="24" height="24" viewBox="0 0 24 24" fill="none" xmlns="http://www.w3.org/2000/svg">
<path d="M9.06641 14.5667C9.06641 14.769 9.23068 14.9333 9.43306 14.9333H10.8998C11.1021 14.9333 11.2664 14.769 11.2664 14.5667V12.3667C11.2664 12.1643 11.1021 12 10.8998 12H9.4331C9.23072 12 9.06645 12.1643 9.06645 12.3667V14.5667H9.06641ZM9.79975 12.7333H10.5331V14.2H9.79975V12.7333Z" fill="#4C4C4C" stroke="#4C4C4C" stroke-width="0.5"/>
<path d="M9.43306 10.5349H10.8997C11.1021 10.5349 11.2664 10.3706 11.2664 10.1682V7.96822C11.2664 7.76583 11.1021 7.60156 10.8997 7.60156H9.43306C9.23068 7.60156 9.06641 7.76583 9.06641 7.96822V10.1682C9.06636 10.3706 9.23063 10.5349 9.43306 10.5349ZM9.79971 8.33487H10.5331V9.80152H9.79971V8.33487Z" fill="#4C4C4C" stroke="#4C4C4C" stroke-width="0.5"/>
<path d="M6.68883 7.91423L12 4.72754L17.3111 7.91423C17.3702 7.94981 17.4354 7.96665 17.4996 7.96665C17.6243 7.96665 17.7456 7.90323 17.8142 7.78881C17.9187 7.615 17.8623 7.38988 17.6888 7.28573L12.3666 4.09246V1.73335H14.2V2.4667H13.1C12.8976 2.4667 12.7333 2.63096 12.7333 2.83335C12.7333 3.03573 12.8976 3.2 13.1 3.2H14.5666C14.769 3.2 14.9333 3.03573 14.9333 2.83335V1.36665C14.9333 1.16427 14.769 1 14.5666 1H12C11.7976 1 11.6333 1.16427 11.6333 1.36665V4.09246L6.31118 7.28577C6.13776 7.38988 6.0813 7.61504 6.1858 7.78885C6.28953 7.96227 6.51537 8.01873 6.68883 7.91423Z" fill="#4C4C4C" stroke="#4C4C4C" stroke-width="0.5"/>
<path d="M5.03354 14.9333C5.23593 14.9333 5.4002 14.769 5.4002 14.5667V12.3667C5.4002 12.1643 5.23593 12 5.03354 12H3.56685C3.36446 12 3.2002 12.1643 3.2002 12.3667V13.1C3.2002 13.3023 3.36446 13.4666 3.56685 13.4666C3.76923 13.4666 3.9335 13.3023 3.9335 13.1V12.7333H4.66685V14.5667C4.66685 14.769 4.83112 14.9333 5.03354 14.9333Z" fill="#4C4C4C" stroke="#4C4C4C" stroke-width="0.5"/>
<path d="M7.6 19.6992V9.06587C7.6 8.86349 7.43573 8.69922 7.23335 8.69922C7.03097 8.69922 6.8667 8.86349 6.8667 9.06587V19.6992C6.8667 19.9016 7.03097 20.0659 7.23335 20.0659C7.43573 20.0659 7.6 19.9016 7.6 19.6992Z" fill="#4C4C4C" stroke="#4C4C4C" stroke-width="0.5"/>
<path d="M5.76704 21.5317H18.2337C18.4361 21.5317 18.6003 21.3674 18.6003 21.165C18.6003 20.9627 18.4361 20.7984 18.2337 20.7984H14.9337V17.1317H15.3003C15.5027 17.1317 15.667 16.9675 15.667 16.7651C15.667 16.5627 15.5027 16.3984 15.3003 16.3984H8.70039C8.49801 16.3984 8.33374 16.5627 8.33374 16.7651C8.33374 16.9675 8.49801 17.1317 8.70039 17.1317H9.06704V20.7984H5.76704C5.56466 20.7984 5.40039 20.9626 5.40039 21.165C5.40039 21.3674 5.56466 21.5317 5.76704 21.5317ZM12.367 19.3317C12.5694 19.3317 12.7337 19.1674 12.7337 18.965C12.7337 18.7627 12.5694 18.5984 12.367 18.5984V17.1317H14.2004V20.7984H12.367V19.3317ZM9.80039 17.1317H11.6337V18.5984C11.4314 18.5984 11.2671 18.7626 11.2671 18.965C11.2671 19.1674 11.4314 19.3317 11.6337 19.3317V20.7984H9.80039V17.1317Z" fill="#4C4C4C" stroke="#4C4C4C" stroke-width="0.5"/>
<path d="M20.4334 16.7656H18.9667C18.7644 16.7656 18.6001 16.9299 18.6001 17.1323V19.3323C18.6001 19.5347 18.7644 19.6989 18.9667 19.6989H20.4334C20.6358 19.6989 20.8001 19.5347 20.8001 19.3323V17.1323C20.8001 16.9299 20.6358 16.7656 20.4334 16.7656ZM20.0667 18.9656H19.3334V17.499H20.0667V18.9656Z" fill="#4C4C4C" stroke="#4C4C4C" stroke-width="0.5"/>
<path d="M20.4334 12.3672H18.9667C18.7644 12.3672 18.6001 12.5315 18.6001 12.7338V14.9338C18.6001 15.1362 18.7644 15.3005 18.9667 15.3005H20.4334C20.6358 15.3005 20.8001 15.1362 20.8001 14.9338V12.7338C20.8001 12.5315 20.6358 12.3672 20.4334 12.3672ZM20.0667 14.5672H19.3334V13.1005H20.0667V14.5672Z" fill="#4C4C4C" stroke="#4C4C4C" stroke-width="0.5"/>
<path d="M19.7002 22.2656H4.30025C4.09786 22.2656 3.93359 22.4299 3.93359 22.6323C3.93359 22.8347 4.09786 22.999 4.30025 22.999H19.7002C19.9026 22.999 20.0669 22.8347 20.0669 22.6323C20.0669 22.4299 19.9026 22.2656 19.7002 22.2656Z" fill="#4C4C4C" stroke="#4C4C4C" stroke-width="0.5"/>
<path d="M22.6334 9.06641C22.431 9.06641 22.2667 9.23068 22.2667 9.43306V9.79971H18.2334C18.031 9.79971 17.8667 9.96398 17.8667 10.1664C17.8667 10.3687 18.031 10.533 18.2334 10.533H22.2667V22.633C22.2667 22.8354 22.431 22.9997 22.6334 22.9997C22.8357 22.9997 23 22.8354 23 22.633V9.43302C23 9.23068 22.8357 9.06641 22.6334 9.06641Z" fill="#4C4C4C" stroke="#4C4C4C" stroke-width="0.5"/>
<path d="M12.7334 14.5667C12.7334 14.769 12.8977 14.9333 13.1001 14.9333H14.5667C14.7691 14.9333 14.9334 14.769 14.9334 14.5667V12.3667C14.9334 12.1643 14.7691 12 14.5667 12H13.1001C12.8977 12 12.7334 12.1643 12.7334 12.3667V14.5667ZM13.4667 12.7333H14.2001V14.2H13.4667V12.7333Z" fill="#4C4C4C" stroke="#4C4C4C" stroke-width="0.5"/>
<path d="M4.66665 18.9659C4.66665 18.9182 4.64577 14.1992 2.8333 14.1992C1.02088 14.1992 1 18.9182 1 18.9659C1 19.8514 1.63104 20.5917 2.46665 20.7622V22.6326C2.46665 22.8349 2.63092 22.9992 2.8333 22.9992C3.03569 22.9992 3.19996 22.8349 3.19996 22.6326V20.7622C4.03561 20.5917 4.66665 19.8514 4.66665 18.9659ZM2.83335 20.0659C2.22689 20.0659 1.73335 19.5723 1.73335 18.9659C1.73335 17.1391 2.22396 14.9325 2.83335 14.9325C3.44273 14.9325 3.93335 17.1391 3.93335 18.9659C3.93335 19.5723 3.43981 20.0659 2.83335 20.0659Z" fill="#4C4C4C" stroke="#4C4C4C" stroke-width="0.5"/>
<path d="M17.1332 19.6987V8.69868C17.1332 8.4963 16.9689 8.33203 16.7666 8.33203C16.5642 8.33203 16.3999 8.4963 16.3999 8.69868V19.6987C16.3999 19.9011 16.5642 20.0653 16.7666 20.0653C16.9689 20.0653 17.1332 19.9011 17.1332 19.6987Z" fill="#4C4C4C" stroke="#4C4C4C" stroke-width="0.5"/>
<path d="M13.1001 10.5349H14.5667C14.7691 10.5349 14.9334 10.3706 14.9334 10.1682V7.96822C14.9334 7.76583 14.7691 7.60156 14.5667 7.60156H13.1001C12.8977 7.60156 12.7334 7.76583 12.7334 7.96822V10.1682C12.7334 10.3706 12.8977 10.5349 13.1001 10.5349ZM13.4667 8.33487H14.2001V9.80152H13.4667V8.33487Z" fill="#4C4C4C" stroke="#4C4C4C" stroke-width="0.5"/>
<path d="M1.36665 13.833C1.56904 13.833 1.7333 13.6687 1.7333 13.4664V10.533H5.76665C5.96904 10.533 6.13331 10.3687 6.13331 10.1664C6.13331 9.96398 5.96904 9.79971 5.76665 9.79971H1.73335V9.43306C1.73335 9.23068 1.56908 9.06641 1.3667 9.06641C1.16431 9.06641 1 9.23059 1 9.43302V13.4664C1 13.6687 1.16427 13.833 1.36665 13.833Z" fill="#4C4C4C" stroke="#4C4C4C" stroke-width="0.5"/>
</svg>
