<svg width="70" height="70" viewBox="0 0 70 70" fill="none" xmlns="http://www.w3.org/2000/svg">
<rect width="70" height="70" fill="#841214"/>
<path d="M38.7134 54.8211L38.7137 54.8208C39.6396 53.8316 40.6633 52.75 42.6569 52.75C44.651 52.75 45.6789 53.8305 46.6018 54.8185L46.6025 54.8192L46.6338 54.8526C47.4572 55.7308 48.2565 56.5833 49.8393 56.5833C51.4202 56.5833 52.2196 55.7307 53.0428 54.8527L53.0742 54.8192C54.0002 53.832 55.0258 52.75 57.0217 52.75C57.2952 52.75 57.4999 52.9651 57.4999 53.2084C57.4999 53.4516 57.2952 53.6667 57.0216 53.6667C55.4388 53.6667 54.6395 54.5192 53.816 55.3975L53.7848 55.4308L53.7841 55.4315C52.8612 56.4195 51.8334 57.5 49.8393 57.5C47.8434 57.5 46.8178 56.418 45.8918 55.4308L45.8604 55.3973C45.0372 54.5193 44.2378 53.6667 42.6569 53.6667C41.0798 53.6667 40.2823 54.5174 39.4608 55.3936L39.4259 55.4308L39.4252 55.4316C38.5038 56.4182 37.4781 57.5 35.4863 57.5C33.4926 57.5 32.4669 56.4182 31.5435 55.4296L31.5428 55.4289C31.5303 55.4155 31.5177 55.4021 31.5052 55.3887C30.6868 54.5156 29.8911 53.6666 28.3157 53.6666C26.7387 53.6666 25.9412 54.5193 25.1222 55.395C25.1115 55.4064 25.1009 55.4179 25.0901 55.4293L25.0899 55.4296C24.1663 56.4184 23.1425 57.5 21.149 57.5C19.1552 57.5 18.1295 56.4182 17.2061 55.4297L17.2054 55.429C17.1929 55.4156 17.1803 55.4022 17.1678 55.3888C16.3495 54.5157 15.5537 53.6667 13.9783 53.6667C13.7047 53.6667 13.5 53.4516 13.5 53.2084C13.5 52.9652 13.7047 52.75 13.9783 52.75C15.97 52.75 16.9958 53.8318 17.9173 54.8184L17.918 54.8192C17.9296 54.8316 17.9413 54.844 17.9529 54.8564C18.7743 55.7326 19.5718 56.5833 21.149 56.5833C22.726 56.5833 23.5217 55.7326 24.3411 54.8566C24.3527 54.8441 24.3644 54.8317 24.3761 54.8192C25.3026 53.8313 26.3241 52.75 28.3157 52.75C30.3074 52.75 31.3332 53.8318 32.2545 54.8185L32.2553 54.8193C32.2669 54.8317 32.2785 54.8441 32.2902 54.8565C33.1116 55.7327 33.9091 56.5834 35.4862 56.5834C37.0617 56.5834 37.8574 55.7344 38.6757 54.8613C38.6883 54.8479 38.7008 54.8345 38.7134 54.8211Z" fill="#C62325" stroke="#F9F9F9"/>
<path d="M38.7137 50.9869L38.7134 50.9873L38.6753 51.0278C37.8571 51.9007 37.0614 52.7494 35.4862 52.7494C33.9091 52.7494 33.1116 51.8987 32.2902 51.0225L32.2553 50.9853L32.2546 50.9845C31.3331 49.9979 30.3073 48.9161 28.3157 48.9161C26.3242 48.9161 25.3026 49.9974 24.3761 50.9852L38.7137 50.9869ZM38.7137 50.9869C39.6396 49.9977 40.6633 48.9161 42.6569 48.9161C44.651 48.9161 45.6788 49.9965 46.6017 50.9845L46.6024 50.9853M38.7137 50.9869L46.6024 50.9853M46.6024 50.9853L46.6337 51.0187C47.4571 51.8969 48.2564 52.7494 49.8392 52.7494C51.4202 52.7494 52.2196 51.8967 53.0429 51.0186L53.0741 50.9852C53.0741 50.9852 53.0741 50.9852 53.0742 50.9852C54.0001 49.998 55.0258 48.916 57.0216 48.916M46.6024 50.9853L57.0216 48.916M17.9179 50.9853L17.9172 50.9845C16.9957 49.9979 15.9699 48.9161 13.9783 48.9161C13.7047 48.9161 13.5 49.1313 13.5 49.3745C13.5 49.6177 13.7047 49.8328 13.9783 49.8328C15.5537 49.8328 16.3495 50.6818 17.1678 51.5549C17.1803 51.5683 17.1929 51.5817 17.2054 51.5951L17.2061 51.5958C18.1295 52.5844 19.1553 53.6662 21.149 53.6662C23.1425 53.6662 24.1663 52.5846 25.0899 51.5958L25.0902 51.5955L25.1222 51.5612C25.9412 50.6855 26.7387 49.8328 28.3157 49.8328C29.8911 49.8328 30.6868 50.6818 31.5052 51.5549C31.5177 51.5683 31.5303 51.5817 31.5428 51.5951L31.5435 51.5958C32.4669 52.5844 33.4926 53.6662 35.4863 53.6662C37.4781 53.6662 38.5038 52.5844 39.4252 51.5978L39.4259 51.597L39.4608 51.5598C40.2823 50.6836 41.0798 49.8329 42.6569 49.8329C44.2378 49.8329 45.0372 50.6855 45.8604 51.5635L45.8918 51.597L45.5271 51.9391L45.8918 51.597C46.8177 52.5842 47.8433 53.6662 49.8393 53.6662C51.8334 53.6662 52.8612 52.5857 53.7841 51.5977L53.7848 51.597L53.816 51.5637C54.6395 50.6854 55.4388 49.8329 57.0216 49.8329C57.2952 49.8329 57.4999 49.6178 57.4999 49.3746L17.9179 50.9853ZM17.9179 50.9853C17.9295 50.9977 17.9412 51.0101 17.9528 51.0225C18.7742 51.8987 19.5718 52.7494 21.1489 52.7494C22.7258 52.7494 23.5215 51.8988 24.3409 51.0229M17.9179 50.9853L24.3409 51.0229M57.0216 48.916C57.2951 48.916 57.4998 49.131 57.4999 49.3746L57.0216 48.916ZM24.3409 51.0229C24.3526 51.0103 24.3643 50.9978 24.3761 50.9853L24.3409 51.0229Z" fill="#C62325" stroke="#F9F9F9"/>
<path d="M35.0215 12.9584C35.0215 12.7152 35.2262 12.5 35.4998 12.5C35.7734 12.5 35.9781 12.7152 35.9781 12.9584V18.7084C35.9781 18.9516 35.7734 19.1667 35.4998 19.1667C35.2262 19.1667 35.0215 18.9516 35.0215 18.7084V12.9584Z" fill="#C62325" stroke="#F9F9F9"/>
<path d="M31.5867 12.5H39.4127C39.6863 12.5 39.891 12.7152 39.891 12.9584C39.891 13.2016 39.6863 13.4167 39.4127 13.4167H31.5867C31.3131 13.4167 31.1084 13.2016 31.1084 12.9584C31.1084 12.7152 31.3131 12.5 31.5867 12.5Z" fill="#C62325" stroke="#F9F9F9"/>
<path d="M47.3185 20.173L47.3189 20.1731C47.5564 20.2117 47.717 20.408 47.717 20.6245V25.4161C47.717 25.6593 47.5123 25.8745 47.2387 25.8745C46.9651 25.8745 46.7604 25.6593 46.7604 25.4161V21.4352V21.0102L46.3409 20.9417L35.5801 19.1861L35.4996 19.173L35.4191 19.1861L24.6583 20.9417L24.2388 21.0102V21.4352V25.4161C24.2388 25.6593 24.0341 25.8745 23.7605 25.8745C23.4869 25.8745 23.2822 25.6593 23.2822 25.4161V20.6245C23.2822 20.408 23.4428 20.2117 23.6802 20.1731L23.6806 20.173L35.4182 18.2566C35.4184 18.2566 35.4186 18.2566 35.4189 18.2565C35.4737 18.2478 35.5256 18.2478 35.5802 18.2565C35.5804 18.2566 35.5806 18.2566 35.5809 18.2566L47.3185 20.173Z" fill="#C62325" stroke="#F9F9F9"/>
<path d="M50.6738 22.5423C50.6738 22.2991 50.8785 22.084 51.1521 22.084C51.4256 22.084 51.6303 22.299 51.6304 22.5423C51.6304 22.5424 51.6304 22.5424 51.6304 22.5424V27.334C51.6304 27.5772 51.4257 27.7923 51.1521 27.7923C50.8785 27.7923 50.6738 27.5772 50.6738 27.334V22.5423Z" fill="#C62325" stroke="white"/>
<path d="M19.3691 22.5423C19.3691 22.2991 19.5738 22.084 19.8474 22.084C20.1211 22.084 20.3257 22.2991 20.3257 22.5423V27.334C20.3257 27.5772 20.121 27.7923 19.8474 27.7923C19.5738 27.7923 19.3691 27.5772 19.3691 27.334V22.5423Z" fill="#C62325" stroke="white"/>
<path d="M27.1953 14.8744C27.1953 14.6312 27.4 14.416 27.6736 14.416C27.9471 14.416 28.1518 14.6311 28.1519 14.8744C28.1519 14.8744 28.1519 14.8744 28.1519 14.8745V19.666C28.1519 19.9092 27.9472 20.1244 27.6736 20.1244C27.4 20.1244 27.1953 19.9092 27.1953 19.666V14.8744Z" fill="#C62325" stroke="#F9F9F9"/>
<path d="M42.8477 14.8744C42.8477 14.6312 43.0523 14.416 43.3259 14.416C43.5996 14.416 43.8042 14.6312 43.8042 14.8744V19.666C43.8042 19.9092 43.5996 20.1244 43.3259 20.1244C43.0523 20.1244 42.8477 19.9092 42.8477 19.666V14.8744Z" fill="#C62325" stroke="#F9F9F9"/>
<path d="M51.2403 26.8842L51.2394 26.884L35.5873 24.009L35.583 24.0082L35.583 24.0082C35.5262 23.9973 35.4691 23.9973 35.4123 24.0082L35.408 24.009L19.7558 26.884L19.7553 26.8841C19.5247 26.9262 19.3691 27.1193 19.3691 27.3334V32.0461L25.9293 30.693C25.8556 30.7039 25.7836 30.7084 25.7151 30.7084C25.0322 30.7084 24.4126 30.2373 24.2686 29.539L51.2403 26.8842ZM51.2403 26.8842C51.473 26.9265 51.628 27.1198 51.6279 27.3333V27.3334V32.0461L51.2403 26.8842ZM31.2823 29.5889L35.1936 28.7821C35.3917 28.7387 35.6054 28.7387 35.8035 28.7821L39.7164 29.5892C39.1463 29.3013 38.8056 28.6662 38.9403 28.0042L38.9406 28.0028C39.106 27.2013 39.9113 26.7073 40.6802 26.8621C40.6808 26.8622 40.6814 26.8623 40.6819 26.8625L45.5697 27.8201L45.57 27.8202L45.4739 28.3109L31.2823 29.5889ZM31.2823 29.5889C31.8527 29.301 32.1935 28.6664 32.0569 28.0037C31.8934 27.1997 31.0783 26.7073 30.3183 26.8622L25.4295 27.8201C25.4294 27.8201 25.4293 27.8202 25.4293 27.8202C25.4292 27.8202 25.4292 27.8202 25.4292 27.8202C24.6365 27.9751 24.1028 28.7367 24.2686 29.5387L31.2823 29.5889Z" fill="#C62325" stroke="#F9F9F9"/>
<path d="M25.2841 50.5249L25.2841 50.5248L17.9759 35.3123L35.5004 31.698L53.025 35.3104L45.7421 50.473L45.7345 50.4889L45.728 50.5052C45.6819 50.6215 45.5938 50.7151 45.4838 50.7649L45.4831 50.7652C45.2925 50.8518 45.094 50.8194 44.9678 50.7116L44.9659 50.71C44.2461 50.1022 43.5606 49.833 42.6574 49.833C41.0785 49.833 40.2811 50.6855 39.4602 51.563L39.428 51.5975L39.4279 51.5976C38.7657 52.3055 38.0491 53.0621 36.9614 53.4327C36.9728 53.3596 36.9787 53.2846 36.9787 53.208V34.0414C36.9787 33.2266 36.3068 32.583 35.5004 32.583C34.694 32.583 34.0221 33.2266 34.0221 34.0414V53.2081C34.0221 53.2888 34.0287 53.3678 34.0413 53.4447C32.9363 53.0774 32.2142 52.3123 31.5435 51.5957L31.5431 51.5954C31.5306 51.582 31.518 51.5686 31.5055 51.5552C30.6872 50.6821 29.8914 49.8331 28.316 49.8331C27.4298 49.8331 26.7523 50.0923 26.0467 50.6855C25.9003 50.8068 25.6893 50.8333 25.5122 50.748C25.4108 50.6981 25.326 50.612 25.2841 50.5249Z" fill="#C62325" stroke="#F9F9F9"/>
<mask id="path-13-inside-1" fill="white">
<path d="M35.7109 29.2734H35.709L35.7542 29.2831L35.7109 29.2734Z"/>
</mask>
<path d="M35.7109 29.2734H35.709L35.7542 29.2831L35.7109 29.2734Z" fill="#C62325"/>
<path d="M35.7109 29.2734L35.929 28.2975L35.8213 28.2734H35.7109V29.2734ZM35.709 29.2734V28.2734L35.4998 30.2513L35.709 29.2734ZM35.7542 29.2831L35.5451 30.261L35.9723 28.3072L35.7542 29.2831ZM35.7109 28.2734H35.709V30.2734H35.7109V28.2734ZM35.4998 30.2513L35.5451 30.261L35.9634 28.3052L35.9181 28.2956L35.4998 30.2513ZM35.9723 28.3072L35.929 28.2975L35.4928 30.2494L35.5361 30.259L35.9723 28.3072Z" fill="white" mask="url(#path-13-inside-1)"/>
<mask id="path-15-inside-2" fill="white">
<path d="M35.2894 29.2734L35.2461 29.2831L35.2913 29.2734H35.2894Z"/>
</mask>
<path d="M35.2894 29.2734L35.2461 29.2831L35.2913 29.2734H35.2894Z" fill="#C62325"/>
<path d="M35.2894 29.2734V28.2734H35.179L35.0713 28.2975L35.2894 29.2734ZM35.2461 29.2831L35.028 28.3072L35.4553 30.261L35.2461 29.2831ZM35.2913 29.2734L35.5005 30.2513L35.2913 28.2734V29.2734ZM35.0713 28.2975L35.028 28.3072L35.4642 30.259L35.5075 30.2494L35.0713 28.2975ZM35.4553 30.261L35.5005 30.2513L35.0822 28.2956L35.0369 28.3052L35.4553 30.261ZM35.2913 28.2734H35.2894V30.2734H35.2913V28.2734Z" fill="white" mask="url(#path-15-inside-2)"/>
</svg>
