<svg width="39" height="36" viewBox="0 0 39 36" fill="none" xmlns="http://www.w3.org/2000/svg">
<path d="M36.8928 24.1771L32.8624 11.4079H31.8411V10.7093C33.8386 10.2089 33.8727 8.20727 33.8727 8.20727C33.8727 8.20727 33.1159 9.11024 31.8411 9.46078V8.90834H31.044V9.59579C31.0111 9.59703 30.9806 9.6057 30.9465 9.60694C29.1306 9.65153 28.3116 6.5896 26.0264 6.5896C23.8985 6.5896 21.5219 7.87655 19.9851 8.05491V4.5706C21.0722 4.39843 21.9034 3.45458 21.9034 2.30264C21.9058 1.03179 20.8894 0 19.6377 0C18.3873 0 17.3721 1.03179 17.3721 2.30264C17.3721 3.51652 18.3008 4.50124 19.4744 4.59042V8.0289C17.9376 7.78241 15.6573 6.5896 13.6049 6.5896C11.3197 6.5896 10.5032 9.65153 8.68603 9.60694C8.53856 9.60198 8.40328 9.57845 8.26434 9.55987V8.90834H7.46728V9.37036C6.38625 8.97151 5.76103 8.20851 5.76103 8.20851C5.76103 8.20851 5.79516 9.98101 7.46728 10.604V11.4079H6.44719L2.34609 24.1784H0C0 24.1784 1.68309 27.4472 7.71103 27.4472C13.739 27.4472 15.4221 24.1784 15.4221 24.1784H13.3148L9.28687 11.4092H8.26434V10.7948C8.42522 10.8121 8.59341 10.822 8.775 10.822C11.7451 10.822 12.1875 8.90834 13.8279 8.90834C15.3038 8.90834 17.0333 10.7713 19.1648 11.1478C19.2563 11.1738 19.7035 11.1429 19.5695 11.1763L19.5 18.332L18.146 21.1189L18.1923 29.5145H14.4702V30.9996L11.4782 36H28.4956L24.8393 30.9315V29.512H21.5828V21.1932L20.2118 18.2651L20.2105 11.159C20.3336 11.1577 20.3287 11.185 20.4701 11.1466C22.6017 10.77 24.3311 8.9071 25.807 8.9071C27.4487 8.9071 27.8899 10.8208 30.86 10.8208C30.9282 10.8208 30.9843 10.8134 31.0452 10.8109V11.4054H30.0263L25.9252 24.1747H23.5779C23.5779 24.1747 25.261 27.4434 31.289 27.4434C37.3169 27.4434 39 24.1771 39 24.1771H36.8928ZM7.46728 24.1771H3.18581L7.02487 12.2205H7.46728V24.1771ZM8.70553 12.2192L12.4788 24.1747H8.26434V12.2192H8.70553ZM31.0452 24.1771H26.7625L30.6016 12.2205H31.044V24.1771H31.0452ZM31.8423 24.1771V12.2192H32.2822L36.0555 24.1747L31.8423 24.1771Z" fill="#8F1416"/>
</svg>
