<svg width="36" height="54" viewBox="0 0 36 54" fill="none" xmlns="http://www.w3.org/2000/svg">
<path d="M30.6329 15.4566H20.3662V16.4131H30.6329V15.4566Z" fill="white"/>
<path d="M30.6335 16.8912H29.7002V17.8478H30.6335V16.8912Z" fill="white"/>
<path d="M21.2996 16.8912H20.3662V17.8478H21.2996V16.8912Z" fill="white"/>
<path d="M25.9665 12.3478H25.0332V13.3043H25.9665V12.3478Z" fill="white"/>
<path d="M27.3669 12.3478H26.4336V13.3043H27.3669V12.3478Z" fill="white"/>
<path d="M24.5662 12.3478H23.6328V13.3043H24.5662V12.3478Z" fill="white"/>
<path d="M23.1667 12.3478H22.2334V13.3043H23.1667V12.3478Z" fill="white"/>
<path d="M28.7664 12.3478H27.833V13.3043H28.7664V12.3478Z" fill="white"/>
<path d="M34.0304 29.6214C33.621 29.8453 33.266 30.0386 32.5256 30.043L35.2761 21.586C35.3518 21.3532 35.2433 21.0994 35.0249 20.9987L32.5 19.8343V15.2174C32.5 14.4263 31.872 13.7826 31.1 13.7826H30.4V11.3913C30.4 11.1272 30.1911 10.9131 29.9334 10.9131H25.9666V9H25.0333V10.9131H21.0666C20.8089 10.9131 20.6 11.1272 20.6 11.3913V13.7826H19.9C19.128 13.7826 18.5 14.4262 18.5 15.2174V19.8339L15.9751 20.9986C15.7567 21.0993 15.6482 21.3531 15.7239 21.586L18.4745 30.043C17.734 30.0385 17.3791 29.8452 16.9696 29.6214C16.5112 29.3709 15.9917 29.0869 15 29.0869V30.0434C15.7583 30.0434 16.1161 30.239 16.5304 30.4654C16.9887 30.716 17.5083 31 18.5 31C18.7625 31 18.9864 30.9822 19.1843 30.9457C19.7569 30.8533 20.1354 30.6467 20.4694 30.4643C20.883 30.2385 21.2401 30.0434 21.9955 30.0434C22.7538 30.0434 23.1116 30.239 23.5259 30.4654C23.9842 30.716 24.5038 31 25.4955 31C26.4871 31 27.0067 30.716 27.4651 30.4655C27.8793 30.239 28.2371 30.0435 28.9955 30.0435C29.7535 30.0435 30.1117 30.2385 30.5266 30.4644C30.8616 30.6468 31.2411 30.8534 31.8158 30.9457C32.0136 30.9823 32.2375 31 32.5 31C33.4917 31 34.0112 30.716 34.4696 30.4655C34.8839 30.2391 35.2417 30.0435 36 30.0435V29.087C35.0084 29.0869 34.4888 29.3709 34.0304 29.6214ZM34.2573 21.6935L33.9227 22.7223L25.9666 18.976V17.8701L34.2573 21.6935ZM21.5333 11.8696H29.4666V13.7826H21.5333V11.8696ZM19.4333 15.2174C19.4333 14.9537 19.6426 14.7392 19.8999 14.7392H21.0666H29.9333H31.1C31.3573 14.7392 31.5666 14.9537 31.5666 15.2174V19.4038L25.6914 16.6943C25.5696 16.6381 25.4301 16.6381 25.3084 16.6943L19.4332 19.4036V15.2174H19.4333ZM16.7427 21.6935L25.0333 17.8701V18.976L17.0773 22.7223L16.7427 21.6935ZM31.5851 29.9095C31.3584 29.8339 31.1706 29.732 30.9644 29.6197C30.5058 29.37 29.9859 29.087 28.9954 29.087C28.0038 29.087 27.4842 29.3709 27.0258 29.6214C26.6115 29.8479 26.2537 30.0435 25.4954 30.0435C24.7371 30.0435 24.3793 29.8479 23.965 29.6214C23.5067 29.3709 22.9871 29.087 21.9954 29.087C21.0069 29.087 20.4882 29.3702 20.0305 29.6201C19.8257 29.732 19.6392 29.8335 19.4146 29.9089L17.3741 23.6351L25.0333 20.0287V25.7391H25.9666V20.0287L33.6258 23.6352L31.5851 29.9095Z" fill="white"/>
<path d="M4.64258 9L5.52565 10.0794C5.68821 10.2781 5.67211 10.5681 5.48857 10.7476V10.7476C5.33341 10.8993 5.29683 11.1363 5.44905 11.291C5.64269 11.4877 5.95407 11.7162 6.39796 11.8609C6.76549 11.9807 6.9353 12.158 6.99969 12.3271C7.07862 12.5344 7.14655 12.7991 7.34582 12.8966V12.8966C7.48192 12.9631 7.56822 13.1014 7.56822 13.2529V14.6772C7.56822 15.0791 7.44712 15.4717 7.22073 15.8037L6.74545 16.5009C6.51905 16.833 6.39796 17.2256 6.39796 17.6275V18.4411V19.2968C6.39796 19.4562 6.26873 19.5854 6.10932 19.5854V19.5854C5.83037 19.5854 5.71368 19.9418 5.93862 20.1068L6.33576 20.3981C6.37693 20.4283 6.41265 20.4653 6.44141 20.5074L6.54744 20.663C6.8217 21.0653 6.89065 21.5732 6.73356 22.034L6.39796 23.0185L6.01792 24.5051C5.88754 25.0151 5.98273 25.5565 6.27925 25.9914L6.78009 26.7261C6.90255 26.9057 6.90255 27.142 6.78009 27.3216V27.3216C6.58613 27.6061 6.71159 27.9971 7.03486 28.1157L7.91361 28.4379C8.40908 28.6196 8.73847 29.0912 8.73847 29.619V29.7591C8.73847 30.0283 8.81301 30.2923 8.95383 30.5219L9.36364 31.1898C9.5268 31.4557 9.59146 31.7704 9.54636 32.0791L9.50149 32.3863C9.4077 33.0283 9.90541 33.604 10.5542 33.604V33.604C10.885 33.604 11.197 33.7579 11.3984 34.0204L11.6129 34.3001C11.8296 34.5827 12.1655 34.7483 12.5216 34.7483V34.7483C12.9003 34.7483 13.2546 34.9356 13.4679 35.2485L13.7121 35.6066L13.9893 35.9682C14.3678 36.4617 14.9544 36.751 15.5763 36.751H16.9303L20.6182 37.2662C20.8832 37.3032 21.1294 37.4241 21.3207 37.6112L21.5166 37.8028C21.8945 38.1723 22.4983 38.1723 22.8762 37.8028V37.8028C23.1702 37.5153 23.6135 37.4439 23.983 37.6245L24.043 37.6539C24.3453 37.8017 24.5369 38.1087 24.5369 38.4451V38.7157C24.5369 39.0526 24.8101 39.3258 25.1471 39.3258V39.3258C25.5653 39.3258 25.8596 39.737 25.7246 40.1329L25.6115 40.4648C25.4938 40.8102 25.1693 41.0424 24.8044 41.0424V41.0424C24.3335 41.0424 23.9518 41.4241 23.9518 41.895V42.7291C23.9518 43.1184 23.8171 43.4958 23.5706 43.7971L22.7815 44.7616L21.1129 46.9372C21.0551 47.0125 20.9921 47.0836 20.9242 47.15L19.2086 48.8277C19.056 48.9769 18.8805 49.1008 18.6888 49.1945L17.847 49.6061C17.4427 49.8037 16.9836 49.8593 16.5438 49.7637L14.7996 49.3847C14.6601 49.3544 14.5177 49.3391 14.3749 49.3391H13.0046C12.7001 49.3391 12.3996 49.4086 12.1261 49.5423L11.2088 49.9908C10.931 50.1267 10.6885 50.3251 10.5003 50.5704L10.3848 50.721C10.0787 51.1201 9.6335 51.3892 9.1379 51.4747L4.93514 52.2" stroke="white" stroke-width="3" stroke-linejoin="round"/>
<path d="M4.64258 9L5.52565 10.0794C5.68821 10.2781 5.67211 10.5681 5.48857 10.7476V10.7476C5.33341 10.8993 5.29683 11.1363 5.44905 11.291C5.64269 11.4877 5.95407 11.7162 6.39796 11.8609C6.76549 11.9807 6.9353 12.158 6.99969 12.3271C7.07862 12.5344 7.14655 12.7991 7.34582 12.8966V12.8966C7.48192 12.9631 7.56822 13.1014 7.56822 13.2529V14.6772C7.56822 15.0791 7.44712 15.4717 7.22073 15.8037L6.74545 16.5009C6.51905 16.833 6.39796 17.2256 6.39796 17.6275V18.4411V19.2968C6.39796 19.4562 6.26873 19.5854 6.10932 19.5854V19.5854C5.83037 19.5854 5.71368 19.9418 5.93862 20.1068L6.33576 20.3981C6.37693 20.4283 6.41265 20.4653 6.44141 20.5074L6.54744 20.663C6.8217 21.0653 6.89065 21.5732 6.73356 22.034L6.39796 23.0185L6.01792 24.5051C5.88754 25.0151 5.98273 25.5565 6.27925 25.9914L6.78009 26.7261C6.90255 26.9057 6.90255 27.142 6.78009 27.3216V27.3216C6.58613 27.6061 6.71159 27.9971 7.03486 28.1157L7.91361 28.4379C8.40908 28.6196 8.73847 29.0912 8.73847 29.619V29.7591C8.73847 30.0283 8.81301 30.2923 8.95383 30.5219L9.36364 31.1898C9.5268 31.4557 9.59146 31.7704 9.54636 32.0791L9.50149 32.3863C9.4077 33.0283 9.90541 33.604 10.5542 33.604V33.604C10.885 33.604 11.197 33.7579 11.3984 34.0204L11.6129 34.3001C11.8296 34.5827 12.1655 34.7483 12.5216 34.7483V34.7483C12.9003 34.7483 13.2546 34.9356 13.4679 35.2485L13.7121 35.6066L13.9893 35.9682C14.3678 36.4617 14.9544 36.751 15.5763 36.751H16.9303L20.6182 37.2662C20.8832 37.3032 21.1294 37.4241 21.3207 37.6112L21.5166 37.8028C21.8945 38.1723 22.4983 38.1723 22.8762 37.8028V37.8028C23.1702 37.5153 23.6135 37.4439 23.983 37.6245L24.043 37.6539C24.3453 37.8017 24.5369 38.1087 24.5369 38.4451V38.7157C24.5369 39.0526 24.8101 39.3258 25.1471 39.3258V39.3258C25.5653 39.3258 25.8596 39.737 25.7246 40.1329L25.6115 40.4648C25.4938 40.8102 25.1693 41.0424 24.8044 41.0424V41.0424C24.3335 41.0424 23.9518 41.4241 23.9518 41.895V42.7291C23.9518 43.1184 23.8171 43.4958 23.5706 43.7971L22.7815 44.7616L21.1129 46.9372C21.0551 47.0125 20.9921 47.0836 20.9242 47.15L19.2086 48.8277C19.056 48.9769 18.8805 49.1008 18.6888 49.1945L17.847 49.6061C17.4427 49.8037 16.9836 49.8593 16.5438 49.7637L14.7996 49.3847C14.6601 49.3544 14.5177 49.3391 14.3749 49.3391H13.0046C12.7001 49.3391 12.3996 49.4086 12.1261 49.5423L11.2088 49.9908C10.931 50.1267 10.6885 50.3251 10.5003 50.5704L10.3848 50.721C10.0787 51.1201 9.6335 51.3892 9.1379 51.4747L4.93514 52.2" stroke="#C62325" stroke-width="2" stroke-linejoin="round"/>
<path d="M6.49991 0C3.4281 0 0.928711 2.37829 0.928711 5.30156C0.928711 6.06406 1.09272 6.79208 1.41595 7.46557C2.80891 10.366 5.47959 13.4282 6.26512 14.2976C6.32397 14.3626 6.40977 14.4 6.50007 14.4C6.59036 14.4 6.67616 14.3626 6.73501 14.2976C7.52023 13.4284 10.1909 10.3663 11.5843 7.46557C11.9077 6.79208 12.0716 6.06406 12.0716 5.30156C12.0713 2.37829 9.57188 0 6.49991 0ZM6.49991 8.0552C4.90422 8.0552 3.6059 6.81978 3.6059 5.30141C3.6059 3.78289 4.90422 2.54747 6.49991 2.54747C8.0956 2.54747 9.39392 3.78289 9.39392 5.30141C9.39408 6.81978 8.09575 8.0552 6.49991 8.0552Z" fill="white"/>
<path d="M4.64267 42.3C2.08282 42.3 0 44.2324 0 46.6075C0 47.2271 0.136678 47.8186 0.406033 48.3658C1.56683 50.7224 3.7924 53.2104 4.44701 53.9168C4.49605 53.9696 4.56755 54 4.6428 54C4.71804 54 4.78954 53.9696 4.83859 53.9168C5.49294 53.2106 7.7185 50.7226 8.87969 48.3658C9.14917 47.8186 9.28572 47.2271 9.28572 46.6075C9.28546 44.2324 7.20264 42.3 4.64267 42.3ZM4.64267 48.8449C3.31293 48.8449 2.23099 47.8411 2.23099 46.6074C2.23099 45.3736 3.31293 44.3698 4.64267 44.3698C5.97241 44.3698 7.05434 45.3736 7.05434 46.6074C7.05447 47.8411 5.97254 48.8449 4.64267 48.8449Z" fill="white"/>
</svg>
