<svg width="176" height="52" viewBox="0 0 176 52" fill="none" xmlns="http://www.w3.org/2000/svg">
<path d="M-52.2075 12.0965C-52.2075 12.0965 -33.4053 2.07148 -17.9431 1.90045C-2.48087 1.72942 5.26356 6.5051 18.1576 7.66284C34.6179 9.13633 39.1155 2.07148 58.9023 0.255928C78.6892 -1.55962 100.991 6.834 115.788 8.14961C130.585 9.46523 139.247 2.55825 151.889 1.57154C159.008 1.01898 172.181 6.834 172.181 6.834C172.181 6.834 159.034 2.18988 151.889 2.88716C136.746 4.3738 132.541 13.7541 118.955 13.6357C94.3377 13.4121 87.1788 -0.836032 58.5697 1.57154C40.5792 3.12397 35.2832 14.0699 16.827 12.9253C-1.62925 11.7807 -2.97321 6.67613 -18.6084 5.51839C-34.2437 4.36064 -52.2075 12.0965 -52.2075 12.0965Z" fill="#DCB37D"/>
<path d="M-47.71 20.3191C-39.3832 15.3873 -29.7299 13.0919 -20.0456 13.741C-6.53947 14.8856 -1.11036 19.4245 12.5023 21.4242C26.1149 23.4239 32.4621 18.793 44.7707 12.7017C57.0793 6.6104 72.7145 9.25479 86.0211 16.3196C99.3276 23.3845 108.31 23.7265 119.62 21.911C130.931 20.0955 140.911 12.3728 150.558 11.5571C160.205 10.7414 176 16.8196 176 16.8196C176 16.8196 158.702 11.5571 150.558 12.5438C142.414 13.5305 132.594 20.9243 119.287 23.8844C105.981 26.8446 100.153 24.7132 84.8501 20.7664C69.5475 16.8196 65.2229 12.8727 46.1013 19.7797C26.9798 26.6867 14.445 23.937 4.67799 21.2006C-3.58538 18.8851 -10.6246 16.1618 -20.9372 15.5039C-36.9982 14.5304 -47.71 20.3191 -47.71 20.3191Z" fill="#DCB37D"/>
<path d="M-54.2568 34.633C-54.2568 34.633 -39.3934 22.3847 -26.0868 21.8453C-12.7802 21.3059 -4.55679 27.1077 10.7058 30.6599C25.9685 34.212 40.5392 30.1073 50.6255 24.9764C63.3599 18.5168 73.4197 23.2398 82.9871 26.7394C92.5546 30.2389 102.162 33.4621 113.858 32.6464C125.555 31.8308 136.067 23.4372 147.857 23.9371C160.498 24.437 171.928 34.9225 171.928 34.9225C171.928 34.9225 158.502 24.1081 147.684 25.2527C135.309 26.5683 126.766 36.9485 114.417 37.7642C102.069 38.5799 88.5626 30.4099 81.6432 27.7261C74.7237 25.0422 64.1583 18.6483 50.6122 26.4104C37.0661 34.1726 23.8793 40.4612 8.92277 36.0671C-6.03382 31.6729 -12.3678 22.6873 -26.4328 23.5687C-40.4978 24.4502 -54.2568 34.633 -54.2568 34.633Z" fill="#DCB37D"/>
<path d="M-56 47.6707C-48.5345 42.1166 -40.2012 37.806 -31.3296 34.9092C-22.1348 31.9885 -12.7004 33.5936 -3.49229 37.2115C5.71585 40.8295 13.407 44.1711 22.9479 45.1052C32.4887 46.0393 44.9037 40.2901 55.3361 35.6854C65.7684 31.0808 77.731 34.8039 85.9412 40.5006C94.1513 46.1972 102.348 49.9335 111.437 48.1838C120.525 46.434 121.643 45.5525 132.953 39.6323C144.264 33.712 159.779 33.9225 171.981 48.8416C157.131 33.4883 144.264 35.6854 135.388 39.8427C126.513 44.0001 121.19 49.7099 111.437 51.4728C101.683 53.2357 94.3642 50.3677 83.9452 45.9867C73.5262 41.6057 63.5329 41.8162 56.4405 44.8947C49.3481 47.9733 36.2544 52.7884 22.2825 49.2757C8.31063 45.763 4.54488 42.6187 -4.15762 39.4612C-12.8601 36.3037 -22.7868 35.1065 -31.7687 37.1589C-40.3665 39.3475 -48.5493 42.8973 -56 47.6707Z" fill="#DCB37D"/>
</svg>
