<svg width="1920" height="110" viewBox="0 0 1920 110" fill="none" xmlns="http://www.w3.org/2000/svg">
<path d="M438.711 30.0931C229.075 30.4637 -94.6852 51.1497 -94.6852 51.1497L-135 99.3817L-84.8649 110H1996V57.4486C1996 57.4486 1701.66 31.7179 1509.12 30.0931C1307.96 28.3956 1198.64 50.4614 997.433 51.1497C777.975 51.9003 658.177 29.7052 438.711 30.0931Z" fill="#FEFCDD"/>
<path d="M299.324 0.103585C66.0783 0.51585 -294.145 23.529 -294.145 23.529L-339 77.1872L-283.219 89H2032V30.5366C2032 30.5366 1704.51 1.91113 1490.29 0.103585C1266.47 -1.78485 1144.84 22.7634 920.971 23.529C676.797 24.3641 543.507 -0.328012 299.324 0.103585Z" fill="#FEFCDD" fill-opacity="0.58"/>
<path d="M401.324 4.10359C168.078 4.51585 -192.145 27.529 -192.145 27.529L-237 81.1872L-181.219 93H2134V34.5366C2134 34.5366 1806.51 5.91113 1592.29 4.10359C1368.47 2.21515 1246.84 26.7634 1022.97 27.529C778.797 28.3641 645.507 3.67199 401.324 4.10359Z" fill="#FEFCDD" fill-opacity="0.58"/>
</svg>
