<svg width="273" height="64" viewBox="0 0 273 64" fill="none" xmlns="http://www.w3.org/2000/svg">
<path d="M-60.6245 23.2253C-60.6245 23.2253 -34.9826 31.9304 -15.2097 20.8227C4.56325 9.71493 26.5545 1.37543 45.786 0.34823C65.0174 -0.678974 87.6026 7.88687 112.319 20.8575C137.035 33.8281 154.851 38.8597 178.904 36.5267C202.956 34.1937 215.742 25.7149 238.939 22.999C250.36 21.5816 261.95 22.5058 273 25.7149C273 25.7149 254.694 22.4244 241.14 24.4092C221.926 27.2122 207.725 39.1731 178.851 42.6899C148.476 46.3809 132.196 38.5463 108.703 31.2514C85.2095 23.9565 66.8864 21.9717 46.7467 24.7922C26.6069 27.6127 10.799 34.7509 -15.821 33.0621C-31.1906 32.2173 -46.3213 28.8953 -60.6245 23.2253Z" fill="black" fill-opacity="0.03"/>
<path d="M83.7773 0C106.485 0.748641 130.293 15.025 152.598 12.7095C174.904 10.3939 187.236 3.62135 205.157 3.01199C223.079 2.40263 245.716 6.6159 259.603 12.901C241.751 8.73995 231.323 4.68335 211.096 14.4157C190.869 24.148 172.022 29.9631 153.279 27.0904C134.537 24.2177 121.699 5.76279 83.7773 0Z" fill="black" fill-opacity="0.03"/>
<path d="M0.650391 42.3591C0.650391 42.3591 22.5369 38.7204 50.1176 33.4973C77.6984 28.2742 95.0958 34.1241 118.991 42.7422C142.886 51.3602 164.703 53.3798 187.113 48.4701C209.524 43.5605 212.161 37.5017 238.799 37.0142C223.952 36.8053 206.38 44.3961 187.498 52.4048C166.833 61.3092 144.257 64.901 121.838 62.851C96.0914 60.7443 79.253 47.8956 49.157 44.4135C19.0609 40.9315 0.650391 42.3591 0.650391 42.3591Z" fill="black" fill-opacity="0.03"/>
<path d="M-67 39.2426C-44.7467 40.4265 -34.3537 46.2067 -13.0087 50.0196C8.33624 53.8324 29.786 50.6115 48.5283 53.049C61.1581 54.9985 73.4556 58.6839 85.0698 64C73.4349 59.8099 61.2599 57.295 48.9126 56.531C30.5895 55.852 21.7336 64.4353 3.86463 61.9978C-14.0044 59.5604 -19.1572 53.4146 -33.4978 48.4179C-47.8384 43.4211 -53.0437 40.7399 -67 39.2426Z" fill="black" fill-opacity="0.03"/>
</svg>
