<svg width="190" height="49" viewBox="0 0 190 49" fill="none" xmlns="http://www.w3.org/2000/svg">
<path d="M13.4287 17.7524C30.5042 7.59322 43.9229 8.60913 60.5026 6.82609C77.0823 5.04306 93.6826 -2.31715 110.025 0.730597C126.367 3.77834 150.26 15.9797 159.536 21.3184C143.432 14.7046 131.976 9.11709 110.262 11.6569C88.5486 14.1967 83.6728 17.2548 61.236 13.9479C38.7992 10.641 33.9131 8.56767 13.4287 17.7524Z" fill="white" fill-opacity="0.2"/>
<path d="M0 25.5894C0 25.5894 14.3897 22.5417 25.3705 17.9701C36.3513 13.3984 50.7307 16.9334 62.9305 19.0067C75.1302 21.08 83.9004 20.2818 91.2244 17.9701C83.9004 20.769 79.5101 24.8327 64.8828 26.3565C50.2555 27.8804 39.0578 19.4939 24.1516 22.0337C9.24536 24.5735 0 25.5894 0 25.5894Z" fill="white" fill-opacity="0.2"/>
<path d="M52.4453 29.4043C64.3868 30.441 73.9111 28.6476 86.3484 23.5577C98.7858 18.4677 113.423 13.1393 125.602 15.4303C137.782 17.7213 146.583 21.0179 160.725 26.6054C174.866 32.1929 190 30.1922 190 30.1922C190 30.1922 175.858 33.7583 162.202 32.9912C148.545 32.224 137.802 29.4355 123.66 26.6365C109.519 23.8376 100.934 24.8638 86.8339 27.1444C72.7335 29.4251 65.3682 32.2033 52.4453 29.4043Z" fill="white" fill-opacity="0.2"/>
<path d="M131.471 34.7431C122.643 30.4954 112.966 28.3222 103.177 28.3884C87.32 28.6372 81.9587 33.9759 65.3687 33.7271C48.7787 33.4783 43.903 28.8964 31.7135 28.3884C19.5241 27.8805 15.609 29.6531 10.4854 30.6794C16.3425 29.6427 18.7494 29.6427 31.4656 30.6794C44.1819 31.716 50.7311 37.2828 64.6353 40.3306C78.5395 43.3783 91.2248 37.5316 103.889 33.7271C116.554 29.9226 131.471 34.7431 131.471 34.7431Z" fill="white" fill-opacity="0.2"/>
<path d="M65.3574 44.9023C65.3574 44.9023 82.4329 44.9023 94.1472 40.5794C105.861 36.2566 120.241 35.4999 130.974 38.0397C141.707 40.5795 150.239 41.8545 160.734 40.113C146.582 42.9119 145.363 43.4199 132.441 44.6949C119.518 45.97 113.413 50.0233 97.0706 48.7586C80.7285 47.4939 65.3574 44.9023 65.3574 44.9023Z" fill="white" fill-opacity="0.2"/>
</svg>
