<svg width="70" height="70" viewBox="0 0 70 70" fill="none" xmlns="http://www.w3.org/2000/svg">
<rect width="70" height="70" fill="#841214"/>
<path d="M33.3057 21.0312L33.9546 21.8244C34.074 21.9705 34.0622 22.1835 33.9273 22.3154V22.3154C33.8133 22.4269 33.7864 22.6011 33.8983 22.7147C34.0406 22.8593 34.2694 23.0272 34.5956 23.1335C34.8656 23.2216 34.9904 23.3518 35.0377 23.4761C35.0957 23.6284 35.1456 23.823 35.2921 23.8945V23.8945C35.3921 23.9434 35.4555 24.045 35.4555 24.1564V25.1001C35.4555 25.4625 35.3463 25.8164 35.1422 26.1159L34.9431 26.408C34.7167 26.74 34.5956 27.1326 34.5956 27.5345V27.9688V28.5976C34.5956 28.7148 34.5006 28.8097 34.3835 28.8097V28.8097C34.1785 28.8097 34.0927 29.0716 34.258 29.1928L34.5499 29.4069C34.5801 29.4291 34.6064 29.4562 34.6275 29.4872L34.7054 29.6015C34.9069 29.8971 34.9576 30.2704 34.8422 30.609L34.5956 31.3325L34.3163 32.4248C34.2205 32.7996 34.2904 33.1974 34.5083 33.517L34.8764 34.0569C34.9664 34.1889 34.9664 34.3625 34.8764 34.4945V34.4945C34.7338 34.7035 34.826 34.9909 35.0636 35.078L35.7093 35.3148C36.0734 35.4483 36.3154 35.7948 36.3154 36.1826V36.2856C36.3154 36.4834 36.3702 36.6775 36.4737 36.8461L36.7748 37.3369C36.8947 37.5323 36.9422 37.7636 36.9091 37.9904L36.8761 38.2162C36.8072 38.6879 37.1729 39.1109 37.6497 39.1109V39.1109C37.8928 39.1109 38.1221 39.224 38.27 39.4169L38.4224 39.6157C38.585 39.8276 38.8369 39.9518 39.1039 39.9518V39.9518C39.3781 39.9518 39.6358 40.0827 39.7975 40.3041L40.0777 40.6876C40.4154 41.1501 40.9537 41.4234 41.5263 41.4234H42.335L45.045 41.802C45.2397 41.8292 45.4206 41.9181 45.5612 42.0555L45.7052 42.1964C45.9829 42.4679 46.4265 42.4679 46.7042 42.1964V42.1964C46.9203 41.985 47.246 41.9326 47.5175 42.0653L47.5617 42.0869C47.7837 42.1955 47.9246 42.4211 47.9246 42.6683V42.8671C47.9246 43.1148 48.1253 43.3155 48.3729 43.3155V43.3155C48.6803 43.3155 48.8965 43.6177 48.7973 43.9085L48.7142 44.1525C48.6277 44.4063 48.3893 44.5769 48.1211 44.5769V44.5769C47.7751 44.5769 47.4946 44.8574 47.4946 45.2034V45.8163C47.4946 46.1024 47.3956 46.3797 47.2145 46.6011L46.6347 47.3098L45.4315 48.8786C45.3738 48.9539 45.3107 49.025 45.2428 49.0913L44.0702 50.238C43.9176 50.3872 43.7422 50.5111 43.5504 50.6048L43.1742 50.7888C42.7699 50.9864 42.3108 51.042 41.871 50.9464L40.825 50.7191C40.6855 50.6888 40.5431 50.6735 40.4003 50.6735H39.573C39.2685 50.6735 38.968 50.743 38.6945 50.8768L38.1777 51.1294C37.9427 51.2444 37.7374 51.4123 37.5782 51.6199V51.6199C37.3192 51.9576 36.9425 52.1853 36.5231 52.2577L33.5206 52.7758" stroke="white" stroke-width="2" stroke-linejoin="round"/>
<path d="M33.3057 21.0312L33.9546 21.8244C34.074 21.9705 34.0622 22.1835 33.9273 22.3154V22.3154C33.8133 22.4269 33.7864 22.6011 33.8983 22.7147C34.0406 22.8593 34.2694 23.0272 34.5956 23.1335C34.8656 23.2216 34.9904 23.3518 35.0377 23.4761C35.0957 23.6284 35.1456 23.823 35.2921 23.8945V23.8945C35.3921 23.9434 35.4555 24.045 35.4555 24.1564V25.1001C35.4555 25.4625 35.3463 25.8164 35.1422 26.1159L34.9431 26.408C34.7167 26.74 34.5956 27.1326 34.5956 27.5345V27.9688V28.5976C34.5956 28.7148 34.5006 28.8097 34.3835 28.8097V28.8097C34.1785 28.8097 34.0927 29.0716 34.258 29.1928L34.5499 29.4069C34.5801 29.4291 34.6064 29.4562 34.6275 29.4872L34.7054 29.6015C34.9069 29.8971 34.9576 30.2704 34.8422 30.609L34.5956 31.3325L34.3163 32.4248C34.2205 32.7996 34.2904 33.1974 34.5083 33.517L34.8764 34.0569C34.9664 34.1889 34.9664 34.3625 34.8764 34.4945V34.4945C34.7338 34.7035 34.826 34.9909 35.0636 35.078L35.7093 35.3148C36.0734 35.4483 36.3154 35.7948 36.3154 36.1826V36.2856C36.3154 36.4834 36.3702 36.6775 36.4737 36.8461L36.7748 37.3369C36.8947 37.5323 36.9422 37.7636 36.9091 37.9904L36.8761 38.2162C36.8072 38.6879 37.1729 39.1109 37.6497 39.1109V39.1109C37.8928 39.1109 38.1221 39.224 38.27 39.4169L38.4224 39.6157C38.585 39.8276 38.8369 39.9518 39.1039 39.9518V39.9518C39.3781 39.9518 39.6358 40.0827 39.7975 40.3041L40.0777 40.6876C40.4154 41.1501 40.9537 41.4234 41.5263 41.4234H42.335L45.045 41.802C45.2397 41.8292 45.4206 41.9181 45.5612 42.0555L45.7052 42.1964C45.9829 42.4679 46.4265 42.4679 46.7042 42.1964V42.1964C46.9203 41.985 47.246 41.9326 47.5175 42.0653L47.5617 42.0869C47.7837 42.1955 47.9246 42.4211 47.9246 42.6683V42.8671C47.9246 43.1148 48.1253 43.3155 48.3729 43.3155V43.3155C48.6803 43.3155 48.8965 43.6177 48.7973 43.9085L48.7142 44.1525C48.6277 44.4063 48.3893 44.5769 48.1211 44.5769V44.5769C47.7751 44.5769 47.4946 44.8574 47.4946 45.2034V45.8163C47.4946 46.1024 47.3956 46.3797 47.2145 46.6011L46.6347 47.3098L45.4315 48.8786C45.3738 48.9539 45.3107 49.025 45.2428 49.0913L44.0702 50.238C43.9176 50.3872 43.7422 50.5111 43.5504 50.6048L43.1742 50.7888C42.7699 50.9864 42.3108 51.042 41.871 50.9464L40.825 50.7191C40.6855 50.6888 40.5431 50.6735 40.4003 50.6735H39.573C39.2685 50.6735 38.968 50.743 38.6945 50.8768L38.1777 51.1294C37.9427 51.2444 37.7374 51.4123 37.5782 51.6199V51.6199C37.3192 51.9576 36.9425 52.1853 36.5231 52.2577L33.5206 52.7758" stroke="#C62325" stroke-linejoin="round"/>
<path d="M32.0939 13C29.8366 13 28 14.7476 28 16.8957C28 17.456 28.1205 17.991 28.358 18.4859C29.3816 20.6172 31.3441 22.8674 31.9213 23.5063C31.9646 23.554 32.0276 23.5815 32.094 23.5815C32.1603 23.5815 32.2234 23.554 32.2666 23.5063C32.8436 22.8675 34.8061 20.6174 35.83 18.4859C36.0677 17.991 36.1881 17.456 36.1881 16.8957C36.1879 14.7476 34.3512 13 32.0939 13ZM32.0939 18.9192C30.9213 18.9192 29.9673 18.0114 29.9673 16.8956C29.9673 15.7798 30.9213 14.872 32.0939 14.872C33.2664 14.872 34.2205 15.7798 34.2205 16.8956C34.2206 18.0114 33.2665 18.9192 32.0939 18.9192Z" fill="#F9F9F9"/>
<path d="M31.4116 49.8457C29.5305 49.8457 28 51.2657 28 53.011C28 53.4662 28.1004 53.9009 28.2984 54.303C29.1513 56.0347 30.7868 57.863 31.2678 58.382C31.3038 58.4208 31.3564 58.4432 31.4117 58.4432C31.4669 58.4432 31.5195 58.4208 31.5555 58.382C32.0364 57.8631 33.6718 56.0349 34.525 54.303C34.7231 53.9009 34.8234 53.4662 34.8234 53.011C34.8232 51.2657 33.2927 49.8457 31.4116 49.8457ZM31.4116 54.655C30.4344 54.655 29.6394 53.9174 29.6394 53.0109C29.6394 52.1043 30.4344 51.3667 31.4116 51.3667C32.3887 51.3667 33.1837 52.1043 33.1837 53.0109C33.1838 53.9174 32.3888 54.655 31.4116 54.655Z" fill="#F9F9F9"/>
<circle cx="35.7451" cy="35" r="26.5" transform="rotate(-90 35.7451 35)" stroke="#F9F9F9"/>
<circle cx="8.17021" cy="34.9997" r="4.17021" transform="rotate(-90 8.17021 34.9997)" fill="#C62325" stroke="#F9F9F9" stroke-width="2"/>
<circle cx="62.1702" cy="34.9997" r="4.17021" transform="rotate(-90 62.1702 34.9997)" fill="#C62325" stroke="#F9F9F9" stroke-width="2"/>
<circle cx="46.0852" cy="59.1277" r="2.37234" transform="rotate(-90 46.0852 59.1277)" fill="#C62325" stroke="#F9F9F9"/>
<circle cx="20.8089" cy="56.8288" r="2.37234" transform="rotate(-90 20.8089 56.8288)" fill="#C62325" stroke="#F9F9F9"/>
<circle r="2.37234" transform="matrix(4.37114e-08 1 1 -4.37114e-08 46.0852 10.8723)" fill="#C62325" stroke="#F9F9F9"/>
<circle r="2.37234" transform="matrix(4.37114e-08 1 1 -4.37114e-08 20.8089 13.1712)" fill="#C62325" stroke="#F9F9F9"/>
</svg>
