<svg width="70" height="70" viewBox="0 0 70 70" fill="none" xmlns="http://www.w3.org/2000/svg">
<rect width="70" height="70" fill="#841214"/>
<g clip-path="url(#clip0)">
<path d="M35.8666 19.5561L35.8668 19.5565L40.3188 30.0937L40.4362 30.3714L40.7366 30.3973L52.1341 31.3764C52.4863 31.4068 52.6262 31.8454 52.362 32.074L52.3618 32.0742L43.7164 39.5643L43.4886 39.7618L43.5568 40.0554L46.1475 51.1979C46.2276 51.5429 45.8545 51.8105 45.5552 51.6292L45.5543 51.6287L35.7591 45.7214L35.5009 45.5657L35.2427 45.7214L25.448 51.6284C25.1449 51.8107 24.7748 51.5396 24.8542 51.1981L24.3672 51.0849L24.8543 51.1981L27.445 40.0554L27.5133 39.7618L27.2854 39.5643L18.6382 32.0724L18.638 32.0722C18.3729 31.8428 18.5131 31.4051 18.8657 31.3746C18.8657 31.3746 18.8658 31.3746 18.8658 31.3746L30.2634 30.3955L30.5638 30.3697L30.6812 30.0919L35.1332 19.5565L35.1334 19.5561C35.2705 19.2308 35.7295 19.2308 35.8666 19.5561Z" fill="#C62325" stroke="white"/>
</g>
<defs>
<clipPath id="clip0">
<rect width="35" height="35" fill="white" transform="translate(18 18)"/>
</clipPath>
</defs>
</svg>
