<svg width="70" height="70" viewBox="0 0 70 70" fill="none" xmlns="http://www.w3.org/2000/svg">
<rect width="70" height="70" fill="#841214"/>
<g clip-path="url(#clip0)">
<path d="M52.7074 42.7337L52.8509 42.4551L54.6302 39.0005L54.6303 39.0003C54.7288 38.8095 54.7152 38.5785 54.5945 38.3993C54.4752 38.2225 54.2666 38.1225 54.051 38.1424L54.0501 38.1425C47.1282 38.7707 41.6217 42.2358 38.6499 44.5466L37.9312 43.8681L45.8941 32.3155L52.7074 42.7337ZM52.7074 42.7337L52.8956 42.9843M52.7074 42.7337L52.8956 42.9843M52.8956 42.9843L53.4285 43.6939C53.4286 43.6941 53.4288 43.6942 53.4289 43.6944C53.5613 43.8718 53.584 44.1047 53.4911 44.3015L53.4907 44.3023C53.3975 44.5006 53.2028 44.6306 52.9832 44.6412C52.9832 44.6412 52.9831 44.6412 52.9831 44.6412L48.8597 44.8375L47.9422 44.8811L48.4769 45.628L48.8641 46.1687C48.8641 46.1687 48.8642 46.1688 48.8642 46.1688C48.9879 46.3427 49.0093 46.5674 48.92 46.7615C48.8297 46.9559 48.6434 47.0863 48.4335 47.1047L48.4332 47.1047C46.0243 47.3171 41.8158 47.5089 38.5638 46.7215L37.1509 46.3794L38.0544 47.5182L40.0567 50.0418L36.1049 48.7191L35.3602 48.4698L35.4495 49.25L36.1184 55.0976L36.1191 55.1028M52.8956 42.9843L36.1191 55.1028M45.2533 31.4094L45.2531 31.4094L42.9688 32.0342L42.2401 32.2335L42.3414 31.4848L43.7383 21.1645L43.7385 21.1629C43.7668 20.9594 43.6858 20.7552 43.5231 20.6255L43.5213 20.6241C43.3609 20.495 43.1429 20.4592 42.9486 20.5306L42.7761 20.0613L42.9486 20.5306L40.4745 21.4401L40.107 21.5752L39.8878 21.2509L35.4991 14.7609C35.4989 14.7607 35.4988 14.7604 35.4986 14.7602C35.3873 14.5975 35.2024 14.5 35.0082 14.5C34.8124 14.5 34.6281 14.5977 34.5187 14.7598L34.5183 14.7604L30.122 21.2539L29.9027 21.5778L29.5355 21.4429L27.0577 20.5325L27.057 20.5322C26.8632 20.4607 26.6458 20.4961 26.4834 20.6264C26.3216 20.7562 26.24 20.9614 26.2678 21.1659L26.2679 21.1665L27.6612 31.4878L27.7622 32.236L27.0339 32.037L24.7477 31.4122L24.7476 31.4122C24.5092 31.347 24.2535 31.4381 24.1094 31.6408C23.9658 31.8427 23.964 32.1135 24.1048 32.3169L24.1053 32.3177L32.0676 43.8709L31.3489 44.5493C28.3799 42.2395 22.8716 38.7743 15.9496 38.1453L15.9485 38.1452C15.7349 38.1253 15.5271 38.2235 15.406 38.4032C15.2844 38.5836 15.2712 38.8126 15.3694 39.0031L15.3696 39.0034L17.148 42.4579L17.2911 42.7359L17.1039 42.9862L16.5741 43.6947C16.442 43.8715 16.4184 44.1031 16.5117 44.302C16.6052 44.4994 16.7998 44.6299 17.0189 44.6412C17.0192 44.6412 17.0194 44.6412 17.0197 44.6413L21.1419 44.8375L22.0585 44.8811L21.5249 45.6276L21.1375 46.1696C21.1375 46.1697 21.1374 46.1699 21.1373 46.17C21.0131 46.3447 20.9917 46.569 21.0803 46.7626C21.1684 46.9541 21.3525 47.0846 21.5673 47.1048C23.9764 47.3171 28.1843 47.5097 31.436 46.7224L32.8485 46.3804L31.9454 47.5191L29.9441 50.0424L33.8938 48.7191L34.6385 48.4696L34.5494 49.25L33.8814 55.0966C33.8814 55.0967 33.8814 55.0969 33.8814 55.097C33.8697 55.2022 33.9025 55.3035 33.9709 55.38L45.2533 31.4094ZM45.2533 31.4094C45.49 31.3445 45.7452 31.4348 45.8896 31.6378M45.2533 31.4094L45.8896 31.6378M29.916 50.0676L29.9209 50.0715L29.9224 50.0697L29.9225 50.0695L29.9181 50.0661L29.916 50.0676ZM29.916 50.0676L29.914 50.066L29.9139 50.0661M29.916 50.0676L29.9147 50.0685M29.9147 50.0685L29.9139 50.0661M29.9147 50.0685L29.9135 50.0693L30.0673 50.5284L29.9147 50.0685ZM29.9139 50.0661L29.9139 50.0659L29.9118 50.0643M29.9139 50.0661L29.9127 50.067L29.9118 50.0643M29.9118 50.0643L29.9104 50.0601L29.9118 50.0643ZM36.1191 55.1028C36.1312 55.2 36.1 55.3022 36.0311 55.3796C35.9597 55.4585 35.8598 55.5028 35.7546 55.5028H34.2452C34.1407 55.5028 34.0412 55.4584 33.971 55.3801L36.1191 55.1028ZM45.8896 31.6378C46.0323 31.8401 46.0342 32.111 45.8945 32.3149L45.8896 31.6378ZM40.0789 50.0697L40.0854 50.0646L40.0783 50.069L40.0789 50.0697Z" fill="#C62325" stroke="white"/>
</g>
<defs>
<clipPath id="clip0">
<rect width="42" height="42" fill="white" transform="translate(14 14)"/>
</clipPath>
</defs>
</svg>
