<?xml version="1.0" encoding="UTF-8" standalone="no"?>
<svg
   width="176"
   height="77"
   viewBox="0 0 176 77"
   fill="none"
   version="1.1"
   id="svg16"
   sodipodi:docname="logo_news.svg"
   inkscape:version="1.1.2 (b8e25be833, 2022-02-05)"
   xmlns:inkscape="http://www.inkscape.org/namespaces/inkscape"
   xmlns:sodipodi="http://sodipodi.sourceforge.net/DTD/sodipodi-0.dtd"
   xmlns="http://www.w3.org/2000/svg"
   xmlns:svg="http://www.w3.org/2000/svg">
  <defs
     id="defs20" />
  <sodipodi:namedview
     id="namedview18"
     pagecolor="#ffffff"
     bordercolor="#666666"
     borderopacity="1.0"
     inkscape:pageshadow="2"
     inkscape:pageopacity="0.0"
     inkscape:pagecheckerboard="0"
     showgrid="false"
     inkscape:zoom="6.1704545"
     inkscape:cx="87.918969"
     inkscape:cy="38.570902"
     inkscape:window-width="1920"
     inkscape:window-height="1017"
     inkscape:window-x="-8"
     inkscape:window-y="-8"
     inkscape:window-maximized="1"
     inkscape:current-layer="svg16" />
  <path
     fill-rule="evenodd"
     clip-rule="evenodd"
     d="M76.1687 46.6651L73.5653 39.3957L71.0482 46.6651H76.1687ZM70.8413 47.2852L69.9275 50.3686C69.7571 50.9281 69.6586 51.5069 69.6344 52.0912C69.6138 52.2651 69.6342 52.4414 69.6941 52.6059C69.754 52.7705 69.8516 52.9187 69.9792 53.0387C70.2297 53.2361 70.5264 53.3665 70.8413 53.4176C71.2033 53.4176 71.5482 53.521 71.8757 53.5554H72.8585V54.0205H64.4622V53.5554L66.1862 53.4349C66.714 53.4051 67.2249 53.2389 67.669 52.9525C67.9952 52.7102 68.2559 52.3905 68.4276 52.0223C68.6 51.6434 68.7896 51.1955 68.9965 50.6787C69.2034 50.1792 69.3758 49.7141 69.5137 49.3006L75.1515 32.3848H78.41L84.6512 49.3006L85.5823 51.6089C85.7748 52.0966 86.0619 52.5416 86.4271 52.9181C86.7551 53.2176 87.1737 53.3994 87.6167 53.4349L88.8235 53.5554V54.0205H74.8067V53.5554H75.4446C75.7865 53.5335 76.1264 53.4875 76.4618 53.4176C76.8352 53.3861 77.1985 53.2807 77.5308 53.1076C77.7549 52.987 77.8583 52.7114 77.8583 52.298C77.821 51.6798 77.6932 51.0704 77.479 50.4892L76.4101 47.3541L70.8413 47.2852ZM89.5132 47.9053H89.9097C90.2628 49.1178 90.779 50.2768 91.4442 51.3505C91.8896 52.0408 92.4774 52.628 93.1682 53.0731C93.835 53.4679 94.6004 53.665 95.3751 53.6416C95.8316 53.6479 96.2784 53.5091 96.6509 53.2454C96.8173 53.1268 96.9548 52.9723 97.0533 52.7934C97.1518 52.6145 97.2087 52.4157 97.2199 52.2118C97.2553 51.7227 97.1078 51.2378 96.8061 50.851C96.4129 50.4789 95.9723 50.1604 95.4958 49.9035C94.9096 49.559 94.2199 49.1628 93.4441 48.7494C92.7629 48.3788 92.1063 47.9645 91.4786 47.5091C90.9948 47.128 90.5856 46.6608 90.2718 46.1311C89.9799 45.6044 89.8313 45.0104 89.8408 44.4085C89.8111 43.7351 89.9539 43.0653 90.2556 42.4624C90.5572 41.8596 91.0079 41.3436 91.5648 40.9633C92.7542 40.146 94.1737 39.7296 95.6165 39.7747C96.3494 39.7701 97.076 39.9106 97.7543 40.1881L99.737 41.1528C99.8901 41.1448 100.038 41.0936 100.163 41.0052C100.288 40.9168 100.385 40.7947 100.444 40.6532C100.651 40.2987 100.753 39.8922 100.737 39.4819H101.151V45.3214H100.668C100.513 44.8391 100.306 44.3223 100.082 43.7539C99.8136 43.1407 99.4721 42.5623 99.0646 42.0313C98.6787 41.5016 98.1997 41.0463 97.6509 40.6877C97.0768 40.3533 96.4182 40.1918 95.7544 40.2226C95.2738 40.1957 94.7987 40.3356 94.4096 40.6188C94.25 40.728 94.1194 40.8746 94.0293 41.0457C93.9391 41.2168 93.8921 41.4073 93.8924 41.6006C93.8674 41.9904 93.9975 42.3742 94.2544 42.6686C94.5819 42.982 94.9467 43.2539 95.3406 43.4783C95.8233 43.7711 96.4613 44.1329 97.2888 44.5807C98.1164 45.0286 98.8405 45.4593 99.4784 45.8899C100.161 46.3017 100.749 46.8536 101.202 47.5091C101.778 48.4085 101.985 49.494 101.783 50.5419C101.581 51.5899 100.985 52.5205 100.116 53.142C98.8653 53.9333 97.407 54.3351 95.9268 54.2962C95.0716 54.2881 94.2269 54.1064 93.4441 53.7622C92.651 53.366 91.8752 52.9525 91.1166 52.5391C90.858 52.5391 90.6338 52.7458 90.4269 53.1592C90.2342 53.5846 90.1119 54.0383 90.0649 54.5029H89.6511V47.9053H89.5132ZM104.496 41.1355H102.478V40.3431C103.227 40.1218 103.937 39.7847 104.582 39.344C105.333 38.8407 106.032 38.2637 106.668 37.6214C107.306 37.0569 107.884 36.4276 108.392 35.7438C108.791 35.2041 109.138 34.6272 109.426 34.0212H110.254V39.9125H114.116L113.702 41.0322H110.254V49.0767V50.5754C110.202 51.2662 110.404 51.9523 110.823 52.5047C111.024 52.7343 111.277 52.9127 111.56 53.0249C111.844 53.137 112.151 53.1797 112.455 53.1494C112.758 53.119 113.05 53.0165 113.306 52.8504C113.562 52.6843 113.775 52.4595 113.926 52.1946C114.28 51.5384 114.464 50.804 114.461 50.0586H114.875C114.889 51.1126 114.542 52.1399 113.892 52.9698C113.325 53.4675 112.657 53.8375 111.934 54.0544C111.211 54.2714 110.45 54.3304 109.702 54.2272C108.415 54.2465 107.152 53.874 106.082 53.1592C105.584 52.8366 105.179 52.3912 104.904 51.8662C104.629 51.3412 104.494 50.7542 104.513 50.1619V41.0322L104.496 41.1355ZM130.15 52.5563C130.633 52.5563 130.96 52.2635 131.15 51.6778C131.341 50.9998 131.434 50.2979 131.426 49.5935H131.84C131.921 50.2007 131.881 50.8181 131.721 51.4096C131.561 52.0011 131.285 52.5549 130.909 53.0387C130.413 53.504 129.826 53.8618 129.184 54.0894C128.567 54.2572 127.928 54.3327 127.288 54.3134C126.487 54.3241 125.7 54.0962 125.029 53.6588C124.719 53.4722 124.451 53.2225 124.243 52.9257C124.035 52.6289 123.892 52.2918 123.823 51.9362C123.537 52.7149 122.971 53.3596 122.236 53.7449C121.345 54.1938 120.354 54.4073 119.357 54.3651C118.236 54.4124 117.137 54.0443 116.271 53.3315C115.892 52.9653 115.595 52.5221 115.402 52.0318C115.209 51.5415 115.123 51.0155 115.15 50.4892C115.107 49.634 115.37 48.7911 115.892 48.112C116.264 47.5966 116.788 47.2109 117.392 47.0096C118.175 46.8297 118.97 46.7088 119.771 46.6478C120.56 46.5914 121.344 46.4762 122.116 46.3033C122.499 46.2279 122.866 46.0881 123.202 45.8899C123.316 45.8011 123.405 45.6851 123.462 45.5527C123.52 45.4203 123.543 45.2756 123.529 45.132V42.4447C123.576 41.8551 123.475 41.2634 123.236 40.7221C123.09 40.5391 122.899 40.397 122.681 40.3095C122.464 40.222 122.227 40.192 121.995 40.2226C121.644 40.2108 121.297 40.3005 120.995 40.481C120.877 40.5544 120.78 40.6557 120.711 40.7759C120.641 40.8961 120.603 41.0314 120.598 41.17C120.598 41.3767 120.823 41.6523 121.236 41.9796C121.453 42.1541 121.624 42.3784 121.735 42.6334C121.847 42.8884 121.894 43.1664 121.874 43.4438C121.867 43.7568 121.791 44.0643 121.651 44.3443C121.511 44.6242 121.31 44.8697 121.064 45.0631C120.293 45.6118 119.352 45.8683 118.409 45.7865C117.79 45.7892 117.187 45.5962 116.685 45.2353C116.446 45.0741 116.251 44.8556 116.119 44.5998C115.986 44.344 115.92 44.0591 115.926 43.7711C115.943 43.1451 116.139 42.5369 116.49 42.0182C116.842 41.4995 117.334 41.0917 117.909 40.8427C119.432 40.0798 121.119 39.7012 122.823 39.7402C124.346 39.7296 125.85 40.0716 127.219 40.7393C127.828 40.9846 128.347 41.4095 128.707 41.9574C129.068 42.5053 129.252 43.1501 129.236 43.8056V50.5754C129.225 51.0634 129.283 51.5506 129.409 52.0223C129.449 52.1846 129.546 52.3274 129.681 52.4251C129.817 52.5229 129.983 52.5694 130.15 52.5563ZM123.529 51.695V46.0449H123.426C123.163 46.3508 122.824 46.5824 122.443 46.7167C122.076 46.8559 121.738 47.0602 121.443 47.3197C121.197 47.6531 121.043 48.045 120.995 48.4566C120.892 49.0249 120.84 49.6015 120.84 50.1792C120.822 50.8912 120.892 51.6027 121.047 52.298C121.077 52.5262 121.19 52.7353 121.365 52.8849C121.54 53.0344 121.765 53.1138 121.995 53.1076C122.181 53.1038 122.364 53.0621 122.533 52.9851C122.702 52.9081 122.853 52.7974 122.978 52.6597C123.237 52.3944 123.427 52.0689 123.529 51.7123V51.695ZM131.702 54.0205H141.581V53.5554H140.684C140.15 53.5554 139.805 53.366 139.667 53.1592C139.495 52.8124 139.424 52.4247 139.46 52.0396V50.5581V43.6678C139.487 43.0521 139.684 42.456 140.029 41.9452C140.153 41.6881 140.342 41.4683 140.579 41.308C140.815 41.1477 141.089 41.0525 141.374 41.0322C141.436 41.0382 141.496 41.0605 141.548 41.0967C141.599 41.133 141.64 41.182 141.667 41.2389C141.477 41.6351 141.27 42.0141 141.081 42.393C140.903 42.8245 140.815 43.2874 140.822 43.7539C140.833 44.0809 140.911 44.4023 141.05 44.6984C141.189 44.9946 141.387 45.2593 141.632 45.4765C141.887 45.7274 142.188 45.9251 142.52 46.0582C142.851 46.1913 143.206 46.2571 143.563 46.2516C143.986 46.2645 144.407 46.1918 144.801 46.0379C145.196 45.8839 145.554 45.6519 145.856 45.3559C146.16 45.0647 146.399 44.7138 146.559 44.3253C146.72 43.9369 146.797 43.5194 146.787 43.0993C146.793 42.6597 146.709 42.2236 146.54 41.8178C146.371 41.4119 146.121 41.0449 145.805 40.7393C145.49 40.421 145.113 40.1699 144.699 40.0011C144.284 39.8323 143.839 39.7494 143.391 39.7575C141.77 39.7575 140.736 40.102 140.288 40.8082C139.947 41.3176 139.647 41.8533 139.391 42.4103V40.0159H131.702V40.481H132.46C133.098 40.481 133.443 40.6877 133.529 40.9288C133.632 41.2701 133.69 41.6233 133.702 41.9796V43.2026V50.2653V51.6261C133.743 52.1038 133.684 52.5849 133.529 53.0387C133.403 53.2683 133.058 53.4062 132.495 53.4521H131.702V53.9172V54.0205ZM148.615 41.1355H146.615V40.3431C147.363 40.1185 148.072 39.7816 148.718 39.344C150.132 38.3669 151.373 37.1619 152.391 35.7783C152.785 35.2383 153.125 34.6614 153.408 34.0557H154.235V39.947H158.115L157.701 41.0666H154.253V49.1111V50.6098C154.204 51.2978 154.399 51.981 154.804 52.5391C154.978 52.7488 155.197 52.9166 155.445 53.0299C155.693 53.1432 155.963 53.1992 156.235 53.1937C156.587 53.2289 156.941 53.1552 157.25 52.9826C157.558 52.8101 157.806 52.547 157.96 52.229C158.321 51.5759 158.506 50.8395 158.494 50.093H158.908C158.922 51.1471 158.576 52.1744 157.925 53.0042C157.361 53.5069 156.694 53.88 155.97 54.0973C155.246 54.3145 154.483 54.3707 153.735 54.2617C152.448 54.281 151.185 53.9085 150.115 53.1937C149.617 52.8711 149.212 52.4257 148.937 51.9007C148.662 51.3756 148.527 50.7886 148.546 50.1964V41.0666L148.615 41.1355ZM174.287 52.5563C174.746 52.5563 175.074 52.2635 175.269 51.6778C175.469 51.0016 175.562 50.2984 175.545 49.5935H175.959C176.04 50.2007 176 50.8181 175.84 51.4096C175.68 52.0011 175.404 52.5549 175.028 53.0387C174.535 53.5077 173.947 53.866 173.304 54.0894C172.686 54.2582 172.047 54.3337 171.407 54.3134C170.606 54.3241 169.82 54.0962 169.149 53.6588C168.843 53.4688 168.579 53.2178 168.374 52.9214C168.17 52.625 168.028 52.2896 167.959 51.9362C167.665 52.7099 167.102 53.3519 166.373 53.7449C165.476 54.1938 164.479 54.4072 163.477 54.3651C162.361 54.413 161.267 54.0446 160.408 53.3315C160.026 52.9674 159.728 52.5245 159.534 52.0337C159.34 51.5429 159.256 51.0159 159.287 50.4892C159.252 49.6351 159.514 48.7952 160.028 48.112C160.407 47.5953 160.937 47.2098 161.546 47.0096C162.323 46.8294 163.112 46.7084 163.908 46.6478C164.702 46.5911 165.492 46.476 166.27 46.3033C166.649 46.233 167.011 46.0928 167.339 45.8899C167.455 45.8033 167.546 45.6877 167.604 45.5547C167.661 45.4217 167.683 45.2759 167.666 45.132V42.4447C167.718 41.8549 167.617 41.2616 167.373 40.7221C167.229 40.5365 167.038 40.3924 166.82 40.3046C166.602 40.2169 166.364 40.1885 166.132 40.2226C165.786 40.2081 165.443 40.2981 165.149 40.481C165.028 40.5507 164.928 40.6512 164.858 40.7722C164.788 40.8932 164.752 41.0304 164.752 41.17C164.752 41.3767 164.959 41.6523 165.39 41.9796C165.604 42.1559 165.772 42.381 165.88 42.6359C165.988 42.8908 166.033 43.1679 166.011 43.4438C166.008 43.7575 165.933 44.0662 165.793 44.3468C165.652 44.6273 165.45 44.8723 165.201 45.0631C164.431 45.6146 163.489 45.8713 162.546 45.7865C161.927 45.7892 161.324 45.5962 160.822 45.2353C160.583 45.0741 160.388 44.8556 160.256 44.5998C160.123 44.344 160.057 44.0591 160.063 43.7711C160.085 43.1348 160.293 42.5189 160.66 41.9988C161.028 41.4786 161.539 41.0769 162.132 40.8427C163.649 40.0792 165.33 39.7005 167.028 39.7402C168.557 39.7294 170.067 40.0713 171.442 40.7393C172.051 40.9846 172.57 41.4095 172.93 41.9574C173.291 42.5053 173.475 43.1501 173.459 43.8056V50.5754C173.439 51.0638 173.497 51.5522 173.632 52.0223C173.672 52.1846 173.768 52.3274 173.904 52.4251C174.04 52.5229 174.206 52.5694 174.373 52.5563H174.287ZM167.649 51.695V46.0449H167.563C167.293 46.3509 166.948 46.5822 166.563 46.7167C166.198 46.8594 165.859 47.0633 165.563 47.3197C165.324 47.6553 165.175 48.0469 165.132 48.4566C165.014 49.0232 164.956 49.6005 164.959 50.1792C164.942 50.8912 165.011 51.6027 165.166 52.298C165.196 52.5262 165.309 52.7353 165.485 52.8849C165.66 53.0344 165.884 53.1138 166.114 53.1076C166.301 53.107 166.485 53.0667 166.654 52.9895C166.824 52.9123 166.975 52.7998 167.097 52.6597C167.353 52.3904 167.532 52.0572 167.614 51.695H167.649Z"
     fill="#8F1416"
     id="path2" />
  <path
     fill-rule="evenodd"
     clip-rule="evenodd"
     d="M113.788 72.9692C113.453 72.9877 113.132 73.1147 112.875 73.331C112.684 73.5565 112.585 73.8456 112.599 74.1406C112.599 74.7263 113.03 75.1742 113.909 75.4842C114.87 75.8034 115.879 75.9549 116.892 75.9321C118.059 75.9727 119.225 75.8154 120.34 75.467C121.202 75.1569 121.616 74.6746 121.616 73.9856C121.63 73.8055 121.581 73.6261 121.477 73.4783C121.374 73.3305 121.221 73.2235 121.047 73.1759C120.488 73.0078 119.905 72.9378 119.323 72.9692H113.788ZM117.616 64.2701V62.6509C117.633 62.2108 117.563 61.7716 117.409 61.3589C117.341 61.2125 117.233 61.0884 117.097 61.0014C116.961 60.9144 116.803 60.8682 116.642 60.8682C116.48 60.8682 116.322 60.9144 116.186 61.0014C116.05 61.0884 115.942 61.2125 115.875 61.3589C115.709 61.7687 115.632 62.2092 115.65 62.6509V64.2701V65.8894C115.637 66.3268 115.719 66.7619 115.892 67.1641C115.95 67.3165 116.054 67.4467 116.19 67.5364C116.326 67.6261 116.487 67.6706 116.65 67.6636C116.809 67.6708 116.966 67.6282 117.099 67.5416C117.232 67.4551 117.334 67.3291 117.392 67.1813C117.559 66.772 117.636 66.3312 117.616 65.8894V64.2701ZM119.857 61.7207C120.022 61.362 120.285 61.0574 120.616 60.8422C120.988 60.6135 121.42 60.4997 121.857 60.5149C122.29 60.4598 122.727 60.5706 123.081 60.8249C123.237 60.9576 123.361 61.1247 123.442 61.313C123.522 61.5012 123.558 61.7057 123.547 61.9102C123.55 62.0721 123.522 62.2332 123.463 62.384C123.403 62.5348 123.315 62.6724 123.202 62.7887C123.08 62.9093 122.934 63.0036 122.774 63.0658C122.614 63.128 122.443 63.1568 122.271 63.1504C121.947 63.1597 121.63 63.0561 121.374 62.8576C121.249 62.749 121.15 62.6137 121.084 62.4616C121.019 62.3095 120.988 62.1446 120.995 61.9791C121.003 61.7675 121.076 61.5633 121.202 61.3934C121.316 61.2808 121.394 61.1369 121.426 60.98C121.426 60.98 121.426 60.98 121.236 60.98C121.007 60.9914 120.785 61.0692 120.599 61.2039C120.349 61.3844 120.153 61.6282 120.03 61.9102C120.307 62.2139 120.518 62.5717 120.65 62.961C120.794 63.3826 120.87 63.8246 120.874 64.2701C120.89 64.7937 120.781 65.3134 120.556 65.7866C120.331 66.2598 119.997 66.6729 119.581 66.9918C118.728 67.6793 117.66 68.0451 116.564 68.0254C115.838 68.0054 115.123 67.8415 114.461 67.5431C114.153 67.5081 113.842 67.5619 113.564 67.6981C113.438 67.7481 113.33 67.8364 113.255 67.9507C113.181 68.0649 113.145 68.1994 113.151 68.3355C113.149 68.4377 113.18 68.5378 113.238 68.6214C113.297 68.705 113.381 68.7677 113.478 68.8005C113.694 68.9201 113.938 68.9796 114.185 68.9728H118.926C119.455 68.946 119.983 69.0251 120.481 69.2056C120.978 69.3861 121.434 69.6642 121.823 70.0236C122.177 70.3561 122.457 70.7598 122.644 71.2081C122.831 71.6564 122.922 72.1391 122.909 72.6247C122.928 73.2276 122.763 73.8221 122.437 74.3296C122.111 74.8371 121.638 75.2337 121.081 75.467C119.743 76.1063 118.271 76.4192 116.788 76.38C115.592 76.4047 114.4 76.2419 113.254 75.8976C112.237 75.5703 111.72 75.0019 111.72 74.175C111.713 73.9935 111.752 73.8131 111.833 73.6506C111.915 73.4881 112.036 73.3486 112.185 73.2448C112.526 73.0064 112.914 72.8421 113.323 72.7625C112.79 72.4819 112.321 72.095 111.944 71.6256C111.598 71.1912 111.42 70.647 111.444 70.0925C111.428 69.3906 111.688 68.7105 112.168 68.1976C112.621 67.7024 113.229 67.3747 113.892 67.2674C113.411 66.9405 113.015 66.5034 112.737 65.9927C112.321 65.2634 112.176 64.411 112.327 63.5855C112.479 62.7599 112.917 62.0142 113.564 61.4795C114.432 60.7818 115.52 60.4154 116.633 60.446C117.232 60.4198 117.83 60.5129 118.392 60.7199C118.955 60.9269 119.47 61.2437 119.909 61.6518L119.857 61.7207ZM123.305 71.2466H130.702V70.816H130.047C129.762 70.8276 129.484 70.7288 129.271 70.5404C129.144 70.2781 129.09 69.9865 129.116 69.6963V63.4088C129.134 62.9461 129.283 62.4981 129.547 62.1169C129.638 61.9261 129.779 61.7632 129.955 61.6451C130.131 61.527 130.335 61.458 130.547 61.4451C130.594 61.4508 130.639 61.468 130.678 61.495C130.717 61.522 130.749 61.5581 130.771 61.6001L130.322 62.4614C130.197 62.7855 130.133 63.1302 130.133 63.4777C130.137 63.7309 130.192 63.9807 130.296 64.2118C130.4 64.4428 130.549 64.6502 130.736 64.8214C130.927 65.0103 131.153 65.1594 131.401 65.26C131.65 65.3606 131.916 65.4105 132.184 65.407C132.502 65.4158 132.818 65.3609 133.115 65.2455C133.411 65.1301 133.681 64.9566 133.909 64.7352C134.141 64.5142 134.325 64.2464 134.447 63.9495C134.568 63.6526 134.626 63.3333 134.615 63.0126C134.606 62.344 134.333 61.7062 133.855 61.2382C133.377 60.7703 132.733 60.5103 132.064 60.5149C130.84 60.5149 130.064 60.7733 129.736 61.3073C129.474 61.6869 129.249 62.0907 129.064 62.5131V60.6527H123.323V61.0144H123.892C124.357 61.0144 124.633 61.1695 124.685 61.3417C124.763 61.5993 124.809 61.8654 124.823 62.1341V69.4379C124.857 69.7997 124.81 70.1647 124.685 70.5059C124.604 70.6667 124.346 70.7701 123.909 70.816H123.323V71.1605L123.305 71.2466ZM146.719 65.9927C146.738 66.7313 146.594 67.4652 146.296 68.1413C145.998 68.8175 145.553 69.4192 144.994 69.903C143.837 70.9317 142.337 71.4909 140.788 71.4706C139.22 71.5126 137.695 70.9515 136.529 69.903C135.984 69.4058 135.548 68.8006 135.25 68.1258C134.952 67.451 134.799 66.7216 134.799 65.9841C134.799 65.2466 134.952 64.5172 135.25 63.8424C135.548 63.1677 135.984 62.5624 136.529 62.0652C137.693 61.0271 139.211 60.4726 140.77 60.5149C142.329 60.4829 143.842 61.0361 145.012 62.0652C145.572 62.5517 146.017 63.1563 146.315 63.8354C146.613 64.5146 146.757 65.2514 146.736 65.9927H146.719ZM142.305 65.9927C142.305 65.786 142.305 65.3726 142.305 64.7525C142.305 64.1323 142.305 63.7706 142.305 63.65C142.331 62.9694 142.202 62.2918 141.926 61.669C141.84 61.4378 141.684 61.2391 141.48 61.1002C141.276 60.9613 141.034 60.8892 140.788 60.8938C140.546 60.9047 140.314 60.9876 140.12 61.132C139.926 61.2763 139.781 61.4754 139.701 61.7035C139.432 62.3162 139.303 62.9811 139.322 63.65C139.322 63.9256 139.322 64.2701 139.322 64.6835C139.322 65.097 139.322 65.5276 139.322 65.9927C139.322 66.4578 139.322 66.6301 139.322 67.2674C139.322 67.9048 139.322 68.2838 139.322 68.3871C139.298 69.0659 139.421 69.7418 139.684 70.3681C139.771 70.5951 139.925 70.7906 140.125 70.9289C140.325 71.0672 140.562 71.1419 140.805 71.1433C141.05 71.1383 141.287 71.0601 141.487 70.9188C141.687 70.7776 141.839 70.5798 141.926 70.3509C142.19 69.7306 142.319 69.0612 142.305 68.3871C142.305 68.0943 142.305 67.7498 142.305 67.3363C142.305 66.9229 142.305 66.4923 142.305 65.9927V65.9927ZM161.528 71.1605H155.701V69.7308C155.399 70.2379 154.971 70.6591 154.46 70.9538C153.817 71.2673 153.106 71.4154 152.391 71.3844C151.411 71.3937 150.457 71.072 149.684 70.4715C149.299 70.1896 148.989 69.8176 148.782 69.3881C148.574 68.9586 148.476 68.4847 148.494 68.0082V62.1858C148.52 61.8971 148.453 61.6078 148.305 61.3589C148.081 61.1636 147.792 61.0591 147.494 61.0661H146.874V60.6527H152.77V67.9048V68.8178C152.737 69.292 152.845 69.7655 153.08 70.1786C153.189 70.3317 153.334 70.4548 153.503 70.5362C153.672 70.6176 153.859 70.6546 154.046 70.6437C154.237 70.6584 154.429 70.6304 154.608 70.5619C154.787 70.4934 154.948 70.386 155.08 70.2475C155.277 69.988 155.45 69.7112 155.598 69.4207V63.4261V62.4097C155.634 62.0565 155.542 61.7019 155.339 61.4106C155.066 61.1898 154.725 61.0683 154.373 61.0661H153.684V60.6527H159.908V69.6446C159.875 69.9338 159.942 70.2256 160.097 70.4715C160.32 70.6699 160.61 70.7748 160.908 70.7643H161.528V71.1605V71.1605ZM167.408 69.6274C167.426 69.7955 167.48 69.9578 167.566 70.1034C167.653 70.2489 167.769 70.3744 167.908 70.4715C168.177 70.6549 168.496 70.7511 168.821 70.7471C169.04 70.7546 169.255 70.6961 169.44 70.5793C169.624 70.4625 169.769 70.2929 169.856 70.0925C170.089 69.6354 170.235 69.1389 170.287 68.6283C170.287 68.0943 170.39 67.6292 170.408 67.2158C170.425 66.8023 170.408 66.3372 170.408 65.8549V64.4079C170.408 63.9773 170.321 63.5294 170.27 63.0643C170.21 62.5937 170.064 62.1381 169.839 61.7207C169.739 61.519 169.584 61.35 169.392 61.234C169.199 61.1179 168.977 61.0596 168.752 61.0661C168.427 61.0762 168.118 61.212 167.89 61.4451C167.627 61.6998 167.452 62.0316 167.39 62.3925C167.39 62.7543 167.39 63.2194 167.39 63.7878C167.39 64.3563 167.39 64.9247 167.39 65.5104V67.9565C167.36 68.5303 167.36 69.1053 167.39 69.6791L167.408 69.6274ZM161.27 76.3283H169.632V75.9665H168.563C168.231 75.9421 167.914 75.8225 167.649 75.622C167.447 75.3223 167.344 74.9668 167.356 74.6057V73.5894V70.1442C167.543 70.4881 167.801 70.7877 168.114 71.0227C168.737 71.3755 169.454 71.526 170.166 71.4533C170.816 71.4703 171.461 71.3449 172.057 71.086C172.652 70.8271 173.184 70.4409 173.614 69.9547C174.537 68.853 175.011 67.4448 174.942 66.01C175.023 64.5473 174.549 63.108 173.614 61.9791C173.183 61.4951 172.651 61.1115 172.055 60.8555C171.459 60.5996 170.814 60.4774 170.166 60.4976C169.445 60.4149 168.717 60.592 168.114 60.9972C167.797 61.2909 167.529 61.6341 167.321 62.0135V60.6527H161.356V61.0144H162.063C162.363 61.0063 162.656 61.1039 162.89 61.29C163.049 61.5413 163.116 61.8393 163.08 62.1341V63.0471V73.7961V74.709C163.115 75.0071 163.054 75.3084 162.908 75.5703C162.669 75.7492 162.379 75.846 162.08 75.846H161.304L161.27 76.3283Z"
     fill="#8F1416"
     id="path4" />
  <path
     fill-rule="evenodd"
     clip-rule="evenodd"
     d="M46.1009 6.18202e-05C56.5754 -0.0171128 66.7408 3.54471 74.9104 10.0945C66.9041 4.90621 57.3095 2.73786 47.8478 3.97838C38.3861 5.21889 29.6763 9.78709 23.2808 16.8636C16.8852 23.94 13.2225 33.0617 12.9495 42.5924C12.6765 52.123 15.8112 61.4391 21.7912 68.8694L11.9467 77C5.95157 70.3929 2.00506 62.189 0.586207 53.3842C-0.832643 44.5795 0.337191 35.5525 3.95369 27.3992C7.5702 19.2459 13.4778 12.3168 20.9595 7.45311C28.4411 2.58943 37.175 0.000313504 46.1009 6.18202e-05Z"
     fill="#8F1416"
     id="path6" />
  <path
     fill-rule="evenodd"
     clip-rule="evenodd"
     d="M23.5664 57.3796L32.6351 57.0523C33.2903 57.0523 33.0834 56.3116 33.7385 56.2944C41.4452 56.0188 50.0312 56.4494 57.7378 56.1738C56.9338 58.3935 55.48 60.3201 53.5656 61.7034H24.8077C23.9646 60.4213 23.5317 58.9133 23.5664 57.3796V57.3796Z"
     fill="#8F1416"
     id="path8" />
  <path
     fill-rule="evenodd"
     clip-rule="evenodd"
     d="M42.6532 22.342C45.6703 33.8834 46.5496 40.9805 42.1704 54.434C47.7565 54.434 51.5667 54.434 55.7907 55.7948C51.5667 45.0803 46.8772 33.0566 42.6532 22.342Z"
     fill="#8F1416"
     id="path10" />
  <path
     fill-rule="evenodd"
     clip-rule="evenodd"
     d="M41.6006 13.4019V54.4857H24.6011L41.6006 13.4019Z"
     fill="#8F1416"
     id="path12" />
</svg>
