<svg width="19" height="20" viewBox="0 0 19 20" fill="none" xmlns="http://www.w3.org/2000/svg">
<path d="M8.82125 20.0003H10.1784C10.9248 20.0003 11.5355 19.4003 11.5355 18.667H7.46411C7.46411 19.4003 8.07483 20.0003 8.82125 20.0003Z" fill="#8F1416"/>
<path d="M9.49986 2.66667C9.907 2.66667 10.1784 2.4 10.1784 2V0.666667C10.1784 0.266667 9.907 0 9.49986 0C9.09272 0 8.82129 0.266667 8.82129 0.666667V2C8.82129 2.4 9.09272 2.66667 9.49986 2.66667Z" fill="#8F1416"/>
<path d="M2.03571 8.66699H0.678571C0.271429 8.66699 0 8.93366 0 9.33366C0 9.73366 0.271429 10.0003 0.678571 10.0003H2.03571C2.44286 10.0003 2.71429 9.73366 2.71429 9.33366C2.71429 8.93366 2.44286 8.66699 2.03571 8.66699Z" fill="#8F1416"/>
<path d="M18.3214 8.66699H16.9642C16.5571 8.66699 16.2856 8.93366 16.2856 9.33366C16.2856 9.73366 16.5571 10.0003 16.9642 10.0003H18.3214C18.7285 10.0003 18.9999 9.73366 18.9999 9.33366C18.9999 8.93366 18.7285 8.66699 18.3214 8.66699Z" fill="#8F1416"/>
<path d="M16.6927 2.9334C16.4213 2.66673 16.0141 2.66673 15.7427 2.9334L14.7927 3.86673C14.5213 4.1334 14.5213 4.5334 14.7927 4.80007C14.9284 4.9334 15.132 5.00007 15.2677 5.00007C15.4034 5.00007 15.607 4.9334 15.7427 4.80007L16.6927 3.86673C16.9641 3.60007 16.9641 3.20007 16.6927 2.9334Z" fill="#8F1416"/>
<path d="M4.20709 4.80007C4.47852 4.5334 4.47852 4.1334 4.20709 3.86673L3.25709 2.9334C2.98566 2.66673 2.57852 2.66673 2.30709 2.9334C2.03566 3.20007 2.03566 3.60007 2.30709 3.86673L3.25709 4.80007C3.3928 4.9334 3.59637 5.00007 3.73209 5.00007C3.8678 5.00007 4.07137 4.9334 4.20709 4.80007Z" fill="#8F1416"/>
<path d="M9.49996 3.33301C6.10711 3.33301 3.39282 5.99967 3.39282 9.33301C3.39282 11.3997 4.47854 13.2663 6.10711 14.333V15.333C6.10711 15.733 6.37854 15.9997 6.78568 15.9997H12.2143C12.6214 15.9997 12.8928 15.733 12.8928 15.333V14.333C14.5214 13.2663 15.6071 11.3997 15.6071 9.33301C15.6071 5.99967 12.8928 3.33301 9.49996 3.33301ZM12.1464 13.1997L11.5357 13.5997V14.333V14.6663H7.46425V14.333V13.5997L6.85354 13.1997C5.56425 12.333 4.74997 10.8663 4.74997 9.33301C4.74997 6.73301 6.85354 4.66634 9.49996 4.66634C12.1464 4.66634 14.25 6.73301 14.25 9.33301C14.25 10.8663 13.4357 12.333 12.1464 13.1997Z" fill="#8F1416"/>
<path d="M12.2143 16.667H6.78575C6.37861 16.667 6.10718 16.9337 6.10718 17.3337C6.10718 17.7337 6.37861 18.0003 6.78575 18.0003H12.2143C12.6215 18.0003 12.8929 17.7337 12.8929 17.3337C12.8929 16.9337 12.6215 16.667 12.2143 16.667Z" fill="#8F1416"/>
<path d="M9.49996 6.93359L8.68567 8.53359L6.92139 8.80026L8.21067 10.0003L7.93924 11.7336L9.49996 10.9336L11.0607 11.7336L10.7892 10.0003L12.0785 8.80026L10.3142 8.53359L9.49996 6.93359Z" fill="#8F1416"/>
</svg>
