<svg width="13" height="23" viewBox="0 0 13 23" fill="none" xmlns="http://www.w3.org/2000/svg">
<path d="M4.04 22.9024C7.25017 23.5253 10.0291 21.0817 10.0291 17.9674C10.0291 16.3384 9.21461 14.853 7.96887 13.9427V2.97061C7.96887 1.34157 6.67522 0 4.99826 0C3.36922 0 2.02765 1.34157 2.02765 2.97061V13.9427C0.542348 15.0447 -0.320087 16.9133 0.11113 19.0215C0.494435 20.938 2.07557 22.5191 4.04 22.9024ZM2.65052 14.853L3.08174 14.5177V3.01852C3.08174 1.96444 3.94417 1.14991 4.95035 1.14991C6.00443 1.14991 6.86687 2.01235 6.86687 3.01852V14.5177L7.29809 14.853C8.30426 15.5717 8.87922 16.7696 8.87922 18.0153C8.87922 19.0694 8.448 20.0756 7.7293 20.7943C6.9627 21.513 6.00443 21.9442 4.95035 21.9442C2.98591 21.9442 1.4527 20.5547 1.1173 18.8298C0.877739 17.2487 1.4527 15.7155 2.65052 14.853Z" fill="#8F1416"/>
<path d="M4.99837 20.7941C5.76498 20.7941 6.48368 20.5067 7.01072 19.9796C7.53776 19.4526 7.82524 18.7339 7.82524 17.9673C7.82524 16.0507 6.1962 15.4279 5.76498 15.0446V6.94727H4.18385V15.0446C3.84846 15.4279 1.74029 16.1945 2.21942 18.5422C2.45898 19.788 3.56098 20.7941 4.99837 20.7941Z" fill="#8F1416"/>
<path d="M11.9456 3.25781H9.2146V4.35981H11.9456C12.2331 4.35981 12.4727 4.12025 12.4727 3.83277C12.5206 3.49738 12.281 3.25781 11.9456 3.25781Z" fill="#8F1416"/>
<path d="M11.4185 6.70771C11.4185 6.42023 11.179 6.18066 10.8915 6.18066H9.26245V7.28266H10.8915C11.179 7.23475 11.4185 6.99519 11.4185 6.70771Z" fill="#8F1416"/>
<path d="M12.5205 9.58271C12.5205 9.29523 12.281 9.05566 11.9935 9.05566H9.26245V10.1577H11.9935C12.281 10.1577 12.5205 9.87019 12.5205 9.58271Z" fill="#8F1416"/>
</svg>
