<svg width="13" height="13" viewBox="0 0 13 13" fill="none" xmlns="http://www.w3.org/2000/svg">
<path d="M1.79271 12.0287H0.727515C0.354696 12.0287 0.0617676 11.7357 0.0617676 11.3629V4.86521C0.0617676 4.49239 0.354696 4.19946 0.727515 4.19946H1.79271C2.16553 4.19946 2.45846 4.49239 2.45846 4.86521V11.3629C2.45846 11.7357 2.15221 12.0287 1.79271 12.0287Z" fill="#8F1416"/>
<path d="M4.98827 12.028H3.92307C3.55025 12.028 3.25732 11.7351 3.25732 11.3623V7.52756C3.25732 7.15475 3.55025 6.86182 3.92307 6.86182H4.98827C5.36109 6.86182 5.65402 7.15475 5.65402 7.52756V11.3623C5.65402 11.7351 5.34777 12.028 4.98827 12.028Z" fill="#8F1416"/>
<path d="M8.18407 12.0286H7.11887C6.74605 12.0286 6.45312 11.7357 6.45312 11.3629V0.737525C6.45312 0.364706 6.74605 0.0717773 7.11887 0.0717773H8.18407C8.55689 0.0717773 8.84982 0.364706 8.84982 0.737525V11.3629C8.84982 11.7357 8.54357 12.0286 8.18407 12.0286Z" fill="#8F1416"/>
<path d="M11.3796 12.0284H10.3144C9.94161 12.0284 9.64868 11.7354 9.64868 11.3626V3.53342C9.64868 3.1606 9.94161 2.86768 10.3144 2.86768H11.3796C11.7524 2.86768 12.0454 3.1606 12.0454 3.53342V11.3626C12.0454 11.7354 11.7524 12.0284 11.3796 12.0284Z" fill="#8F1416"/>
</svg>
