<svg width="27" height="27" viewBox="0 0 27 27" fill="none" xmlns="http://www.w3.org/2000/svg">
<path d="M3.75554 25.9421H1.44444C0.635552 25.9421 0 25.3066 0 24.4977V10.4C0 9.59112 0.635552 8.95557 1.44444 8.95557H3.75554C4.56442 8.95557 5.19997 9.59112 5.19997 10.4V24.4977C5.19997 25.3066 4.53553 25.9421 3.75554 25.9421Z" fill="#8F1416"/>
<path d="M10.6889 25.9417H8.37779C7.5689 25.9417 6.93335 25.3062 6.93335 24.4973V16.1773C6.93335 15.3685 7.5689 14.7329 8.37779 14.7329H10.6889C11.4978 14.7329 12.1333 15.3685 12.1333 16.1773V24.4973C12.1333 25.3062 11.4689 25.9417 10.6889 25.9417Z" stroke="#8F1416"/>
<path d="M17.6222 25.9421H15.3111C14.5023 25.9421 13.8667 25.3065 13.8667 24.4977V1.44444C13.8667 0.635552 14.5023 0 15.3111 0H17.6222C18.4311 0 19.0667 0.635552 19.0667 1.44444V24.4977C19.0667 25.3065 18.4022 25.9421 17.6222 25.9421Z" fill="#8F1416"/>
<path d="M24.5556 25.9419H22.2445C21.4356 25.9419 20.8 25.3063 20.8 24.4974V7.51084C20.8 6.70196 21.4356 6.06641 22.2445 6.06641H24.5556C25.3645 6.06641 26 6.70196 26 7.51084V24.4974C26 25.3063 25.3645 25.9419 24.5556 25.9419Z" stroke="#8F1416"/>
</svg>
