<svg width="35" height="35" viewBox="0 0 35 35" fill="none" xmlns="http://www.w3.org/2000/svg">
<path d="M17.5 0C14.0388 0 10.6554 1.02636 7.77753 2.94928C4.89967 4.8722 2.65665 7.60533 1.33212 10.803C0.0075825 14.0007 -0.338976 17.5194 0.336265 20.9141C1.01151 24.3087 2.67822 27.4269 5.12564 29.8744C7.57306 32.3218 10.6913 33.9885 14.0859 34.6637C17.4806 35.339 20.9993 34.9924 24.197 33.6679C27.3947 32.3433 30.1278 30.1003 32.0507 27.2225C33.9736 24.3446 35 20.9612 35 17.5C34.9949 12.8603 33.1495 8.41208 29.8687 5.13131C26.5879 1.85054 22.1397 0.00514666 17.5 0ZM24.57 3.65167C27.4826 5.14684 29.8532 7.51743 31.3483 10.43L27.5411 11.5733C26.5373 9.87912 25.1238 8.46431 23.4306 7.45889L24.57 3.65167ZM10.4261 3.65167L11.5694 7.45889C9.87666 8.46323 8.46323 9.87665 7.4589 11.5694L3.65167 10.4261C5.1475 7.51498 7.51802 5.14582 10.43 3.65167H10.4261ZM10.4261 31.3483C7.51499 29.8525 5.14583 27.482 3.65167 24.57L7.4589 23.4267C8.46272 25.1209 9.87619 26.5357 11.5694 27.5411L10.4261 31.3483ZM7.77778 17.5C7.77778 15.5771 8.34798 13.6974 9.41627 12.0986C10.4846 10.4998 12.003 9.25369 13.7795 8.51784C15.556 7.78198 17.5108 7.58945 19.3967 7.96459C21.2826 8.33972 23.015 9.26567 24.3747 10.6253C25.7343 11.985 26.6603 13.7174 27.0354 15.6033C27.4105 17.4892 27.218 19.444 26.4822 21.2205C25.7463 22.997 24.5002 24.5154 22.9014 25.5837C21.3026 26.652 19.4229 27.2222 17.5 27.2222C14.9215 27.2222 12.4486 26.1979 10.6254 24.3746C8.80209 22.5514 7.77778 20.0785 7.77778 17.5ZM24.57 31.3483L23.4267 27.5411C25.1209 26.5373 26.5357 25.1238 27.5411 23.4305L31.3483 24.5739C29.8525 27.485 27.482 29.8542 24.57 31.3483Z" fill="#FEFCDD"/>
</svg>
