<svg width="17" height="22" viewBox="0 0 17 22" fill="none" xmlns="http://www.w3.org/2000/svg">
<path d="M8.49965 0.75C4.19288 0.75 0.75 4.08138 0.75 8.0996C0.75 9.15467 0.976052 10.1559 1.41969 11.0816C3.39055 15.191 7.1076 19.5571 8.49986 21.1198C9.89184 19.5571 13.6089 15.1913 15.5804 11.0815C16.0241 10.156 16.25 9.15482 16.25 8.09968L8.49965 0.75ZM8.49965 0.75C12.8066 0.75 16.2495 4.08135 16.25 8.0996L8.49965 0.75ZM8.49965 13.0566C5.68551 13.0566 3.33442 10.867 3.33442 8.09937C3.33442 5.33152 5.68548 3.14197 8.49965 3.14197C11.3138 3.14197 13.6648 5.33148 13.6649 8.0993L8.49965 13.0566ZM8.49965 13.0566C11.3139 13.0566 13.6651 10.8671 13.6649 8.09937L8.49965 13.0566Z" stroke="#4C4C4C" stroke-width="1.5"/>
</svg>
