<svg width="18" height="23" viewBox="0 0 18 23" fill="none" xmlns="http://www.w3.org/2000/svg">
<path d="M8.99962 0.75C4.40798 0.75 0.75 4.25526 0.75 8.46776C0.75 9.57427 0.990103 10.6249 1.4618 11.5967C3.56791 15.9326 7.55436 20.5402 8.99986 22.1389C10.4451 20.5402 14.4315 15.9329 16.5383 11.5964C17.0101 10.6249 17.25 9.57438 17.25 8.46784L8.99962 0.75ZM8.99962 0.75C13.5915 0.75 17.2495 4.25523 17.25 8.46776L8.99962 0.75ZM8.99962 13.6159C6.0515 13.6159 3.57468 11.3493 3.57468 8.46753C3.57468 5.5855 6.05147 3.31888 8.99962 3.31888C11.9478 3.31888 14.4245 5.58546 14.4246 8.46745L8.99962 13.6159ZM8.99962 13.6159C11.9479 13.6159 14.4248 11.3494 14.4246 8.46753L8.99962 13.6159Z" stroke="#841214" stroke-width="1.5"/>
</svg>
