<svg width="18" height="18" viewBox="0 0 18 18" fill="none" xmlns="http://www.w3.org/2000/svg">
<path d="M15.364 2.63605C17.0639 4.33593 18 6.59604 18 9.00005C18 11.404 17.0638 13.6641 15.364 15.364C13.6641 17.0638 11.404 18 9.00002 18C6.59604 18 4.33593 17.0638 2.63605 15.364C0.936158 13.6641 0 11.404 0 9.00005C0 6.59607 0.93609 4.33593 2.63601 2.63605C4.33593 0.936158 6.59604 0 9.00002 0C11.404 0 13.6641 0.936158 15.364 2.63605ZM14.5685 14.5685C15.6769 13.46 16.4139 12.0793 16.7179 10.5772C16.481 10.9258 16.2544 11.0552 16.1141 10.2747C15.9697 9.00224 14.8009 9.81511 14.0659 9.3631C13.2924 9.88444 11.5539 8.34952 11.8494 10.0807C12.3052 10.8616 14.3104 9.03569 13.311 10.6879C12.6733 11.8413 10.9794 14.3957 11.1997 15.7198C11.2275 17.6489 9.22861 16.122 8.5399 15.4821C8.07662 14.2004 8.38202 11.9599 7.1706 11.3322C5.85573 11.2751 4.72716 11.1556 4.21757 9.68565C3.91092 8.63396 4.5439 7.06837 5.67091 6.82668C7.32062 5.79019 7.90992 8.0405 9.45709 8.08235C9.93746 7.57971 11.2468 7.41991 11.3554 6.85628C10.3403 6.67714 12.6433 6.00271 11.2582 5.61911C10.4941 5.70898 10.0018 6.41142 10.408 7.00704C8.92722 7.35231 8.8798 4.86419 7.45639 5.64901C7.42021 6.88983 5.1322 6.05128 6.66475 5.79967C7.19132 5.56963 5.80588 4.90293 6.55436 5.0241C6.92203 5.00412 8.15981 4.57036 7.82484 4.27876C8.51405 3.85091 9.09327 5.30338 9.7679 4.24569C10.2549 3.43241 9.56364 3.28226 8.95314 3.69448C8.60896 3.30912 9.56084 2.47675 10.4004 2.11707C10.6802 1.99719 10.9474 1.93188 11.1518 1.95038C11.5747 2.43891 12.3568 2.52352 12.3977 1.89162C11.3504 1.39006 10.1956 1.12509 9.00002 1.12509C7.284 1.12509 5.65191 1.67042 4.30124 2.67881C4.66422 2.84509 4.87026 3.05215 4.52058 3.31682C4.24889 4.12638 3.14651 5.2131 2.17877 5.05923C1.67626 5.92573 1.34534 6.88041 1.2039 7.881C2.01444 8.14918 2.20134 8.67993 2.02719 8.85746C1.6142 9.2176 1.36033 9.72811 1.22958 10.2869C1.4934 11.9013 2.25214 13.389 3.4316 14.5685C4.91893 16.0559 6.89648 16.875 9.00002 16.875C11.1035 16.875 13.0811 16.0559 14.5685 14.5685Z" fill="#4C4C4C"/>
</svg>
