<svg width="12" height="12" viewBox="0 0 12 12" fill="none" xmlns="http://www.w3.org/2000/svg">
<path d="M6.12718 0.590123L6.12718 0.590111C6.09451 0.520892 6.04467 0.5 5.99991 0.5C5.95516 0.5 5.90547 0.520857 5.87291 0.589927L5.87282 0.590123L4.51938 3.45775C4.35723 3.80136 4.03775 4.05027 3.6557 4.10827C3.65566 4.10828 3.65562 4.10828 3.65558 4.10829L0.629155 4.56815L0.62897 4.56818C0.578546 4.57582 0.532187 4.60988 0.509807 4.68191C0.487184 4.75471 0.503434 4.82582 0.552832 4.87619L2.74275 7.10825L2.74285 7.10836C3.00925 7.38005 3.12625 7.76507 3.06494 8.13767M6.12718 0.590123L9.24838 11.4826L6.54161 9.9947L6.54146 9.99461C6.20331 9.80889 5.79669 9.80889 5.45854 9.99461L5.45839 9.9947L2.75149 11.4827L2.75143 11.4827C2.72167 11.4991 2.69913 11.5012 2.68169 11.4995C2.66185 11.4976 2.63794 11.4893 2.61425 11.4713C2.56768 11.4359 2.53426 11.3735 2.54807 11.2894L2.54808 11.2893L3.06494 8.13767M6.12718 0.590123L7.48062 3.45774C7.48062 3.45775 7.48063 3.45776 7.48063 3.45777C7.64279 3.80138 7.96226 4.05028 8.3443 4.10827C8.34434 4.10828 8.34438 4.10828 8.34442 4.10829L11.3708 4.56814L6.12718 0.590123ZM3.06494 8.13767L2.57157 8.0565L3.06498 8.13742L3.06494 8.13767ZM11.4472 4.87611L11.4473 4.87607C11.4965 4.82589 11.5128 4.75494 11.4902 4.6821C11.4678 4.61005 11.4214 4.57586 11.3708 4.56815L11.4472 4.87611ZM11.4472 4.87611L9.25725 7.10825L9.25715 7.10836L11.4472 4.87611ZM9.45193 11.2894L9.45191 11.2893L8.93506 8.13767L9.45193 11.2894ZM9.45193 11.2894C9.46573 11.3735 9.43234 11.4358 9.38579 11.4712M9.45193 11.2894L9.38579 11.4712M9.38579 11.4712C9.3621 11.4892 9.33816 11.4975 9.31826 11.4994M9.38579 11.4712L9.31826 11.4994M9.31826 11.4994C9.30078 11.5011 9.27822 11.499 9.24851 11.4827L9.31826 11.4994Z" fill="#8F1416" stroke="#8F1416"/>
</svg>
