<svg width="58" height="57" viewBox="0 0 58 57" fill="none" xmlns="http://www.w3.org/2000/svg">
<g opacity="0.5">
<rect x="-1.19209e-07" y="0.703824" width="39.4356" height="39.4356" transform="matrix(-0.710375 0.703824 0.710375 0.703824 28.2245 0.208456)" fill="#8F1416" stroke="white"/>
<path d="M21.3392 28.8164C21.1439 28.6212 21.1439 28.3046 21.3392 28.1093L24.5212 24.9274C24.7164 24.7321 25.033 24.7321 25.2283 24.9274C25.4235 25.1226 25.4235 25.4392 25.2283 25.6345L22.3998 28.4629L25.2283 31.2913C25.4235 31.4866 25.4235 31.8032 25.2283 31.9984C25.033 32.1937 24.7164 32.1937 24.5211 31.9984L21.3392 28.8164ZM36.748 28.9629L21.6927 28.9629L21.6927 27.9629L36.748 27.9629L36.748 28.9629Z" fill="white"/>
</g>
</svg>
