<svg width="70" height="70" viewBox="0 0 70 70" fill="none" xmlns="http://www.w3.org/2000/svg">
<rect width="70" height="70" fill="#841214"/>
<path d="M59.7002 35.5C59.7002 48.2025 49.4027 58.5 36.7002 58.5C23.9976 58.5 13.7002 48.2025 13.7002 35.5C13.7002 22.7975 23.9976 12.5 36.7002 12.5C49.4027 12.5 59.7002 22.7975 59.7002 35.5Z" fill="#C62325" stroke="#F9F9F9"/>
<path d="M36.6996 22.1829L37.1702 23.6313L37.2387 23.8422H37.4605H38.9831L37.7512 24.7372L37.5718 24.8676L37.6403 25.0785L38.1109 26.5267L36.8789 25.6316L36.6996 25.5013L36.5202 25.6316L35.2881 26.5268L35.7587 25.0785L35.8272 24.8676L35.6478 24.7372L34.4159 23.8422H35.9386H36.1604L36.2289 23.6313L36.6996 22.1829Z" fill="white" stroke="#F9F9F9" stroke-width="0.61039"/>
<path d="M27.2833 26.0831L28.6403 26.7745L28.8379 26.8751L28.9947 26.7184L30.0714 25.6417L29.8331 27.1457L29.7984 27.3647L29.996 27.4653L31.3529 28.1567L29.8489 28.395L29.6299 28.4297L29.5952 28.6487L29.3569 30.1528L28.6655 28.7959L28.5649 28.5983L28.3459 28.633L26.842 28.8713L27.9186 27.7946L28.0754 27.6378L27.9748 27.4402L27.2833 26.0831Z" fill="white" stroke="#F9F9F9" stroke-width="0.61039"/>
<path d="M23.3831 35.5003L24.8315 35.0297L25.0423 34.9612V34.7394V33.2167L25.9373 34.4487L26.0677 34.6281L26.2786 34.5596L27.7269 34.089L26.8317 35.3209L26.7014 35.5003L26.8317 35.6797L27.7269 36.9117L26.2785 36.4412L26.0677 36.3726L25.9373 36.552L25.0423 37.784V36.2612V36.0395L24.8315 35.971L23.3831 35.5003Z" fill="white" stroke="#F9F9F9" stroke-width="0.61039"/>
<path d="M27.2833 44.9161L27.9747 43.5591L28.0753 43.3615L27.9186 43.2047L26.842 42.128L28.3459 42.3664L28.565 42.4011L28.6656 42.2035L29.3569 40.8466L29.5952 42.3506L29.6299 42.5696L29.8489 42.6043L31.3529 42.8426L29.9962 43.534L29.7986 43.6346L29.8333 43.8536L30.0715 45.3576L28.9947 44.2808L28.8379 44.1241L28.6403 44.2247L27.2833 44.9161Z" fill="white" stroke="#F9F9F9" stroke-width="0.61039"/>
<path d="M36.6995 48.8165L36.2288 47.3681L36.1603 47.1573H35.9386H34.4159L35.6479 46.2622L35.8273 46.1319L35.7588 45.921L35.2881 44.4728L36.5202 45.3678L36.6996 45.4981L36.8789 45.3678L38.1109 44.4728L37.6403 45.921L37.5718 46.1319L37.7512 46.2622L38.9831 47.1573H37.4604H37.2386L37.1701 47.3682L36.6995 48.8165Z" fill="white" stroke="#F9F9F9" stroke-width="0.61039"/>
<path d="M46.1162 44.9161L44.7593 44.2248L44.5617 44.1242L44.4049 44.2809L43.3281 45.3577L43.5664 43.8535L43.6011 43.6345L43.4035 43.5339L42.0467 42.8426L43.5507 42.6043L43.7697 42.5696L43.8044 42.3506L44.0427 40.8466L44.734 42.2035L44.8346 42.4011L45.0537 42.3664L46.5576 42.128L45.4808 43.2049L45.3241 43.3617L45.4247 43.5593L46.1162 44.9161Z" fill="white" stroke="#F9F9F9" stroke-width="0.61039"/>
<path d="M50.0167 35.5003L48.5683 35.971L48.3575 36.0395V36.2612V37.784L47.4624 36.5519L47.3321 36.3725L47.1212 36.4411L45.6731 36.9117L46.5681 35.6797L46.6984 35.5003L46.5681 35.3209L45.6731 34.089L47.1213 34.5596L47.3322 34.6281L47.4625 34.4487L48.3575 33.2167V34.7395V34.9613L48.5684 35.0298L50.0167 35.5003Z" fill="white" stroke="#F9F9F9" stroke-width="0.61039"/>
<path d="M46.1162 26.0831L45.4248 27.4401L45.3242 27.6377L45.4809 27.7945L46.5576 28.8712L45.0536 28.6328L44.8345 28.5981L44.7339 28.7957L44.0426 30.1525L43.8044 28.6486L43.7697 28.4296L43.5507 28.3949L42.0467 28.1566L43.4035 27.4653L43.6011 27.3646L43.5664 27.1456L43.3281 25.6416L44.405 26.7184L44.5618 26.8751L44.7594 26.7745L46.1162 26.0831Z" fill="white" stroke="#F9F9F9" stroke-width="0.61039"/>
<rect x="10.9414" y="21" width="58.0917" height="4" transform="rotate(29.032 10.9414 21)" fill="#841214"/>
<rect x="55.5508" y="15.0312" width="58.0917" height="4" transform="rotate(132.471 55.5508 15.0312)" fill="#841214"/>
</svg>
