<svg width="70" height="70" viewBox="0 0 70 70" fill="none" xmlns="http://www.w3.org/2000/svg">
<rect width="70" height="70" fill="#841214"/>
<path fill-rule="evenodd" clip-rule="evenodd" d="M35 57C47.1503 57 57 47.1503 57 35C57 22.8497 47.1503 13 35 13C22.8497 13 13 22.8497 13 35V57H35Z" fill="#F9F9F9"/>
<path fill-rule="evenodd" clip-rule="evenodd" d="M35 56C46.598 56 56 46.598 56 35C56 23.402 46.598 14 35 14C23.402 14 14 23.402 14 35V56H35Z" fill="#C62325"/>
<path d="M29.4922 38.5459H27.8584V42.1895H25.8076V32.2363H29.5059C30.6816 32.2363 31.5885 32.4984 32.2266 33.0225C32.8646 33.5465 33.1836 34.2871 33.1836 35.2441C33.1836 35.9232 33.0355 36.4906 32.7393 36.9463C32.4476 37.3975 32.0033 37.7575 31.4062 38.0264L33.5596 42.0938V42.1895H31.3584L29.4922 38.5459ZM27.8584 36.8848H29.5127C30.0277 36.8848 30.4264 36.7549 30.709 36.4951C30.9915 36.2308 31.1328 35.8685 31.1328 35.4082C31.1328 34.9388 30.9984 34.5697 30.7295 34.3008C30.4652 34.0319 30.0573 33.8975 29.5059 33.8975H27.8584V36.8848ZM42.2822 32.2363V38.792C42.2822 39.8812 41.9404 40.7425 41.2568 41.376C40.5778 42.0094 39.6481 42.3262 38.4678 42.3262C37.3057 42.3262 36.3828 42.0186 35.6992 41.4033C35.0156 40.7881 34.667 39.9427 34.6533 38.8672V32.2363H36.7041V38.8057C36.7041 39.4574 36.859 39.9336 37.1689 40.2344C37.4834 40.5306 37.9163 40.6787 38.4678 40.6787C39.6208 40.6787 40.2064 40.0726 40.2246 38.8604V32.2363H42.2822Z" fill="#F9F9F9"/>
</svg>
