<svg width="31" height="28" viewBox="0 0 31 28" fill="none" xmlns="http://www.w3.org/2000/svg">
<path d="M17.136 1.82832L20.4553 8.13373C20.6861 8.57227 21.1324 8.87615 21.6487 8.94636L29.0714 9.95755C30.3716 10.1348 30.8904 11.6323 29.9499 12.4916L24.5789 17.3996C24.2056 17.7409 24.035 18.233 24.1234 18.7147L25.3911 25.6451C25.6133 26.8589 24.2541 27.7843 23.0914 27.2117L16.4527 23.9398C15.991 23.7125 15.4391 23.7125 14.9775 23.9398L8.33879 27.2117C7.17606 27.7849 5.81689 26.8589 6.03912 25.6451L7.30682 18.7147C7.39522 18.233 7.22456 17.7409 6.85131 17.3996L1.48031 12.4916C0.539816 11.6317 1.05856 10.1342 2.3588 9.95755L9.78145 8.94636C10.2977 8.87615 10.744 8.57227 10.9749 8.13373L14.2942 1.82832C14.875 0.723894 16.5546 0.723894 17.136 1.82832Z" stroke="#8F1416"/>
<path d="M16.6927 6.53368L18.8357 10.5962C18.9847 10.8787 19.2728 11.0745 19.6061 11.1198L24.3982 11.7713C25.2376 11.8855 25.5725 12.8503 24.9653 13.4039L21.4978 16.5661C21.2568 16.786 21.1467 17.103 21.2037 17.4134L22.0222 21.8786C22.1656 22.6606 21.2882 23.2568 20.5375 22.8879L16.2516 20.7799C15.9535 20.6334 15.5972 20.6334 15.2992 20.7799L11.0133 22.8879C10.2626 23.2572 9.38515 22.6606 9.52863 21.8786L10.347 17.4134C10.4041 17.103 10.2939 16.786 10.053 16.5661L6.58548 13.4039C5.9783 12.8499 6.3132 11.8851 7.15262 11.7713L11.9447 11.1198C12.278 11.0745 12.5661 10.8787 12.7151 10.5962L14.8581 6.53368C15.233 5.82211 16.3174 5.82211 16.6927 6.53368Z" fill="#8F1416"/>
</svg>
