<svg width="26" height="26" viewBox="0 0 26 26" fill="none" xmlns="http://www.w3.org/2000/svg">
<path d="M21.2189 16.5247C19.7008 16.5247 18.3618 17.2418 17.4869 18.34L9.3724 14.2254C9.47863 13.8325 9.55499 13.4266 9.55499 12.9994C9.55499 12.5343 9.4643 12.0965 9.33777 11.6705L17.4165 7.57482C18.2865 8.72272 19.6602 9.47298 21.2201 9.47298C23.8625 9.47298 26 7.35357 26 4.73592C26.0001 2.12062 23.8625 0 21.2202 0C18.5837 0 16.4439 2.12062 16.4439 4.73586C16.4439 5.16426 16.5203 5.57133 16.6277 5.96539L8.51431 10.08C7.63829 8.98067 6.29679 8.26118 4.7763 8.26118C2.1363 8.26118 0 10.3829 0 12.9994C0 15.6158 2.13635 17.7365 4.7763 17.7365C6.33857 17.7365 7.7111 16.9838 8.58469 15.8348L16.6598 19.9304C16.5333 20.3553 16.4414 20.7967 16.4414 21.2629C16.4414 23.8794 18.5813 26 21.2177 26C23.8601 26 25.9976 23.8794 25.9976 21.2629C25.9988 18.6441 23.8613 16.5247 21.2189 16.5247Z" fill="#8F1416"/>
</svg>
