<svg width="29" height="29" viewBox="0 0 29 29" fill="none" xmlns="http://www.w3.org/2000/svg">
<path d="M23.0351 18.1602C21.4586 18.1602 20.068 18.9049 19.1595 20.0454L10.7329 15.7725C10.8432 15.3645 10.9225 14.943 10.9225 14.4994C10.9225 14.0164 10.8283 13.5618 10.6969 13.1193L19.0863 8.86616C19.9898 10.0582 21.4164 10.8373 23.0363 10.8373C25.7803 10.8373 28 8.6364 28 5.91807C28.0001 3.20218 25.7803 1 23.0363 1C20.2985 1 18.0763 3.20218 18.0763 5.91801C18.0763 6.36289 18.1557 6.78561 18.2672 7.19483L9.84178 11.4677C8.93207 10.3261 7.53898 9.57891 5.96001 9.57891C3.21846 9.57891 1 11.7823 1 14.4994C1 17.2165 3.21852 19.4186 5.96001 19.4186C7.58236 19.4186 9.00769 18.6371 9.91487 17.4438L18.3006 21.697C18.1692 22.1382 18.0738 22.5965 18.0738 23.0807C18.0738 25.7978 20.296 28 23.0338 28C25.7778 28 27.9975 25.7978 27.9975 23.0807C27.9988 20.3612 25.7791 18.1602 23.0351 18.1602Z" stroke="#8F1416"/>
<circle cx="23" cy="23" r="3" fill="#8F1416"/>
<circle cx="23" cy="6" r="3" fill="#8F1416"/>
<circle cx="6" cy="14.5" r="3" fill="#8F1416"/>
</svg>
