<svg width="20" height="20" viewBox="0 0 20 20" fill="none" xmlns="http://www.w3.org/2000/svg">
<g clip-path="url(#clip0)">
<path d="M14.5777 5.91113H5.42224V6.79783H14.5777V5.91113Z" fill="#841214"/>
<path d="M14.4792 7.19189H13.6917V8.07859H14.4792V7.19189Z" fill="#841214"/>
<path d="M6.20981 7.19189H5.42224V8.07859H6.20981V7.19189Z" fill="#841214"/>
<path d="M10.3446 3.15283H9.55701V4.03953H10.3446V3.15283Z" fill="#841214"/>
<path d="M11.6244 3.15283H10.8368V4.03953H11.6244V3.15283Z" fill="#841214"/>
<path d="M9.16318 3.15283H8.37561V4.03953H9.16318V3.15283Z" fill="#841214"/>
<path d="M7.88339 3.15283H7.09583V4.03953H7.88339V3.15283Z" fill="#841214"/>
<path d="M12.9041 3.15283H12.1166V4.03953H12.9041V3.15283Z" fill="#841214"/>
<path d="M19.3031 18.0296C18.4171 18.0296 17.9249 18.3251 17.4326 18.5222L17.5311 18.6207L17.4326 18.5222C17.1373 18.7192 16.842 18.8177 16.3497 18.9163L18.7124 11.5271C18.8109 11.2315 18.7124 10.936 18.4171 10.8374L16.2513 9.85222V5.71429C16.2513 4.92611 15.6606 4.23645 14.8731 4.23645H14.3808V2.26601C14.3808 1.97044 14.0855 1.67488 13.7902 1.67488H10.443V0H9.45855V1.67488H6.01295C5.71762 1.67488 5.52073 1.97044 5.52073 2.26601V4.23645H5.0285C4.24093 4.23645 3.65026 4.92611 3.65026 5.71429V9.75369L1.48446 10.7389C1.18912 10.8374 1.09067 11.133 1.18912 11.4286L3.55181 18.8177C3.05959 18.8177 2.76425 18.6207 2.46891 18.4236C2.07513 18.2266 1.5829 17.931 0.598446 17.931H0.5V19.1133H0.598446C1.18912 19.1133 1.48446 19.3103 1.87824 19.5074C2.27202 19.7044 2.76425 20 3.7487 20C3.9456 20 4.24093 20 4.33938 19.9015C4.83161 19.803 5.22539 19.6059 5.52073 19.4089C5.91451 19.2118 6.20985 19.0148 6.80052 19.0148C7.39119 19.0148 7.68653 19.2118 8.08031 19.4089C8.47409 19.6059 8.96632 19.9015 9.95078 19.9015C10.8368 19.9015 11.329 19.6059 11.8212 19.4089C12.215 19.2118 12.5104 19.0148 13.101 19.0148C13.6917 19.0148 13.987 19.2118 14.3808 19.4089C14.6762 19.6059 15.0699 19.803 15.5622 19.9015C15.7591 19.9015 15.956 20 16.1529 20C17.0389 20 17.5311 19.7044 18.0233 19.5074C18.4171 19.3103 18.7124 19.1133 19.3031 19.1133H19.5V17.931H19.3031V18.0296ZM6.60363 4.23645V2.85714H13.3964V4.23645H6.60363ZM2.37047 11.6256L9.45855 8.37438V9.06404L2.56736 12.3153L2.37047 11.6256ZM15.2668 9.26108L10.2461 6.89655C10.1477 6.89655 10.0492 6.89655 9.95078 6.89655C9.85233 6.89655 9.85233 6.89655 9.75389 6.89655L4.73316 9.26108V5.71429C4.73316 5.51724 4.83161 5.41872 5.0285 5.41872H14.9715C15.1684 5.41872 15.2668 5.51724 15.2668 5.71429V9.26108ZM9.45855 10.2463V15.2709H10.5415V10.2463L17.0389 13.3005L15.3653 18.7192C15.2668 18.6207 15.0699 18.6207 14.9715 18.5222C14.5777 18.3251 14.0855 18.0296 13.101 18.0296C12.215 18.0296 11.7228 18.3251 11.2306 18.5222C10.8368 18.7192 10.5415 18.9163 9.95078 18.9163C9.3601 18.9163 9.06477 18.7192 8.67099 18.5222C8.2772 18.3251 7.78497 18.0296 6.80052 18.0296C5.91451 18.0296 5.42228 18.3251 4.93005 18.5222C4.83161 18.6207 4.63472 18.6207 4.53627 18.7192L2.76425 13.399L9.45855 10.2463ZM10.5415 8.96552V8.27586L17.6295 11.5271L17.4326 12.1182L10.5415 8.96552Z" fill="#841214"/>
</g>
<defs>
<clipPath id="clip0">
<rect width="19" height="20" fill="white" transform="translate(0.5)"/>
</clipPath>
</defs>
</svg>
