<svg width="70" height="70" viewBox="0 0 70 70" fill="none" xmlns="http://www.w3.org/2000/svg">
<rect width="70" height="70" fill="#841214"/>
<g clip-path="url(#clip0)">
<path d="M45.8492 41.7521C45.7585 41.775 45.6644 41.7943 45.5677 41.8101C38.945 42.906 32.0972 42.906 25.4747 41.8101C25.3789 41.7943 25.2849 41.775 25.1938 41.7521C27.6427 38.8102 30.1138 35.7425 32.5903 32.549C33.9185 30.8372 37.1249 30.8372 38.4528 32.549C40.9296 35.7425 43.4007 38.8102 45.8492 41.7521Z" fill="#C62325"/>
<path d="M42.8388 30.5467C38.0094 31.3013 33.0329 31.3013 28.2031 30.5467C29.8072 28.59 31.4202 26.5697 33.0362 24.4863C34.1615 23.0345 36.8808 23.0345 38.007 24.4863C39.623 26.5697 41.2351 28.59 42.8388 30.5467Z" fill="#C62325"/>
<path d="M39.5289 54.0883C38.2623 54.6962 36.8912 55 35.5207 55C35.2326 55 34.944 54.9863 34.6569 54.9592C33.5786 54.8589 32.5128 54.5685 31.5127 54.0883L32.0447 51.0221L36.0795 49.0014L38.9969 51.0221L39.2465 52.461L39.5289 54.0883Z" fill="#C62325"/>
<path d="M39.5289 54.0883C38.2623 54.6962 36.8912 55 35.5207 55C35.2326 55 34.944 54.9863 34.6569 54.9592L34.6569 52.461L39.2465 52.461L39.5289 54.0883Z" fill="#C62325"/>
<path d="M47.3692 50.1566C39.5586 51.4494 31.4835 51.4494 23.6732 50.1566C21.3003 49.7641 20.1851 47.6456 21.5315 46.0808C22.7455 44.6689 23.9666 43.2267 25.1934 41.7521C27.6422 38.8102 30.1133 35.7425 32.5898 32.5489C33.918 30.8372 37.1244 30.8372 38.4523 32.5489C40.9291 35.7425 43.4002 38.8102 45.8487 41.7521C47.0755 43.2267 48.2967 44.6689 49.5109 46.0808C50.8573 47.6456 49.7412 49.7641 47.3692 50.1566Z" fill="#C62325"/>
<path d="M45.5673 39.4172C38.9445 40.513 32.0967 40.513 25.4743 39.4172C23.4625 39.0839 22.5172 37.2876 23.6586 35.9612C25.1615 34.2134 26.6778 32.4091 28.2028 30.5467C29.8068 28.5901 31.4198 26.5697 33.0358 24.4863C34.1611 23.0346 36.8804 23.0346 38.0066 24.4863C39.6226 26.5697 41.2347 28.5901 42.8385 30.5467C44.3637 32.4091 45.8809 34.2134 47.3835 35.9612C48.5249 37.2876 47.579 39.0839 45.5673 39.4172Z" fill="#C62325"/>
<path d="M33.6062 16.8387C31.1773 19.9704 28.7577 22.9167 26.3829 25.6774C25.5037 26.6997 26.2324 28.0833 27.782 28.3398C32.8834 29.1842 38.1583 29.1842 43.2601 28.3398C44.8097 28.0833 45.5381 26.6997 44.6588 25.6774C42.2844 22.9167 39.8645 19.9704 37.4356 16.8387C36.5683 15.7203 34.4738 15.7203 33.6062 16.8387Z" fill="#C62325"/>
<path d="M35.3663 16.0027V16.0036C35.3663 16.0036 28.033 28.358 31.7428 28.8216C30.4148 28.7171 29.0922 28.5559 27.7818 28.339C26.2319 28.0828 25.5029 26.6989 26.3828 25.6765C28.7572 22.9159 31.1765 19.9702 33.606 16.8379C34.0089 16.3178 34.679 16.0387 35.3663 16.0027Z" fill="#C62325"/>
<path d="M32.7425 30.8276L31.1872 35.4929L29.679 39.962C28.2701 39.8287 26.8671 39.6469 25.4746 39.4163C23.4629 39.084 22.517 37.2877 23.6584 35.9603C25.0438 34.3491 26.4414 32.6891 27.8467 30.9815C28.2201 30.5277 28.5941 30.0698 28.9681 29.6089L32.7425 30.8276Z" fill="#C62325"/>
<path d="M29.0525 50.8386C29.0534 50.8386 29.0543 50.8395 29.0549 50.8395C27.2514 50.6791 25.4552 50.4518 23.6726 50.1566C21.3005 49.7632 20.1844 47.645 21.5308 46.0799C22.6413 44.7895 23.7571 43.4725 24.8776 42.1291C25.5629 41.3093 26.249 40.4798 26.9363 39.6398L27.017 39.5131L30.9479 41.7146C30.9479 41.7146 23.4485 49.1955 29.0525 50.8386Z" fill="#C62325"/>
<path d="M31.3354 41.1742C31.3354 42.8258 29.9964 44.1651 28.3445 44.1651C26.6928 44.1651 25.3535 42.8258 25.3535 41.1742C25.3535 39.5222 26.6928 38.1832 28.3445 38.1832C29.9964 38.1832 31.3354 39.5222 31.3354 41.1742Z" fill="white"/>
<path d="M45.7165 33.563C45.7165 35.2149 44.3773 36.5539 42.7256 36.5539C41.0736 36.5539 39.7344 35.2149 39.7344 33.563C39.7344 31.9113 41.0736 30.572 42.7256 30.572C44.3773 30.572 45.7165 31.9113 45.7165 33.563Z" fill="white"/>
<path d="M34.9301 22.1101C34.9301 23.7621 33.5909 25.101 31.9392 25.101C30.2872 25.101 28.9482 23.7621 28.9482 22.1101C28.9482 20.4584 30.2872 19.1191 31.9392 19.1191C33.5909 19.1191 34.9301 20.4584 34.9301 22.1101Z" fill="white"/>
<path d="M29.2712 44.0178C28.9802 44.1136 28.6684 44.1648 28.3452 44.1648C26.6933 44.1648 25.354 42.8255 25.354 41.1745C25.354 39.5225 26.6933 38.1832 28.3452 38.1832C28.6684 38.1832 28.9802 38.2344 29.2712 38.3299C28.0733 38.72 27.2071 39.8462 27.2071 41.1745C27.2071 42.5024 28.0733 43.628 29.2712 44.0178Z" fill="white"/>
<path d="M43.6527 36.407C43.3608 36.5028 43.0498 36.5537 42.7258 36.5537C41.0741 36.5537 39.7349 35.2153 39.7349 33.5633C39.7349 31.9116 41.0741 30.5724 42.7258 30.5724C43.0498 30.5724 43.3608 30.6233 43.6527 30.7191C42.4547 31.1092 41.5886 32.2354 41.5886 33.5633C41.5886 34.8916 42.4547 36.0178 43.6527 36.407Z" fill="white"/>
<path d="M32.866 24.9546C32.5741 25.0501 32.2623 25.1013 31.9392 25.1013C30.2875 25.1013 28.9482 23.7621 28.9482 22.1101C28.9482 20.4584 30.2875 19.1191 31.9392 19.1191C32.2623 19.1191 32.5741 19.17 32.866 19.2658C31.6681 19.6559 30.802 20.7821 30.802 22.1101C30.802 23.4383 31.6681 24.5645 32.866 24.9546Z" fill="white"/>
</g>
<defs>
<clipPath id="clip0">
<rect width="39" height="39" fill="white" transform="translate(16 16)"/>
</clipPath>
</defs>
</svg>
