<svg width="70" height="70" viewBox="0 0 70 70" fill="none" xmlns="http://www.w3.org/2000/svg">
<rect width="70" height="70" fill="#841214"/>
<g clip-path="url(#clip0)">
<path d="M34.6694 51.3703L34.6693 51.3702C34.5937 51.3024 33.1532 49.9968 31.9859 47.9877C33.1381 47.4757 34.154 46.8462 35.0001 46.2308C35.8461 46.8462 36.8621 47.4757 38.0141 47.9877C36.8469 49.9969 35.4068 51.3025 35.3312 51.3702L35.3311 51.3703C35.2371 51.4545 35.1192 51.4967 35.0002 51.4967C34.8812 51.4967 34.7636 51.4546 34.6694 51.3703Z" fill="#C62325" stroke="white"/>
<path d="M49.4603 40.0804L49.4604 40.0804C49.5548 39.986 49.6477 39.89 49.7393 39.7926C50.7377 40.5789 51.3367 41.2414 51.3723 41.281C51.5407 41.4693 51.5406 41.7542 51.3721 41.9425C51.3065 42.0156 50.3539 43.0657 48.8362 44.0947C47.3125 45.1277 45.2651 46.1084 43.0013 46.1084C41.3659 46.1084 39.8433 45.5965 38.5494 44.9226C39.4465 44.8117 40.4536 44.6387 41.5092 44.3709L41.5092 44.3709C44.7466 43.5497 47.4289 42.1116 49.4603 40.0804Z" fill="#C62325" stroke="white"/>
<path d="M28.4911 44.3712L28.491 44.3712C25.2538 43.55 22.5713 42.112 20.5399 40.0806L28.4911 44.3712ZM28.4911 44.3712C29.5465 44.6388 30.5534 44.8117 31.4505 44.9226M28.4911 44.3712L31.4505 44.9226M31.4505 44.9226C30.1566 45.5965 28.6341 46.1084 26.9984 46.1084C24.7348 46.1084 22.6874 45.1278 21.1637 44.0948C19.6461 43.0659 18.6935 42.0159 18.6279 41.9427C18.4595 41.7545 18.4593 41.4696 18.6274 41.2813C18.6683 41.2359 19.2666 40.5755 20.2605 39.7926C20.3521 39.8899 20.4451 39.9859 20.5396 40.0804L31.4505 44.9226Z" fill="#C62325" stroke="white"/>
<path d="M34.6693 41.9813L34.6692 41.9811C34.5639 41.8869 33.0996 40.5586 31.6649 38.4462C30.2268 36.3287 28.8501 33.4698 28.8501 30.3038C28.8501 27.1378 30.2268 24.279 31.6648 22.1616C33.0995 20.0492 34.5638 18.7209 34.6692 18.6265L34.6693 18.6264C34.7635 18.5421 34.8811 18.5 35.0001 18.5C35.1191 18.5 35.237 18.5421 35.331 18.6263C35.4365 18.7209 36.9008 20.0492 38.3353 22.1616C39.7734 24.279 41.15 27.1378 41.15 30.3038C41.15 33.47 39.7733 36.3289 38.3353 38.4463C36.9007 40.5587 35.4365 41.8869 35.3312 41.9811C35.2364 42.0659 35.1185 42.1079 35.0001 42.1079C34.8815 42.1079 34.7638 42.0658 34.6693 41.9813Z" fill="#C62325" stroke="white"/>
<path d="M44.5525 20.2864C44.5822 20.3476 45.0068 21.2415 45.4438 22.6404C45.2821 22.6742 45.1186 22.7102 44.9537 22.7484M44.5525 20.2864C44.3328 19.8285 43.8039 19.6096 43.3248 19.7777M44.5525 20.2864L44.5525 20.2864L44.5525 20.2864ZM44.9537 22.7484C44.5303 21.402 44.1239 20.5484 44.1026 20.5045L44.1017 20.5027L44.1017 20.5027C43.9925 20.2751 43.7295 20.1659 43.4909 20.2493M44.9537 22.7484C45.002 22.902 45.0505 23.062 45.0987 23.228C44.1833 23.4387 43.2227 23.7205 42.2578 24.0951M44.9537 22.7484C44.1676 22.9305 43.3479 23.1643 42.5196 23.4633M43.4909 20.2493C43.4911 20.2492 43.4914 20.2491 43.4916 20.249L43.3248 19.7777M43.4909 20.2493C43.4907 20.2494 43.4905 20.2494 43.4903 20.2495L43.3248 19.7777M43.4909 20.2493C43.4343 20.2693 42.5458 20.5855 41.3014 21.2345M43.3248 19.7777C43.2607 19.8003 42.3287 20.1317 41.0309 20.8118C41.123 20.9523 41.2132 21.0933 41.3014 21.2345M41.3014 21.2345C41.1586 21.309 41.0111 21.3879 40.8597 21.4712C41.4025 22.3373 41.8701 23.215 42.2578 24.0951M41.3014 21.2345C41.7607 21.9699 42.1678 22.7145 42.5196 23.4633M42.5196 23.4633C42.3722 23.5164 42.2246 23.5717 42.0769 23.629L42.2578 24.0951M42.5196 23.4633C42.5869 23.6066 42.6522 23.75 42.7154 23.8935L42.2578 24.0951" fill="#C62325" stroke="white"/>
<path d="M26.6751 19.7777L26.5088 20.2492C26.5574 20.2663 27.4483 20.5823 28.6985 21.2345C28.2392 21.9699 27.8321 22.7146 27.4804 23.463C26.652 23.1641 25.8323 22.9303 25.0463 22.7483C25.4689 21.4044 25.875 20.5508 25.8982 20.5023C26.0077 20.2747 26.2709 20.1656 26.5094 20.2494L26.6751 19.7777ZM26.6751 19.7777C26.7394 19.8003 27.6714 20.1317 28.969 20.8117L24.5561 22.6404C24.9931 21.2415 25.418 20.3475 25.4474 20.2861C25.6671 19.8285 26.196 19.6093 26.6751 19.7777Z" fill="#C62325" stroke="white"/>
<path d="M47.6983 38.3182C52.3753 33.6412 52.0046 25.8927 51.9864 25.5651C51.9584 25.0582 51.5538 24.6536 51.0469 24.6255M47.6983 38.3182L47.3448 37.9646M47.6983 38.3182C45.1874 40.8289 41.7916 41.8849 39.1338 42.3215C39.2931 42.1351 39.4584 41.9363 39.6276 41.7256M47.6983 38.3182L47.3447 37.9647M47.3448 37.9646C49.5835 35.7259 50.6315 32.7309 51.1119 30.2168C51.5912 27.7086 51.495 25.7339 51.4872 25.5928L51.4872 25.5927C51.4733 25.3405 51.2721 25.1391 51.02 25.1248M47.3448 37.9646C47.3448 37.9646 47.3447 37.9646 47.3447 37.9647M47.3448 37.9646C47.3448 37.9646 47.3447 37.9646 47.3447 37.9647M51.02 25.1248C51.0203 25.1248 51.0206 25.1249 51.0209 25.1249L51.0469 24.6255M51.02 25.1248C51.0197 25.1248 51.0195 25.1248 51.0193 25.1248L51.0469 24.6255M51.02 25.1248C50.979 25.1227 50.7691 25.1121 50.4261 25.1121C49.2237 25.1121 46.433 25.2403 43.5705 26.2647M51.0469 24.6255C51.002 24.6232 50.7826 24.6121 50.4261 24.6121C49.1359 24.6121 46.0514 24.7552 42.9591 25.9594M42.9591 25.9594L43.4366 25.811C43.4835 25.9623 43.5282 26.1135 43.5705 26.2647M42.9591 25.9594C43.4128 27.4198 43.6421 28.8768 43.6421 30.3038C43.6421 32.0586 43.2952 33.8594 42.6107 35.6555M42.9591 25.9594L43.1405 26.4253C43.2839 26.3695 43.4273 26.316 43.5705 26.2647M43.5705 26.2647C43.9495 27.6186 44.1421 28.9718 44.1421 30.3038C44.1421 32.125 43.7821 33.9859 43.0779 35.8335L42.6107 35.6555M42.6107 35.6555L43.0779 35.8335C42.5266 37.2808 41.763 38.7249 40.8106 40.1272M42.6107 35.6555C42.0745 37.063 41.3298 38.4728 40.397 39.8463C39.8757 40.6141 39.3499 41.2897 38.8721 41.857C39.1179 41.8188 39.3702 41.7752 39.6276 41.7256M39.6276 41.7256C42.1282 41.2441 45.1117 40.1974 47.3447 37.9647M39.6276 41.7256C40.0093 41.2506 40.4111 40.7155 40.8106 40.1272M40.8106 40.1272L40.3975 39.8467L40.8106 40.1272C40.8106 40.1272 40.8106 40.1272 40.8106 40.1272Z" fill="#C62325" stroke="white"/>
<path d="M18.9809 25.1248L18.9809 25.1248L18.9821 25.1247C19.0175 25.1227 19.2273 25.1121 19.5746 25.1121C20.777 25.1121 23.5674 25.2403 26.4298 26.2647C26.0507 27.6186 25.8581 28.9718 25.8581 30.3038C25.8581 32.125 26.2184 33.986 26.9222 35.8335C27.4736 37.2808 28.2375 38.7249 29.1898 40.1272C29.5894 40.7156 29.9913 41.2507 30.373 41.7258C27.8723 41.2442 24.8887 40.1977 22.6554 37.9646C20.4167 35.7259 19.3687 32.7309 18.8883 30.2168C18.409 27.7086 18.5052 25.7339 18.513 25.5928L18.513 25.5927C18.5269 25.3403 18.7285 25.1387 18.9809 25.1248Z" fill="#C62325" stroke="white"/>
</g>
<defs>
<clipPath id="clip0">
<rect width="34" height="34" fill="white" transform="translate(18 18)"/>
</clipPath>
</defs>
</svg>
