<svg width="62" height="36" viewBox="0 0 62 36" fill="none" xmlns="http://www.w3.org/2000/svg">
<path d="M18.8021 12.4043L18.3643 12.646L18.3644 12.6461L18.3647 12.6467L18.3659 12.6489L18.3707 12.6575L18.3894 12.6913L18.4604 12.82L18.7161 13.2829C18.9288 13.668 19.2152 14.1864 19.51 14.7196C20.0983 15.7834 20.7236 16.9125 20.8596 17.1516L21.3004 17.9261L21.7317 17.1463C22.3687 15.9945 24.3841 12.3429 26.2401 8.97955L28.7126 4.49869L29.4989 3.07356L29.7165 2.67916L29.7735 2.5758L29.7881 2.54936L29.7918 2.54268L29.7925 2.54134L29.7927 2.541L29.7929 2.54058C30.5945 1.09524 31.5723 0.5 32.4352 0.5C33.2979 0.5 34.2736 1.095 35.0709 2.5404L35.071 2.54055L48.5575 26.9709L48.9959 27.765L49.4333 26.9704C49.6139 26.6422 49.7942 26.3153 49.9713 25.9942C50.4734 25.084 50.9502 24.2195 51.3383 23.4996C51.9035 22.4823 52.5695 22.101 53.1222 22.101C53.6755 22.101 54.343 22.4829 54.9107 23.5016C56.1292 25.7224 58.1272 29.3423 59.3546 31.5467C59.3549 31.5472 59.3552 31.5478 59.3555 31.5483L61.1561 34.8363H0.846494L3.51374 29.9969L3.51388 29.9967L13.0899 12.6463C13.8896 11.2007 14.8669 10.6054 15.7296 10.6054C16.5919 10.6054 17.5677 11.2004 18.3641 12.6456L18.3643 12.6459L18.8021 12.4043Z" fill="#C62325" stroke="white"/>
</svg>
