<svg width="34" height="36" viewBox="0 0 34 36" fill="none" xmlns="http://www.w3.org/2000/svg">
<path fill-rule="evenodd" clip-rule="evenodd" d="M13.9613 19.5C13.3518 21.6686 11.4545 23.25 9.20833 23.25C6.96219 23.25 5.06489 21.6686 4.45533 19.5H1.41765C0.634704 19.5 0 18.8342 0 18C0 17.1716 0.633915 16.5 1.41765 16.5H4.45533C5.06489 14.3314 6.96219 12.75 9.20833 12.75C11.4545 12.75 13.3518 14.3314 13.9613 16.5H32.5823C33.3653 16.5 34 17.1658 34 18C34 18.8284 33.3661 19.5 32.5823 19.5H13.9613ZM20.0387 29.25C20.6482 27.0814 22.5455 25.5 24.7917 25.5C27.0378 25.5 28.9351 27.0814 29.5447 29.25H32.5823C33.3653 29.25 34 29.9158 34 30.75C34 31.5784 33.3661 32.25 32.5823 32.25H29.5447C28.9351 34.4186 27.0378 36 24.7917 36C22.5455 36 20.6482 34.4186 20.0387 32.25H1.41765C0.634704 32.25 0 31.5842 0 30.75C0 29.9216 0.633915 29.25 1.41765 29.25H20.0387ZM20.0387 3.75C20.6482 1.58138 22.5455 0 24.7917 0C27.0378 0 28.9351 1.58138 29.5447 3.75H32.5823C33.3653 3.75 34 4.4158 34 5.25C34 6.07843 33.3661 6.75 32.5823 6.75H29.5447C28.9351 8.91862 27.0378 10.5 24.7917 10.5C22.5455 10.5 20.6482 8.91862 20.0387 6.75H1.41765C0.634704 6.75 0 6.0842 0 5.25C0 4.42157 0.633915 3.75 1.41765 3.75H20.0387ZM24.7917 7.5C25.9653 7.5 26.9167 6.49264 26.9167 5.25C26.9167 4.00736 25.9653 3 24.7917 3C23.6181 3 22.6667 4.00736 22.6667 5.25C22.6667 6.49264 23.6181 7.5 24.7917 7.5ZM24.7917 33C25.9653 33 26.9167 31.9926 26.9167 30.75C26.9167 29.5074 25.9653 28.5 24.7917 28.5C23.6181 28.5 22.6667 29.5074 22.6667 30.75C22.6667 31.9926 23.6181 33 24.7917 33ZM9.20833 15.75C8.03473 15.75 7.08333 16.7574 7.08333 18C7.08333 19.2426 8.03473 20.25 9.20833 20.25C10.3819 20.25 11.3333 19.2426 11.3333 18C11.3333 16.7574 10.3819 15.75 9.20833 15.75Z" fill="#8F1416"/>
</svg>
