<svg width="18" height="20" viewBox="0 0 18 20" fill="none" xmlns="http://www.w3.org/2000/svg">
<path d="M0.410898 3.28132C0.68464 2.99858 1.00942 2.85719 1.3844 2.85719H2.76887V1.78573C2.76887 1.29475 2.9385 0.874334 3.27741 0.524632C3.6165 0.174929 4.02376 0 4.49987 0H5.19201C5.66807 0 6.07549 0.174929 6.41443 0.524671C6.7535 0.874334 6.92297 1.29479 6.92297 1.78577V2.85723H11.0767V1.78577C11.0767 1.29479 11.2462 0.874373 11.5852 0.524671C11.9241 0.174929 12.3315 0 12.8076 0H13.4999C13.9758 0 14.3833 0.174929 14.7223 0.524671C15.0612 0.874334 15.2308 1.29479 15.2308 1.78577V2.85723H16.6153C16.9904 2.85723 17.3149 2.99862 17.5889 3.28136C17.863 3.56406 18 3.89899 18 4.28587V18.5716C18 18.9582 17.863 19.293 17.5889 19.5759C17.3149 19.8586 16.9904 20 16.6153 20H1.38466C1.00968 20 0.684867 19.8586 0.411163 19.5759C0.137079 19.2931 3.41538e-07 18.9581 3.41538e-07 18.5716V4.28583C3.82297e-05 3.89883 0.136966 3.56406 0.410898 3.28132ZM5.53816 1.78588C5.53816 1.68163 5.50599 1.59598 5.44116 1.52918C5.37633 1.46229 5.29336 1.42879 5.19224 1.42879H4.5001C4.39893 1.42879 4.31622 1.46218 4.25117 1.52918C4.18631 1.5961 4.15391 1.68175 4.15391 1.78588V5.00005C4.15391 5.10426 4.18631 5.18975 4.25117 5.25676C4.31626 5.32356 4.39893 5.35714 4.5001 5.35714H5.19224C5.29336 5.35714 5.37633 5.32372 5.44116 5.25676C5.50599 5.18972 5.53816 5.10426 5.53816 5.00005V1.78588ZM13.846 1.78588C13.846 1.68163 13.8136 1.59598 13.7487 1.52918C13.6837 1.46229 13.6009 1.42879 13.4999 1.42879H12.8076C12.7066 1.42879 12.6236 1.46218 12.5588 1.52918C12.494 1.5961 12.4614 1.68175 12.4614 1.78588V5.00005C12.4614 5.10426 12.4938 5.18987 12.5588 5.25676C12.6237 5.32356 12.7066 5.35714 12.8076 5.35714H13.4999C13.6009 5.35714 13.6839 5.32372 13.7487 5.25676C13.8134 5.18972 13.846 5.10426 13.846 5.00005V1.78588ZM1.38466 18.5714H16.6153V7.1429H1.38466V18.5714V18.5714Z" fill="#8F1416"/>
</svg>
