<svg width="19" height="19" viewBox="0 0 19 19" fill="none" xmlns="http://www.w3.org/2000/svg">
<path d="M9.5 0C4.2617 0 0 4.2617 0 9.5C0 14.7383 4.2617 19 9.5 19C14.7383 19 19 14.7383 19 9.5C19 4.2617 14.7383 0 9.5 0ZM9.5 16.9786C5.37636 16.9786 2.02124 13.6238 2.02124 9.5C2.02124 5.37616 5.37636 2.02144 9.5 2.02144C13.6236 2.02144 16.9788 5.37616 16.9788 9.5C16.9788 13.6238 13.6236 16.9786 9.5 16.9786Z" fill="#8F1416"/>
<path d="M14.4509 9.20673H10.1816V4.07344C10.1816 3.64147 9.83138 3.29123 9.3994 3.29123C8.96742 3.29123 8.61719 3.64147 8.61719 4.07344V9.98894C8.61719 10.4209 8.96742 10.7712 9.3994 10.7712H14.4509C14.8829 10.7712 15.2332 10.4209 15.2332 9.98894C15.2332 9.55697 14.8829 9.20673 14.4509 9.20673Z" fill="#8F1416"/>
</svg>
