<svg width="13" height="19" viewBox="0 0 13 19" fill="none" xmlns="http://www.w3.org/2000/svg">
<path d="M7.475 9.78788C10.5215 9.78788 13 7.59246 13 4.89394C13 2.19542 10.5215 0 7.475 0C7.4631 0 7.45127 0.000172727 7.43951 0.000575758H2.9263C2.92584 0.000575758 2.92545 0.000518182 2.92506 0.000518182C2.3866 0.000518182 1.95006 0.387197 1.95006 0.864155V0.864212V8.92424V11.5152H0.975C0.43654 11.5152 0 11.9018 0 12.3788C0 12.8557 0.43654 13.2424 0.975 13.2424H1.95V18.1364C1.95 18.6133 2.38654 19 2.925 19C3.46346 19 3.9 18.6133 3.9 18.1364V13.2424H7.475C8.01346 13.2424 8.45 12.8557 8.45 12.3788C8.45 11.9018 8.01346 11.5152 7.475 11.5152H3.9V9.78788H7.475ZM7.475 1.72785C7.48553 1.72785 7.49606 1.72768 7.50646 1.72739C9.46335 1.74236 11.05 3.15711 11.05 4.89394C11.05 6.64004 9.44625 8.06061 7.475 8.06061H3.9V1.72785H7.475Z" fill="#8F1416"/>
</svg>
