<svg width="25" height="25" viewBox="0 0 25 25" fill="none" xmlns="http://www.w3.org/2000/svg">
<path d="M6.5275 10.2225H5.41913V12.193H6.5275C6.89696 12.193 7.14327 12.0698 7.26642 11.9467C7.38957 11.8235 7.51272 11.5772 7.51272 11.3309C7.51272 10.9615 7.38957 10.7151 7.26642 10.592C7.14327 10.4688 6.77381 10.2225 6.5275 10.2225Z" fill="#841214"/>
<path d="M12.3152 10.2225H11.6995V14.656H12.4384C12.931 14.656 13.3004 14.5329 13.5468 14.1634C13.7931 13.794 13.9162 13.3014 13.9162 12.6856V12.4393C13.9162 11.8235 13.7931 11.2078 13.5468 10.9615C13.3004 10.7151 12.931 10.2225 12.3152 10.2225Z" fill="#841214"/>
<path d="M22.1675 0H2.46305C1.10837 0 0 1.10837 0 2.46305V22.2906C0 23.7685 1.23153 25 2.70936 25H22.2906C23.7685 25 25 23.7685 25 22.2906V2.70936C24.8768 1.10837 23.7685 0 22.1675 0ZM8.49754 12.931C8.00493 13.3005 7.38916 13.5468 6.52709 13.5468H5.41872V15.8867H3.69458V8.99015H6.52709C7.0197 8.99015 7.51231 9.1133 8.00492 9.23645C8.49754 9.3596 8.74384 9.72906 8.99015 10.0985C9.23645 10.468 9.3596 10.8374 9.3596 11.33C9.23645 11.9458 8.99015 12.5616 8.49754 12.931ZM15.6404 12.5616C15.6404 13.1773 15.5172 13.7931 15.2709 14.2857C15.0246 14.7783 14.6552 15.1478 14.1626 15.5172C13.6699 15.7635 13.1773 16.0099 12.5616 16.0099H10.2217V8.99015H12.4384C13.0542 8.99015 13.6699 9.1133 14.1626 9.3596C14.6552 9.60591 15.0246 9.97537 15.2709 10.5911C15.5172 11.2069 15.6404 11.6995 15.6404 12.3153V12.5616V12.5616ZM21.1823 10.2217H18.2266V11.8227H20.936V13.1773H18.2266V16.0099H16.5025V8.99015H21.1823V10.2217Z" fill="#841214"/>
</svg>
