<svg width="20" height="20" viewBox="0 0 20 20" fill="none" xmlns="http://www.w3.org/2000/svg">
<path d="M19.1229 1.00666C19.0138 0.90937 18.8737 0.851981 18.7281 0.844922C17.4497 0.78385 16.2146 1.21642 15.2509 2.0636L18.5436 4.99888C19.2645 3.93519 19.5437 2.65053 19.3298 1.38137C19.3054 1.23698 19.232 1.10379 19.1229 1.00666ZM19.1229 1.00666L19.1903 0.930877L18.6252 5.05812C18.6252 5.05811 18.6252 5.0581 18.6252 5.05808C18.6258 5.05719 18.6264 5.05629 18.627 5.0554C19.3618 3.96967 19.6462 2.66025 19.428 1.36481C19.428 1.36479 19.428 1.36478 19.428 1.36476C19.428 1.36445 19.4279 1.36415 19.4279 1.36384C19.3997 1.19706 19.3148 1.0428 19.1904 0.93093L19.1229 1.00666Z" fill="#323232" stroke="#323232"/>
<path d="M19.8878 18.3157C19.8967 18.763 19.7192 19.2137 19.4131 19.5215C19.1145 19.8219 18.6801 19.9992 18.2457 19.9992C18.2353 19.9992 18.2252 19.999 18.2148 19.9989L18.2142 19.9989M19.8878 18.3157L19.7884 18.3177C19.7965 18.7327 19.6373 19.1525 19.3438 19.4476C19.343 19.4484 19.3421 19.4493 19.3413 19.4501C19.3413 19.4501 19.3413 19.4501 19.3413 19.4501C19.0552 19.7364 18.651 19.8965 18.2457 19.8962C18.2359 19.8962 18.2261 19.8961 18.2163 19.8959L18.2142 19.9989M19.8878 18.3157C19.8799 17.9092 19.7238 17.5443 19.4467 17.2865L19.8878 18.3157ZM18.2142 19.9989L18.2157 19.8959L17.1923 19.5566C17.4471 19.8337 17.81 19.9909 18.2142 19.9989ZM18.2239 19.4989L18.2457 19.4992C18.5514 19.4992 18.8568 19.3719 19.0585 19.169L19.0586 19.1689C19.0594 19.1681 19.0602 19.1673 19.061 19.1664C19.2669 18.9579 19.3942 18.6407 19.3879 18.3256L19.3879 18.3256L19.3879 18.3255C19.3825 18.0452 19.2776 17.8144 19.1104 17.6566C19.1102 17.6564 19.11 17.6562 19.1098 17.6561L18.2239 19.4989ZM18.2239 19.4989L18.226 19.396L18.2239 19.4989M18.2239 19.4989L18.2239 19.4989M18.2239 19.4989L18.2224 19.4989M18.2239 19.4989L18.2224 19.4989M18.2224 19.4989C17.9449 19.493 17.7164 19.3871 17.5615 19.2194L17.5598 19.2175L17.5593 19.2169L11.7652 12.8201C11.8382 12.9008 11.8325 13.0247 11.7521 13.0984L11.6187 12.9528L11.6186 12.9527L11.6164 12.9503L11.6164 12.9502L11.4143 12.7298L11.6162 12.9504L11.6163 12.9504L11.6185 12.9528L11.6185 12.9529L11.7519 13.0986C11.6708 13.1728 11.5445 13.1678 11.4696 13.0878C11.4696 13.0878 11.4696 13.0878 11.4696 13.0878C11.4688 13.087 11.468 13.0862 11.4673 13.0854L11.4672 13.0853L18.2224 19.4989Z" fill="#323232" stroke="#323232"/>
<path d="M6.01024 5.39216V5.39186V5.39216ZM8.71559 9.45379L8.71544 9.45363C8.7155 9.4537 8.71557 9.45377 8.71563 9.45384L8.71559 9.45379Z" fill="#323232" stroke="#323232"/>
</svg>
