<svg width="18" height="24" viewBox="0 0 18 24" fill="none" xmlns="http://www.w3.org/2000/svg">
<path d="M8.99962 0.94043C4.40798 0.94043 0.75 4.44569 0.75 8.65819C0.75 9.7647 0.990103 10.8153 1.4618 11.7871C3.56791 16.1231 7.55436 20.7306 8.99986 22.3293C10.4451 20.7307 14.4315 16.1233 16.5383 11.7869C17.0101 10.8153 17.25 9.76481 17.25 8.65827L8.99962 0.94043ZM8.99962 0.94043C13.5915 0.94043 17.2495 4.44566 17.25 8.65819L8.99962 0.94043ZM8.99962 13.8064C6.0515 13.8064 3.57468 11.5398 3.57468 8.65796C3.57468 5.77593 6.05147 3.50931 8.99962 3.50931C11.9478 3.50931 14.4245 5.77589 14.4246 8.65788L8.99962 13.8064ZM8.99962 13.8064C11.9479 13.8064 14.4248 11.5398 14.4246 8.65796L8.99962 13.8064Z" stroke="#616161" stroke-width="1.5"/>
</svg>
