<svg width="20" height="21" viewBox="0 0 20 21" fill="none" xmlns="http://www.w3.org/2000/svg">
<path d="M5.22215 8.4281H4.33545V10.0045H5.22215C5.51771 10.0045 5.71476 9.90593 5.81328 9.80741C5.9118 9.70889 6.01033 9.51184 6.01033 9.3148C6.01033 9.01923 5.9118 8.82219 5.81328 8.72367C5.71476 8.62515 5.41919 8.4281 5.22215 8.4281Z" fill="#841214"/>
<path d="M9.85199 8.4281H9.35938V11.9749H9.95051C10.3446 11.9749 10.6402 11.8764 10.8372 11.5808C11.0343 11.2852 11.1328 10.8912 11.1328 10.3985V10.2015C11.1328 9.70889 11.0343 9.21628 10.8372 9.01923C10.6402 8.82219 10.3446 8.4281 9.85199 8.4281Z" fill="#841214"/>
<path d="M17.734 0.25H1.97044C0.886699 0.25 0 1.1367 0 2.22044V18.0825C0 19.2648 0.985221 20.25 2.16749 20.25H17.8325C19.0148 20.25 20 19.2648 20 18.0825V2.41749C19.9015 1.1367 19.0148 0.25 17.734 0.25ZM6.79803 10.5948C6.40394 10.8904 5.91133 11.0874 5.22167 11.0874H4.33498V12.9594H2.95566V7.44212H5.22167C5.61576 7.44212 6.00985 7.54064 6.40394 7.63916C6.79803 7.73768 6.99507 8.03325 7.19212 8.32882C7.38916 8.62438 7.48768 8.91995 7.48768 9.31404C7.38916 9.80665 7.19212 10.2993 6.79803 10.5948ZM12.5123 10.2993C12.5123 10.7919 12.4138 11.2845 12.2167 11.6786C12.0197 12.0727 11.7241 12.3682 11.33 12.6638C10.936 12.8608 10.5419 13.0579 10.0493 13.0579H8.17734V7.44212H9.95074C10.4433 7.44212 10.936 7.54064 11.33 7.73768C11.7241 7.93473 12.0197 8.2303 12.2167 8.72291C12.4138 9.21552 12.5123 9.60961 12.5123 10.1022V10.2993ZM16.9458 8.42734H14.5813V9.70813H16.7488V10.7919H14.5813V13.0579H13.202V7.44212H16.9458V8.42734Z" fill="#841214"/>
</svg>
