<svg width="70" height="70" viewBox="0 0 70 70" fill="none" xmlns="http://www.w3.org/2000/svg">
<rect width="70" height="70" fill="#841214"/>
<path d="M21.5376 32.2517L21.5376 32.2517L21.5441 32.2576C23.0891 33.6481 25.0973 34.312 27.4937 34.312C29.9052 34.312 31.9063 33.6402 33.41 32.2229C34.9137 30.8056 35.6454 28.935 35.6454 26.689V25.034C35.6454 22.7077 34.9211 20.7873 33.4117 19.3637C31.9067 17.9288 29.8883 17.25 27.4477 17.25C25.0334 17.25 23.0256 17.9311 21.5082 19.3623C19.9912 20.7931 19.25 22.6701 19.25 24.919V26.5511C19.25 28.897 19.9927 30.8283 21.5376 32.2517ZM28.6847 23.4419L28.6847 23.442L28.6918 23.4504C28.9838 23.7945 29.1573 24.2625 29.1573 24.919V26.2982C29.1573 27.2475 28.9679 27.8212 28.7135 28.1458C28.4865 28.4356 28.1272 28.6285 27.4937 28.6285C26.8848 28.6285 26.4905 28.4459 26.2143 28.1434C25.9139 27.7994 25.7381 27.3362 25.7381 26.689V24.965C25.7381 24.2362 25.9246 23.7613 26.2105 23.4458L26.2106 23.4459L26.2181 23.4372C26.5028 23.1134 26.8847 22.9336 27.4477 22.9336C28.0447 22.9336 28.4215 23.1223 28.6847 23.4419ZM37.4215 38.1825L37.4184 38.1854C35.897 39.6031 35.1568 41.4829 35.1568 43.7452V45.4002C35.1568 47.7462 35.8995 49.6774 37.4445 51.1009L37.4444 51.1009L37.451 51.1068C38.996 52.4973 41.0042 53.1612 43.4005 53.1612C45.8258 53.1612 47.8353 52.4902 49.3398 51.0721C50.8447 49.6537 51.5753 47.7747 51.5753 45.5152V43.9061C51.5753 41.5225 50.8454 39.5722 49.3104 38.1593C47.7915 36.7612 45.7778 36.0992 43.3546 36.0992C40.9561 36.0992 38.9523 36.7721 37.4215 38.1825ZM44.6071 42.2864L44.6071 42.2865L44.6148 42.295C44.9068 42.6172 45.0865 43.0733 45.0871 43.7418L45.0645 46.0752C45.0112 46.6343 44.8358 46.9498 44.6245 47.1348C44.4042 47.3279 44.0327 47.4776 43.4005 47.4776C42.9151 47.4776 42.517 47.3045 42.1646 46.9208C41.7953 46.5037 41.622 46.0451 41.622 45.5152V43.6453C41.6495 42.9932 41.8392 42.561 42.1238 42.2666L42.1239 42.2667L42.1323 42.2577C42.4157 41.9548 42.7967 41.7828 43.3546 41.7828C43.9382 41.7828 44.3256 41.966 44.6071 42.2864ZM28.6277 50.1159L29.2386 50.4232L29.6009 49.8433L45.9445 23.6844L46.3804 22.9867L45.6456 22.617L42.0366 20.801L41.4258 20.4937L41.0635 21.0736L24.7199 47.2326L24.284 47.9302L25.0188 48.2999L28.6277 50.1159Z" fill="#C62325" stroke="#F9F9F9" stroke-width="1.5"/>
</svg>
