<svg width="35" height="38" viewBox="0 0 35 38" fill="none" xmlns="http://www.w3.org/2000/svg">
<path d="M3.53763 16.2517L3.53759 16.2517L3.5441 16.2576C5.08911 17.6481 7.09733 18.312 9.49369 18.312C11.9052 18.312 13.9063 17.6402 15.41 16.2229C16.9137 14.8056 17.6454 12.935 17.6454 10.689V9.03395C17.6454 6.70771 16.9211 4.7873 15.4117 3.3637C13.9067 1.92878 11.8883 1.25 9.44772 1.25C7.03344 1.25 5.02563 1.93112 3.50823 3.3623C1.99122 4.79312 1.25 6.67015 1.25 8.91902V10.5511C1.25 12.897 1.99267 14.8283 3.53763 16.2517ZM10.6847 7.44192L10.6847 7.44198L10.6918 7.45038C10.9838 7.79453 11.1573 8.26247 11.1573 8.91902V10.2982C11.1573 11.2475 10.9679 11.8212 10.7135 12.1458C10.4865 12.4356 10.1272 12.6285 9.49369 12.6285C8.88479 12.6285 8.49048 12.4459 8.2143 12.1434C7.91392 11.7994 7.73813 11.3362 7.73813 10.689V8.96499C7.73813 8.2362 7.9246 7.76125 8.21049 7.4458L8.21055 7.44586L8.21812 7.43724C8.50275 7.11335 8.88471 6.93359 9.44772 6.93359C10.0447 6.93359 10.4215 7.12227 10.6847 7.44192ZM19.4215 22.1825L19.4184 22.1854C17.897 23.6031 17.1568 25.4829 17.1568 27.7452V29.4002C17.1568 31.7462 17.8995 33.6774 19.4445 35.1009L19.4444 35.1009L19.451 35.1068C20.996 36.4973 23.0042 37.1612 25.4005 37.1612C27.8258 37.1612 29.8353 36.4902 31.3398 35.0721C32.8447 33.6537 33.5753 31.7747 33.5753 29.5152V27.9061C33.5753 25.5225 32.8454 23.5722 31.3104 22.1593C29.7915 20.7612 27.7778 20.0992 25.3546 20.0992C22.9561 20.0992 20.9523 20.7721 19.4215 22.1825ZM26.6071 26.2864L26.6071 26.2865L26.6148 26.295C26.9068 26.6172 27.0865 27.0733 27.0871 27.7418L27.0645 30.0752C27.0112 30.6343 26.8358 30.9498 26.6245 31.1348C26.4042 31.3279 26.0327 31.4776 25.4005 31.4776C24.9151 31.4776 24.517 31.3045 24.1646 30.9208C23.7953 30.5037 23.622 30.0451 23.622 29.5152V27.6453C23.6495 26.9932 23.8392 26.561 24.1238 26.2666L24.1239 26.2667L24.1323 26.2577C24.4157 25.9548 24.7967 25.7828 25.3546 25.7828C25.9382 25.7828 26.3256 25.966 26.6071 26.2864ZM10.6277 34.1159L11.2386 34.4232L11.6009 33.8433L27.9445 7.68436L28.3804 6.98674L27.6456 6.61699L24.0366 4.80104L23.4258 4.49367L23.0635 5.0736L6.71986 31.2326L6.284 31.9302L7.0188 32.2999L10.6277 34.1159Z" fill="#C62325" stroke="#F9F9F9" stroke-width="1.5"/>
</svg>
