<svg width="31" height="30" viewBox="0 0 31 30" fill="none" xmlns="http://www.w3.org/2000/svg">
<g clip-path="url(#clip0)">
<path d="M25.228 19.75H7.41553C3.79678 19.75 0.853027 16.8062 0.853027 13.1875C0.853027 9.62125 3.7124 6.71125 7.25803 6.62687C8.73365 3.23312 12.1012 1 15.853 1C20.3699 1 24.1705 4.165 25.0443 8.50187C28.3218 8.43437 30.853 10.9619 30.853 14.125C30.853 17.2262 28.3293 19.75 25.228 19.75ZM7.41553 8.5C4.83178 8.5 2.72803 10.6038 2.72803 13.1875C2.72803 15.7731 4.83178 17.875 7.41553 17.875H25.228C27.2962 17.875 28.978 16.1931 28.978 14.125C28.978 12.0569 27.2962 10.375 25.228 10.375C24.9524 10.375 24.6712 10.4069 24.4255 10.4537C24.1687 10.4987 23.9005 10.4388 23.6905 10.2831C23.4805 10.1256 23.3455 9.8875 23.3212 9.62687C22.9312 5.7775 19.7212 2.875 15.853 2.875C12.6599 2.875 9.81365 4.89812 8.77115 7.9075C8.61178 8.36688 8.13178 8.63125 7.6574 8.50938C7.61428 8.5 7.49053 8.5 7.41553 8.5Z" fill="#FEFCDD"/>
<path d="M24.2905 29.1253C22.7399 29.1253 21.478 27.8634 21.478 26.3128C21.478 25.1147 22.9068 22.9172 23.5199 22.0303C23.8687 21.5241 24.7143 21.5241 25.0612 22.0303C25.6743 22.9172 27.103 25.1147 27.103 26.3128C27.103 27.8634 25.8412 29.1253 24.2905 29.1253ZM24.2905 24.3009C23.7505 25.2103 23.3605 26.0278 23.353 26.3147C23.353 26.8284 23.7749 27.2503 24.2905 27.2503C24.8062 27.2503 25.228 26.8284 25.228 26.3128C25.2187 26.0259 24.8305 25.2103 24.2905 24.3009Z" fill="#FEFCDD"/>
<path d="M15.853 29.1253C14.3024 29.1253 13.0405 27.8634 13.0405 26.3128C13.0405 25.1147 14.4674 22.9172 15.0805 22.0303C15.433 21.5241 16.2749 21.5241 16.6237 22.0303C17.2368 22.9172 18.6655 25.1147 18.6655 26.3128C18.6655 27.8634 17.4037 29.1253 15.853 29.1253ZM15.853 24.3009C15.313 25.2103 14.923 26.0278 14.9155 26.3147C14.9155 26.8284 15.3355 27.2503 15.853 27.2503C16.3687 27.2503 16.7905 26.8284 16.7905 26.3128C16.7812 26.0259 16.393 25.2103 15.853 24.3009Z" fill="#FEFCDD"/>
<path d="M7.41553 29.1253C5.8649 29.1253 4.60303 27.8634 4.60303 26.3128C4.60303 25.1147 6.0299 22.9172 6.64303 22.0303C6.99553 21.5241 7.83553 21.5241 8.18615 22.0303C8.80115 22.9172 10.228 25.1147 10.228 26.3128C10.228 27.8634 8.96615 29.1253 7.41553 29.1253ZM7.41553 24.3009C6.87553 25.2103 6.48553 26.0278 6.47803 26.3147C6.47803 26.8284 6.89803 27.2503 7.41553 27.2503C7.93115 27.2503 8.35303 26.8284 8.35303 26.3128C8.34553 26.0259 7.95553 25.2103 7.41553 24.3009Z" fill="#FEFCDD"/>
</g>
<defs>
<clipPath id="clip0">
<rect width="30" height="30" fill="white" transform="translate(0.853027)"/>
</clipPath>
</defs>
</svg>
