<svg width="31" height="30" viewBox="0 0 31 30" fill="none" xmlns="http://www.w3.org/2000/svg">
<g clip-path="url(#clip0)">
<path d="M10.3913 29.125C9.87872 29.125 9.46272 28.677 9.46272 28.125C9.46272 27.573 9.87872 27.125 10.3913 27.125C10.9039 27.125 11.3199 26.675 11.3199 26.125C11.3199 25.575 10.9039 25.125 10.3913 25.125H1.10557C0.593002 25.125 0.177002 24.677 0.177002 24.125C0.177002 23.573 0.593002 23.125 1.10557 23.125H10.3913C11.9271 23.125 13.177 24.471 13.177 26.125C13.177 27.779 11.9271 29.125 10.3913 29.125Z" fill="#FEFCDD"/>
<path d="M14.3437 22.125H1.12145C0.600113 22.125 0.177002 21.677 0.177002 21.125C0.177002 20.573 0.600113 20.125 1.12145 20.125H14.3437C14.865 20.125 15.2881 19.675 15.2881 19.125C15.2881 18.575 14.865 18.125 14.3437 18.125C13.8223 18.125 13.3992 17.677 13.3992 17.125C13.3992 16.573 13.8223 16.125 14.3437 16.125C15.9058 16.125 17.177 17.471 17.177 19.125C17.177 20.779 15.9058 22.125 14.3437 22.125Z" fill="#FEFCDD"/>
<path d="M24.552 21.625H19.8645C19.347 21.625 18.927 21.205 18.927 20.6875C18.927 20.17 19.347 19.75 19.8645 19.75H24.552C26.6201 19.75 28.302 18.0681 28.302 16C28.302 13.9319 26.6201 12.25 24.552 12.25C24.2764 12.25 23.9951 12.2819 23.7495 12.3287C23.4758 12.3756 23.1926 12.3062 22.9789 12.1281C22.7651 11.9481 22.6395 11.6856 22.6395 11.4062C22.3658 9.23125 21.2295 7.33938 19.4933 6.11688C18.2389 5.22063 16.7464 4.75 15.177 4.75C11.9839 4.75 9.13763 6.77312 8.09513 9.7825C7.93575 10.2419 7.45575 10.5063 6.98138 10.3844C6.93825 10.375 6.8145 10.375 6.7395 10.375C4.15575 10.375 2.052 12.4788 2.052 15.0625C2.052 15.6119 2.14388 16.1294 2.32575 16.5981C2.51325 17.08 2.27325 17.6238 1.7895 17.8094C1.3095 17.9969 0.763877 17.7588 0.576377 17.275C0.312002 16.5888 0.177002 15.8444 0.177002 15.0625C0.177002 11.4963 3.03638 8.58625 6.582 8.50187C8.05763 5.10812 11.4251 2.875 15.177 2.875C17.1401 2.875 19.0058 3.46562 20.577 4.58687C22.5476 5.97062 23.8976 8.05562 24.3589 10.3787C27.627 10.2681 30.177 12.835 30.177 16C30.177 19.1012 27.6533 21.625 24.552 21.625Z" fill="#FEFCDD"/>
<path d="M24.552 12.25C24.1245 12.25 23.712 12.2031 23.3257 12.1131C22.8195 11.995 22.5082 11.4887 22.6282 10.9844C22.7445 10.4819 23.2489 10.1706 23.7551 10.2869C24.0007 10.345 24.2707 10.375 24.552 10.375C26.6201 10.375 28.302 8.69313 28.302 6.625C28.302 4.55687 26.6201 2.875 24.552 2.875C22.8814 2.875 21.3926 3.99813 20.9332 5.60687C20.7907 6.10375 20.2751 6.38688 19.7745 6.25188C19.2776 6.10938 18.9889 5.59 19.1314 5.09313C19.8195 2.68188 22.0489 1 24.552 1C27.6532 1 30.177 3.52375 30.177 6.625C30.177 9.72625 27.6532 12.25 24.552 12.25Z" fill="#FEFCDD"/>
</g>
<defs>
<clipPath id="clip0">
<rect width="30" height="30" fill="white" transform="translate(0.177002)"/>
</clipPath>
</defs>
</svg>
