<svg width="21" height="25" viewBox="0 0 21 25" fill="none" xmlns="http://www.w3.org/2000/svg">
<path d="M19.6034 17.2262L13.2209 23.6087C12.8527 23.9769 12.4667 24.0499 12.2124 24.0518C11.6161 24.0424 11.1968 23.6338 11.0813 23.4969L4.45822 16.8739L3.64779 16.7252L2.32015 15.3975L2.31136 15.1539C2.30111 14.9623 2.30544 14.8065 2.31958 14.6712L1.77439 14.126L1.73011 14.039C1.6365 13.8601 1.35208 13.2661 1.30304 12.7902C1.17035 12.3373 0.488578 9.7984 0.24007 5.85703C0.186994 5.52645 0.166945 4.94074 0.514684 4.56271L0.53603 4.54136L0.557376 4.52002C0.940739 4.16694 1.52112 4.19233 1.85703 4.24007C5.7984 4.48857 8.33194 5.17569 8.79016 5.30304C9.26612 5.35208 9.86006 5.6365 10.039 5.73011L10.126 5.77438L10.6712 6.31957C10.8065 6.30544 10.9623 6.30111 11.1539 6.31135L11.3975 6.32015L12.7252 7.64779L12.8739 8.45821L19.4969 15.0813C19.6285 15.2021 20.0424 15.6161 20.0518 16.2124C20.0446 16.4721 19.9716 16.858 19.6034 17.2262ZM12.2856 22.7267C12.2909 22.7214 12.3016 22.7107 12.3123 22.7L18.6947 16.3176C18.7054 16.3069 18.7161 16.2962 18.7214 16.2909C18.7071 16.2446 18.6424 16.1478 18.5818 16.0873L18.5616 16.0671L18.5515 16.057L11.6407 9.14619L11.492 8.33576L10.7853 7.62904C10.7749 7.62932 10.7749 7.62932 10.7645 7.62961L10.4123 7.98182L9.30175 6.87125C9.02006 6.73899 8.68617 6.61856 8.57728 6.6164L8.48915 6.61366L8.41199 6.58986C8.38617 6.58539 5.79797 5.8116 1.6753 5.55256L1.61328 5.5439C1.59251 5.54448 1.57203 5.53467 1.55126 5.53525C1.55574 5.56107 1.55516 5.58184 1.55992 5.59727L1.56857 5.65929C1.8116 9.79797 2.58006 12.3915 2.58986 12.412L2.61366 12.4892L2.6164 12.5773C2.61828 12.6966 2.7488 13.0405 2.87126 13.3017L3.98183 14.4123L3.62962 14.7645C3.62933 14.7749 3.62933 14.7749 3.62904 14.7853L4.33577 15.492L5.14619 15.6407L12.0873 22.5818C12.1425 22.6477 12.2342 22.7074 12.2856 22.7267Z" fill="#841214"/>
<path d="M5.7157 9.71745C7.63742 7.77554 9.17044 8.05982 9.17044 8.05982L16.5456 15.435C16.5456 15.435 17.0339 15.9766 16.4415 16.569C15.8492 17.1613 14.419 18.5915 14.419 18.5915C14.419 18.5915 13.1596 19.8509 12.5672 20.4433C11.9748 21.0356 11.4333 20.5474 11.4333 20.5474L4.05806 13.1722C4.05806 13.1722 3.77378 11.6392 5.7157 9.71745Z" fill="#841214"/>
</svg>
