<svg width="24" height="30" viewBox="0 0 24 30" fill="none" xmlns="http://www.w3.org/2000/svg">
<path d="M8.47029 5.45455C10.0296 5.45455 11.2937 4.2335 11.2937 2.72727C11.2937 1.22104 10.0296 0 8.47029 0C6.91095 0 5.64685 1.22104 5.64685 2.72727C5.64685 4.2335 6.91095 5.45455 8.47029 5.45455Z" fill="#841214"/>
<path d="M23.7143 24.8203L19.2231 18.3258C18.9611 17.8321 18.4371 17.4903 17.8383 17.4903H11.326V15.3255H16.6032C17.464 15.3255 18.1751 14.6038 18.1751 13.7303C18.1751 12.8568 17.464 12.1732 16.6032 12.1732H11.326V9.0209C11.326 7.80556 10.3903 6.8181 9.19266 6.8181C7.995 6.8181 7.05933 7.80556 7.05933 9.0209V19.0474C7.05933 19.9209 7.73301 20.6046 8.59383 20.6046H17.0523L21.2067 26.6053C21.6932 27.3269 22.6663 27.4788 23.3775 26.9851C24.0511 26.5293 24.2009 25.5419 23.7143 24.8203Z" fill="#841214"/>
<path d="M9.64277 27.4845C5.75455 27.4845 2.56622 24.3584 2.56622 20.5461C2.56622 18.4493 3.49939 16.5813 5.01579 15.3232V12.2734C2.06075 13.8746 0 17.0007 0 20.5842C0 25.769 4.31592 30.0007 9.64277 30.0007C13.4921 30.0007 16.7971 27.7895 18.3524 24.6253L16.5249 22.1092C15.825 25.159 12.9866 27.4845 9.64277 27.4845Z" fill="#841214"/>
</svg>
