<svg width="20" height="20" viewBox="0 0 20 20" fill="none" xmlns="http://www.w3.org/2000/svg">
<path d="M5.22203 8.17811H4.33533V9.75446H5.22203C5.51759 9.75446 5.71464 9.65594 5.81316 9.55742C5.91168 9.4589 6.0102 9.26185 6.0102 9.06481C6.0102 8.76924 5.91168 8.5722 5.81316 8.47367C5.71464 8.37515 5.41907 8.17811 5.22203 8.17811Z" fill="#616161"/>
<path d="M9.85223 8.17811H9.35962V11.7249H9.95075C10.3448 11.7249 10.6404 11.6264 10.8375 11.3308C11.0345 11.0353 11.133 10.6412 11.133 10.1486V9.95151C11.133 9.4589 11.0345 8.96629 10.8375 8.76924C10.6404 8.5722 10.3448 8.17811 9.85223 8.17811Z" fill="#616161"/>
<path d="M17.734 0H1.97044C0.886699 0 0 0.886699 0 1.97044V17.8325C0 19.0148 0.985221 20 2.16749 20H17.8325C19.0148 20 20 19.0148 20 17.8325V2.16749C19.9015 0.886699 19.0148 0 17.734 0ZM6.79803 10.3448C6.40394 10.6404 5.91133 10.8374 5.22167 10.8374H4.33498V12.7094H2.95566V7.19212H5.22167C5.61576 7.19212 6.00985 7.29064 6.40394 7.38916C6.79803 7.48768 6.99507 7.78325 7.19212 8.07882C7.38916 8.37438 7.48768 8.66995 7.48768 9.06404C7.38916 9.55665 7.19212 10.0493 6.79803 10.3448ZM12.5123 10.0493C12.5123 10.5419 12.4138 11.0345 12.2167 11.4286C12.0197 11.8227 11.7241 12.1182 11.33 12.4138C10.936 12.6108 10.5419 12.8079 10.0493 12.8079H8.17734V7.19212H9.95074C10.4433 7.19212 10.936 7.29064 11.33 7.48768C11.7241 7.68473 12.0197 7.9803 12.2167 8.47291C12.4138 8.96552 12.5123 9.35961 12.5123 9.85222V10.0493ZM16.9458 8.17734H14.5813V9.45813H16.7488V10.5419H14.5813V12.8079H13.202V7.19212H16.9458V8.17734Z" fill="#616161"/>
</svg>
