<svg width="20" height="20" viewBox="0 0 20 20" fill="none" xmlns="http://www.w3.org/2000/svg">
<path d="M0 0.861345V7.12185C0 7.58403 0.378947 7.96218 0.842105 7.96218C1.30526 7.96218 1.68421 7.58403 1.68421 7.12185V2.85714L17.1579 18.3193H12.8842C12.4211 18.3193 12.0421 18.6975 12.0421 19.1597C12.0421 19.6218 12.4211 20 12.8842 20H19.1579C19.6211 20 20 19.6218 20 19.1597V12.8782C20 12.6471 19.9158 12.437 19.7474 12.2899C19.6 12.1429 19.3895 12.0378 19.1579 12.0378C18.6947 12.0378 18.3158 12.416 18.3158 12.8782V17.1429L2.84211 1.68067H7.09474C7.5579 1.68067 7.93684 1.30252 7.93684 0.840336C7.93684 0.609244 7.85263 0.39916 7.68421 0.252101C7.53684 0.105042 7.32632 0 7.09474 0H0.842105C0.378947 0.0210084 0 0.39916 0 0.861345Z" fill="#841214"/>
</svg>
