<svg width="21" height="21" viewBox="0 0 21 21" fill="none" xmlns="http://www.w3.org/2000/svg">
<path d="M9.57619 1.22915C9.9172 0.406283 11.0828 0.406283 11.4238 1.22915L13.5642 6.39385C13.7081 6.74112 14.0346 6.97834 14.4094 7.00791L19.9827 7.44754C20.8707 7.51758 21.2308 8.62612 20.5536 9.20473L16.3031 12.8363C16.0173 13.0805 15.8926 13.4643 15.9803 13.8299L17.2844 19.2663C17.4922 20.1324 16.5492 20.8176 15.7897 20.3523L11.0223 17.432C10.7018 17.2357 10.2982 17.2357 9.97765 17.432L5.21033 20.3523C4.45077 20.8176 3.50778 20.1324 3.71557 19.2663L5.01971 13.8299C5.1074 13.4643 4.98268 13.0805 4.69688 12.8363L0.44637 9.20473C-0.230845 8.62612 0.129342 7.51758 1.01732 7.44754L6.59065 7.00791C6.96539 6.97834 7.2919 6.74112 7.43582 6.39385L9.57619 1.22915Z" fill="#FFCF55"/>
</svg>
