<svg width="32" height="32" viewBox="0 0 32 32" fill="none" xmlns="http://www.w3.org/2000/svg">
<path d="M9.21649 30.028C9.86418 30.6757 10.7155 31 11.5666 31C12.4176 31 13.2686 30.6757 13.9167 30.028L21.9723 21.972L30.028 13.9167C31.324 12.6206 31.324 10.5125 30.028 9.21649L21.9576 1.14651C21.7623 0.951165 21.446 0.951165 21.2506 1.14651L18.2412 4.15629C18.0542 3.80861 17.7972 3.49926 17.4768 3.24159C16.4014 2.37689 14.8387 2.37322 13.7603 3.23225C13.0913 3.76494 12.6803 4.55664 12.6323 5.40434C12.584 6.25404 12.901 7.0854 13.501 7.68643C13.7083 7.8931 13.9417 8.06677 14.1947 8.20245L11.1842 11.2132L7.64976 14.7474C7.51942 14.8777 7.47142 15.0687 7.52442 15.2451C7.57742 15.4214 7.72343 15.5544 7.90377 15.5907C8.35512 15.6824 8.75013 15.9251 9.04581 16.2921C9.61983 17.0055 9.62217 18.0428 9.05215 18.7585C8.6918 19.2115 8.17778 19.4789 7.60576 19.5112C7.04473 19.5426 6.48771 19.3329 6.08836 18.9335C5.81435 18.6595 5.62968 18.3165 5.55368 17.9415C5.51734 17.7612 5.38434 17.6151 5.208 17.5618C5.03166 17.5088 4.84032 17.5568 4.71031 17.6871L1.14651 21.2506C0.951165 21.446 0.951165 21.7623 1.14651 21.9576L9.21649 30.028ZM15.5797 7.8591C15.5264 7.68276 15.3804 7.54975 15.2001 7.51309C14.825 7.43708 14.482 7.25274 14.2077 6.97873C13.8087 6.57938 13.598 6.02636 13.6303 5.46067C13.6627 4.88865 13.9297 4.37496 14.383 4.01462C15.0984 3.44426 16.1358 3.44626 16.8495 4.02095C17.2168 4.31663 17.4591 4.71131 17.5508 5.163C17.5871 5.34334 17.7201 5.48934 17.8965 5.54234C18.0728 5.59568 18.2642 5.54734 18.3942 5.417L21.6036 2.20721L29.3209 9.92385C29.7596 10.3625 30.0013 10.9459 30.0013 11.5666C30.0013 12.1873 29.7596 12.7706 29.3209 13.2096L21.5453 20.9849L18.8075 18.2468C19.0922 18.1082 19.3539 17.9215 19.5819 17.6935C20.1656 17.1098 20.4736 16.3014 20.4266 15.4761C20.3799 14.6517 19.9802 13.8823 19.3299 13.3643C18.2815 12.5289 16.7621 12.5326 15.7177 13.3736C15.3757 13.6487 15.1074 13.9837 14.923 14.363L12.1856 11.6256L15.4544 8.35679C15.5847 8.22678 15.6327 8.03511 15.5797 7.8591ZM4.86465 18.9472C5.00032 19.2002 5.174 19.4339 5.381 19.6409C5.98169 20.2416 6.81739 20.5599 7.66209 20.5099C8.51013 20.4619 9.30182 20.0509 9.83484 19.3819C10.6939 18.3032 10.6899 16.7401 9.82551 15.6654C9.56783 15.3451 9.25849 15.0877 8.91081 14.901L11.5972 12.2146L14.807 15.4244C14.9157 15.5334 15.0757 15.5727 15.2217 15.5287C15.3687 15.4844 15.4794 15.3631 15.5097 15.2127C15.6054 14.7417 15.8581 14.3304 16.2404 14.0227C16.9841 13.4246 18.0648 13.4216 18.8115 14.0157C19.2832 14.3914 19.5616 14.9264 19.5952 15.5227C19.6289 16.1118 19.4092 16.6878 18.9932 17.1038C18.7079 17.3888 18.3502 17.5818 17.9588 17.6608C17.8085 17.6915 17.6871 17.8022 17.6428 17.9488C17.5981 18.0958 17.6381 18.2555 17.7472 18.3638L20.9566 21.5736L13.2096 29.3209C12.771 29.7596 12.1876 30.0013 11.5666 30.0013C10.9456 30.0013 10.3625 29.7596 9.92351 29.3209L2.20721 21.6043L4.86465 18.9472Z" fill="#841214" stroke="#841214" stroke-width="0.5"/>
</svg>
