<svg width="24" height="13" viewBox="0 0 24 13" fill="none" xmlns="http://www.w3.org/2000/svg">
<path d="M20.9463 -1.3348e-07L19.9235 -1.7819e-07L19.9235 3.76045L20.9463 3.76045L20.9463 -1.3348e-07ZM18.7171 1.57694L18.7171 3.76045L17.6943 3.76045L17.6943 1.57694L18.7171 1.57694ZM15.4651 3.76045L15.4651 -3.73072e-07L16.4879 -3.28366e-07L16.4879 3.76045L15.4651 3.76045ZM14.2581 1.57694L14.2581 3.76045L13.2353 3.76045L13.2353 1.57694L14.2581 1.57694ZM11.0061 3.76045L11.0061 -5.67982e-07L12.0289 -5.23272e-07L12.0289 3.76045L11.0061 3.76045ZM5.17806 3.17427C2.32285 3.17427 3.33161e-07 5.37816 2.14748e-07 8.08714C9.6335e-08 10.7961 2.32285 13 5.17806 13C7.02832 13 8.70988 12.0781 9.64011 10.5739L21.379 10.5739C22.8243 10.5738 24 9.45835 24 8.08714C24 6.71593 22.8243 5.60035 21.379 5.60035L9.64003 5.60035C8.71084 4.09619 7.0288 3.17427 5.17806 3.17427ZM5.17806 4.14474C6.74806 4.14474 8.16727 4.97251 8.88065 6.30544L9.02285 6.57082L21.3785 6.57082C22.2602 6.57082 22.9767 7.25106 22.9767 8.08714C22.9767 8.92314 22.2602 9.60346 21.3785 9.60346L9.02285 9.60346L8.88065 9.86883C8.16671 11.2018 6.74758 12.0295 5.17806 12.0295C2.88696 12.0295 1.02285 10.2609 1.02285 8.08714C1.02285 5.91337 2.88696 4.14474 5.17806 4.14474ZM5.17806 4.9531C3.35692 4.9531 1.87533 6.35882 1.87533 8.08714C1.87533 9.815 3.35692 11.2207 5.17806 11.2207C6.67087 11.2207 7.98162 10.2638 8.36564 8.89362L8.41625 8.71363L11.4004 8.71363L11.4004 7.46027L8.41681 7.46027L8.36564 7.28028C7.98162 5.90945 6.67032 4.9531 5.17806 4.9531ZM7.37964 7.93183C7.72945 8.00658 7.95958 8.34036 7.87778 8.68056C7.59449 9.86838 6.49955 10.6981 5.21482 10.6981C4.85125 10.6981 4.55507 10.4172 4.55507 10.0722C4.55507 9.72712 4.85117 9.44619 5.21482 9.44619C5.86789 9.44619 6.44679 9.00852 6.5905 8.40446C6.67191 8.06871 7.02577 7.85618 7.37964 7.93183Z" fill="#8F1416"/>
</svg>
