<svg width="20" height="20" viewBox="0 0 20 20" fill="none" xmlns="http://www.w3.org/2000/svg">
<path d="M19 0.25H1C0.734784 0.25 0.48043 0.360712 0.292893 0.55778C0.105357 0.754849 0 1.02213 0 1.30083V12.8599C0 13.1386 0.105357 13.4059 0.292893 13.603C0.48043 13.8 0.734784 13.9107 1 13.9107H5V19.25L11.352 13.9107H19C19.2652 13.9107 19.5196 13.8 19.7071 13.603C19.8946 13.4059 20 13.1386 20 12.8599V1.30083C20 1.02213 19.8946 0.754849 19.7071 0.55778C19.5196 0.360712 19.2652 0.25 19 0.25Z" fill="#841214"/>
</svg>
