<svg width="14" height="21" viewBox="0 0 14 21" fill="none" xmlns="http://www.w3.org/2000/svg">
<path d="M8.05 10.553C11.3308 10.553 14 8.24206 14 5.40152C14 2.56097 11.3308 0.25 8.05 0.25C8.03719 0.25 8.02445 0.250182 8.01178 0.250606H3.1514C3.15091 0.250606 3.15049 0.250545 3.15007 0.250545C2.57019 0.250545 2.10007 0.657576 2.10007 1.15964V1.1597V9.64394V12.3712H1.05C0.47012 12.3712 0 12.7782 0 13.2803C0 13.7824 0.47012 14.1894 1.05 14.1894H2.1V19.3409C2.1 19.843 2.57012 20.25 3.15 20.25C3.72988 20.25 4.2 19.843 4.2 19.3409V14.1894H8.05C8.62988 14.1894 9.1 13.7824 9.1 13.2803C9.1 12.7782 8.62988 12.3712 8.05 12.3712H4.2V10.553H8.05ZM8.05 2.06879C8.06134 2.06879 8.07268 2.06861 8.08388 2.0683C10.1913 2.08406 11.9 3.57327 11.9 5.40152C11.9 7.23952 10.1729 8.73485 8.05 8.73485H4.2V2.06879H8.05Z" fill="#841214"/>
</svg>
