<svg width="25" height="25" viewBox="0 0 25 25" fill="none" xmlns="http://www.w3.org/2000/svg">
<path d="M12.5 18.7494C12.7195 18.7555 12.9377 18.7165 13.1394 18.6354C13.3411 18.5542 13.5213 18.4328 13.6676 18.2796L22.0158 10.4674C22.1693 10.3239 22.2911 10.1536 22.3741 9.96614C22.4572 9.77865 22.5 9.57767 22.5 9.37469C22.5 9.17172 22.4572 8.97074 22.3741 8.78325C22.2911 8.59576 22.1693 8.42544 22.0158 8.28203V8.28203C21.8625 8.13839 21.6805 8.02443 21.4802 7.94668C21.2798 7.86893 21.0651 7.82891 20.8482 7.82891C20.6313 7.82891 20.4165 7.86893 20.2162 7.94668C20.0158 8.02443 19.8338 8.13839 19.6806 8.28203L14.1696 13.4365V1.54661C14.1696 1.13643 13.9955 0.743039 13.6856 0.452992C13.3756 0.162946 12.9552 0 12.5169 0H12.4831C12.266 0 12.0511 0.0400043 11.8506 0.117729C11.6501 0.195453 11.4679 0.309376 11.3144 0.452992C11.161 0.596609 11.0392 0.767106 10.9562 0.95475C10.8731 1.14239 10.8304 1.34351 10.8304 1.54661V13.4365L5.31944 8.27676C5.1662 8.13311 4.9842 8.01916 4.78384 7.9414C4.58349 7.86365 4.36872 7.82363 4.15183 7.82363C3.93493 7.82363 3.72016 7.86365 3.51981 7.9414C3.31946 8.01916 3.13745 8.13311 2.98421 8.27676V8.27676C2.83071 8.42016 2.70894 8.59048 2.62585 8.77797C2.54277 8.96546 2.5 9.16644 2.5 9.36941C2.5 9.57239 2.54277 9.77337 2.62585 9.96086C2.70894 10.1483 2.83071 10.3187 2.98421 10.4621L11.3324 18.2743C11.4781 18.4285 11.6582 18.5509 11.8599 18.633C12.0616 18.7151 12.2801 18.7548 12.5 18.7494V18.7494Z" fill="#323232"/>
<path d="M21.875 22H3.13556V18.9848C3.13556 18.591 2.97261 18.2133 2.68255 17.9349C2.39249 17.6564 1.99909 17.5 1.58889 17.5H1.54666C1.13646 17.5 0.743063 17.6564 0.453007 17.9349C0.162952 18.2133 0 18.591 0 18.9848V23.5C0 23.8978 0.16462 24.2794 0.457646 24.5607C0.750671 24.842 1.1481 25 1.5625 25H23.4375C23.8519 25 24.2493 24.842 24.5424 24.5607C24.8354 24.2794 25 23.8978 25 23.5V18.9848C25 18.591 24.837 18.2133 24.547 17.9349C24.2569 17.6564 23.8635 17.5 23.4533 17.5H23.4217C23.0115 17.5 22.6181 17.6564 22.328 17.9349C22.038 18.2133 21.875 18.591 21.875 18.9848V22Z" fill="#323232"/>
</svg>
