<svg width="58" height="58" viewBox="0 0 58 58" fill="none" xmlns="http://www.w3.org/2000/svg">
<g filter="url(#filter0_d)">
<mask id="mask0" mask-type="alpha" maskUnits="userSpaceOnUse" x="9" y="8" width="39" height="39">
<rect x="28" y="46" width="26.8701" height="26.8701" transform="rotate(-135 28 46)" fill="white"/>
</mask>
<g mask="url(#mask0)">
<rect x="28" y="46" width="26.8701" height="26.8701" transform="rotate(-135 28 46)" fill="white"/>
<path d="M22.6617 26.6027C22.4664 26.798 22.4664 27.1146 22.6617 27.3098L25.8437 30.4918C26.0389 30.6871 26.3555 30.6871 26.5508 30.4918C26.746 30.2965 26.746 29.98 26.5508 29.7847L23.7223 26.9563L26.5508 24.1278C26.746 23.9326 26.746 23.616 26.5508 23.4207C26.3555 23.2255 26.0389 23.2255 25.8437 23.4207L22.6617 26.6027ZM32.8965 26.4563H23.0152V27.4563H32.8965V26.4563Z" fill="#8F1416"/>
</g>
</g>
<defs>
<filter id="filter0_d" x="0" y="0" width="58" height="58" filterUnits="userSpaceOnUse" color-interpolation-filters="sRGB">
<feFlood flood-opacity="0" result="BackgroundImageFix"/>
<feColorMatrix in="SourceAlpha" type="matrix" values="0 0 0 0 0 0 0 0 0 0 0 0 0 0 0 0 0 0 127 0"/>
<feOffset dx="1" dy="2"/>
<feGaussianBlur stdDeviation="5"/>
<feColorMatrix type="matrix" values="0 0 0 0 0.209607 0 0 0 0 0.16018 0 0 0 0 0.166245 0 0 0 0.2 0"/>
<feBlend mode="normal" in2="BackgroundImageFix" result="effect1_dropShadow"/>
<feBlend mode="normal" in="SourceGraphic" in2="effect1_dropShadow" result="shape"/>
</filter>
</defs>
</svg>
