<svg width="30" height="23" viewBox="0 0 30 23" fill="none" xmlns="http://www.w3.org/2000/svg">
<path d="M24.2632 8.84575C24.6615 8.84575 24.9843 8.51608 24.9843 8.1094C24.9843 7.70272 24.6615 7.37305 24.2632 7.37305C23.8649 7.37305 23.542 7.70272 23.542 8.1094C23.542 8.51608 23.8649 8.84575 24.2632 8.84575Z" fill="#8F1416"/>
<path d="M19.6316 8.84575C20.0299 8.84575 20.3527 8.51608 20.3527 8.1094C20.3527 7.70272 20.0299 7.37305 19.6316 7.37305C19.2333 7.37305 18.9104 7.70272 18.9104 8.1094C18.9104 8.51608 19.2333 8.84575 19.6316 8.84575Z" fill="#8F1416"/>
<path d="M15 8.84575C15.3983 8.84575 15.7211 8.51608 15.7211 8.1094C15.7211 7.70272 15.3983 7.37305 15 7.37305C14.6017 7.37305 14.2788 7.70272 14.2788 8.1094C14.2788 8.51608 14.6017 8.84575 15 8.84575Z" fill="#8F1416"/>
<path d="M10.3686 8.84575C10.7669 8.84575 11.0898 8.51608 11.0898 8.1094C11.0898 7.70272 10.7669 7.37305 10.3686 7.37305C9.97034 7.37305 9.64746 7.70272 9.64746 8.1094C9.64746 8.51608 9.97034 8.84575 10.3686 8.84575Z" fill="#8F1416"/>
<path d="M5.73704 8.84575C6.13533 8.84575 6.45821 8.51608 6.45821 8.1094C6.45821 7.70272 6.13533 7.37305 5.73704 7.37305C5.33875 7.37305 5.01587 7.70272 5.01587 8.1094C5.01587 8.51608 5.33875 8.84575 5.73704 8.84575Z" fill="#8F1416"/>
<path d="M24.2632 13.5752C24.6615 13.5752 24.9843 13.2456 24.9843 12.8389C24.9843 12.4322 24.6615 12.1025 24.2632 12.1025C23.8649 12.1025 23.542 12.4322 23.542 12.8389C23.542 13.2456 23.8649 13.5752 24.2632 13.5752Z" fill="#8F1416"/>
<path d="M19.6316 13.5752C20.0299 13.5752 20.3527 13.2456 20.3527 12.8389C20.3527 12.4322 20.0299 12.1025 19.6316 12.1025C19.2333 12.1025 18.9104 12.4322 18.9104 12.8389C18.9104 13.2456 19.2333 13.5752 19.6316 13.5752Z" fill="#8F1416"/>
<path d="M15 13.5752C15.3983 13.5752 15.7211 13.2456 15.7211 12.8389C15.7211 12.4322 15.3983 12.1025 15 12.1025C14.6017 12.1025 14.2788 12.4322 14.2788 12.8389C14.2788 13.2456 14.6017 13.5752 15 13.5752Z" fill="#8F1416"/>
<path d="M5.73704 13.5752C6.13533 13.5752 6.45821 13.2456 6.45821 12.8389C6.45821 12.4322 6.13533 12.1025 5.73704 12.1025C5.33875 12.1025 5.01587 12.4322 5.01587 12.8389C5.01587 13.2456 5.33875 13.5752 5.73704 13.5752Z" fill="#8F1416"/>
<path d="M24.2632 18.3038C24.6615 18.3038 24.9843 17.9741 24.9843 17.5674C24.9843 17.1607 24.6615 16.8311 24.2632 16.8311C23.8649 16.8311 23.542 17.1607 23.542 17.5674C23.542 17.9741 23.8649 18.3038 24.2632 18.3038Z" fill="#8F1416"/>
<path d="M19.6316 18.3038C20.0299 18.3038 20.3527 17.9741 20.3527 17.5674C20.3527 17.1607 20.0299 16.8311 19.6316 16.8311C19.2333 16.8311 18.9104 17.1607 18.9104 17.5674C18.9104 17.9741 19.2333 18.3038 19.6316 18.3038Z" fill="#8F1416"/>
<path d="M15 18.3038C15.3983 18.3038 15.7211 17.9741 15.7211 17.5674C15.7211 17.1607 15.3983 16.8311 15 16.8311C14.6017 16.8311 14.2788 17.1607 14.2788 17.5674C14.2788 17.9741 14.6017 18.3038 15 18.3038Z" fill="#8F1416"/>
<path d="M10.3686 18.3038C10.7669 18.3038 11.0898 17.9741 11.0898 17.5674C11.0898 17.1607 10.7669 16.8311 10.3686 16.8311C9.97034 16.8311 9.64746 17.1607 9.64746 17.5674C9.64746 17.9741 9.97034 18.3038 10.3686 18.3038Z" fill="#8F1416"/>
<path d="M5.73704 18.3038C6.13533 18.3038 6.45821 17.9741 6.45821 17.5674C6.45821 17.1607 6.13533 16.8311 5.73704 16.8311C5.33875 16.8311 5.01587 17.1607 5.01587 17.5674C5.01587 17.9741 5.33875 18.3038 5.73704 18.3038Z" fill="#8F1416"/>
<path d="M12.5449 9.9834H8.19194C7.84952 9.9834 7.57202 10.2667 7.57202 10.6164V15.061C7.57202 15.4106 7.84952 15.694 8.19194 15.694H12.5449C12.8873 15.694 13.1648 15.4106 13.1648 15.061V10.6165C13.1648 10.2668 12.8872 9.9834 12.5449 9.9834ZM11.9249 14.428H8.81186V11.2494H11.9249V14.428H11.9249Z" fill="#8F1416"/>
<path d="M27.9335 1.51572H23.3803V0.703328C23.3803 0.31487 23.0719 0 22.6914 0C22.3111 0 22.0026 0.31493 22.0026 0.703328V1.51572H18.2526V0.703328C18.2526 0.31487 17.9441 0 17.5637 0C17.1833 0 16.8749 0.31493 16.8749 0.703328V1.51572H13.125V0.703328C13.125 0.31487 12.8166 0 12.4361 0C12.0557 0 11.7473 0.31493 11.7473 0.703328V1.51572H7.99727V0.703328C7.99727 0.31487 7.68889 0 7.30844 0C6.92799 0 6.61962 0.31493 6.61962 0.703328V1.51572H2.0663C0.92701 1.51572 0 2.46219 0 3.62558V20.8901C0 22.0535 0.92701 23 2.06642 23H27.9336C29.073 23 30 22.0535 30 20.8901V3.62558C29.9999 2.46219 29.0729 1.51572 27.9335 1.51572ZM27.9335 21.5935H2.06642C1.68662 21.5935 1.3776 21.2779 1.3776 20.8901V3.62558C1.3776 3.23778 1.68662 2.92226 2.06642 2.92226H6.61967V3.73459C6.61967 4.12293 6.92805 4.43792 7.3085 4.43792C7.68895 4.43792 7.99733 4.12299 7.99733 3.73459V2.92226H11.7474V3.73459C11.7474 4.12293 12.0558 4.43792 12.4362 4.43792C12.8167 4.43792 13.125 4.12299 13.125 3.73459V2.92226H16.875V3.73459C16.875 4.12293 17.1833 4.43792 17.5638 4.43792C17.9441 4.43792 18.2526 4.12299 18.2526 3.73459V2.92226H22.0027V3.73459C22.0027 4.12293 22.3111 4.43792 22.6915 4.43792C23.0719 4.43792 23.3803 4.12299 23.3803 3.73459V2.92226H27.9336C28.3134 2.92226 28.6224 3.23778 28.6224 3.62558V20.8901H28.6225C28.6223 21.2779 28.3133 21.5935 27.9335 21.5935Z" fill="#8F1416"/>
</svg>
