<svg width="20" height="20" viewBox="0 0 20 20" fill="none" xmlns="http://www.w3.org/2000/svg">
<path d="M10 0C4.486 0 0 4.486 0 10C0 15.514 4.486 20 10 20C15.514 20 20 15.514 20 10C20 4.486 15.514 0 10 0ZM10 17.8722C5.65933 17.8722 2.12762 14.3409 2.12762 10C2.12762 5.65912 5.65933 2.12783 10 2.12783C14.3407 2.12783 17.8724 5.65912 17.8724 10C17.8724 14.3409 14.3407 17.8722 10 17.8722Z" fill="#841214"/>
<path d="M15.2116 9.69169H10.7176V4.28823C10.7176 3.83351 10.3489 3.46484 9.89418 3.46484C9.43947 3.46484 9.0708 3.83351 9.0708 4.28823V10.5151C9.0708 10.9698 9.43947 11.3385 9.89418 11.3385H15.2116C15.6663 11.3385 16.035 10.9698 16.035 10.5151C16.035 10.0604 15.6663 9.69169 15.2116 9.69169Z" fill="#841214"/>
</svg>
