<svg width="19" height="19" viewBox="0 0 19 19" fill="none" xmlns="http://www.w3.org/2000/svg">
<path d="M16.2175 2.78249C18.0119 4.57682 19 6.96248 19 9.50005C19 12.0376 18.0118 14.4232 16.2175 16.2175C14.4232 18.0118 12.0376 19 9.50002 19C6.96248 19 4.57682 18.0118 2.78249 16.2175C0.988167 14.4232 0 12.0376 0 9.50005C0 6.96252 0.988095 4.57682 2.78246 2.78249C4.57682 0.988167 6.96248 0 9.50002 0C12.0376 0 14.4232 0.988167 16.2175 2.78249ZM15.3778 15.3779C16.5479 14.2078 17.3258 12.7504 17.6466 11.1648C17.3966 11.5328 17.1574 11.6694 17.0094 10.8455C16.8569 9.50237 15.6232 10.3604 14.8474 9.88327C14.0309 10.4336 12.1958 8.81338 12.5077 10.6408C12.9888 11.465 15.1055 9.53767 14.0505 11.2817C13.3774 12.4992 11.5893 15.1954 11.8219 16.5931C11.8513 18.6294 9.74131 17.0177 9.01434 16.3423C8.52532 14.9893 8.84769 12.6244 7.56896 11.9617C6.18105 11.9015 4.98978 11.7754 4.45188 10.2237C4.12819 9.11363 4.79634 7.46106 5.98597 7.20594C7.72732 6.11186 8.34937 8.4872 9.98249 8.53137C10.4895 8.00081 11.8716 7.83213 11.9863 7.23719C10.9147 7.04809 13.3457 6.3362 11.8837 5.93128C11.0771 6.02615 10.5574 6.76761 10.9862 7.39632C9.42317 7.76077 9.37312 5.13442 7.87064 5.96285C7.83245 7.2726 5.41732 6.38746 7.03502 6.12187C7.59084 5.87905 6.12843 5.17532 6.91849 5.30321C7.30659 5.28212 8.61313 4.82427 8.25955 4.51647C8.98705 4.06485 9.59845 5.59801 10.3106 4.48156C10.8247 3.6231 10.095 3.4646 9.45053 3.89973C9.08723 3.49296 10.092 2.61434 10.9782 2.23469C11.2735 2.10815 11.5556 2.03921 11.7713 2.05873C12.2177 2.57441 13.0432 2.66372 13.0865 1.99671C11.981 1.46729 10.762 1.1876 9.50002 1.1876C7.68866 1.1876 5.96591 1.76322 4.5402 2.82763C4.92334 3.00315 5.14083 3.22171 4.77172 3.50108C4.48494 4.35562 3.32132 5.50271 2.29981 5.3403C1.76939 6.25493 1.42008 7.26266 1.27078 8.31883C2.12635 8.60191 2.32364 9.16215 2.13982 9.34954C1.70387 9.72969 1.4359 10.2686 1.29789 10.8584C1.57637 12.5625 2.37726 14.1329 3.62225 15.3779C5.1922 16.9479 7.27962 17.8125 9.50002 17.8125C11.7203 17.8125 13.8078 16.9479 15.3778 15.3779Z" fill="#4C4C4C"/>
</svg>
