<svg width="10" height="14" viewBox="0 0 10 14" fill="none" xmlns="http://www.w3.org/2000/svg">
<path d="M9.99014 13.3045L9.64418 11.7237C9.62456 11.6307 9.57513 11.5611 9.49591 11.5149C9.41025 11.4684 9.32466 11.4619 9.2391 11.4951L9.18961 11.5149L9.0709 11.5447C9.01812 11.5577 8.9572 11.5728 8.88805 11.5893C8.81887 11.6059 8.73833 11.6223 8.64596 11.639C8.55407 11.6556 8.45643 11.6706 8.35457 11.6839C8.25251 11.6968 8.14234 11.7087 8.02367 11.7186C7.90495 11.7284 7.78652 11.7334 7.66784 11.7334C6.83117 11.7334 6.07847 11.5065 5.40991 11.0524C4.74124 10.5982 4.24881 9.98335 3.93264 9.20792H7.75658C7.82919 9.20792 7.89505 9.18312 7.95413 9.13329C8.01363 9.08369 8.04987 9.02243 8.06278 8.94926L8.29992 7.83559C8.31979 7.73644 8.29992 7.64683 8.24081 7.56721C8.17495 7.4876 8.0924 7.44776 7.99373 7.44776H3.45842C3.43865 6.99702 3.43865 6.64903 3.45842 6.40371H8.28047C8.45851 6.40371 8.56379 6.31761 8.59671 6.14525L8.83385 5.0117C8.85348 4.91892 8.83077 4.83283 8.76467 4.75321C8.70559 4.67367 8.62325 4.63372 8.51783 4.63372H3.89322C4.22261 3.89131 4.71663 3.30799 5.37547 2.88372C6.03424 2.45936 6.77864 2.24729 7.60866 2.24729C7.6351 2.23406 7.73218 2.2374 7.90004 2.25725C8.068 2.27704 8.1637 2.28539 8.18664 2.28205C8.20938 2.27878 8.29539 2.28877 8.44345 2.31183C8.59172 2.33502 8.66589 2.34665 8.66589 2.34665L8.8388 2.38141C8.88833 2.39144 8.92619 2.39959 8.9525 2.40631L8.99206 2.4162C9.07761 2.44285 9.15645 2.43449 9.22921 2.39144C9.30171 2.34822 9.34788 2.28369 9.36768 2.19753L9.79262 0.616545C9.81228 0.530348 9.80231 0.450803 9.76303 0.37791C9.70368 0.298225 9.63771 0.248527 9.56523 0.22871C8.95925 0.0762715 8.32 0 7.64822 0C6.1724 0 4.85341 0.424369 3.69065 1.27276C2.52792 2.12122 1.72583 3.24161 1.28445 4.63362H0.316164C0.223893 4.63362 0.148201 4.66339 0.0888788 4.72305C0.0297301 4.78264 0 4.85891 0 4.95176V6.08532C0 6.1781 0.0296263 6.25437 0.0888788 6.31389C0.148235 6.37362 0.224031 6.40332 0.316164 6.40332H0.978255C0.958354 6.72161 0.955205 7.06943 0.968287 7.44748H0.316164C0.230538 7.44748 0.156438 7.47893 0.0938627 7.54189C0.0313222 7.60483 0 7.67943 0 7.76548V8.88915C0 8.97545 0.0313222 9.04981 0.0938627 9.11298C0.156472 9.17595 0.230538 9.20716 0.316164 9.20716H1.25493C1.66994 10.6721 2.45393 11.8373 3.60676 12.7023C4.75965 13.5676 6.10682 14 7.64822 14C7.7735 14 7.90025 13.9969 8.02875 13.99C8.1575 13.9834 8.2775 13.9733 8.38953 13.9602C8.50146 13.9471 8.61186 13.9323 8.72057 13.9156C8.82918 13.899 8.92806 13.8827 9.01691 13.8658C9.10586 13.8494 9.18985 13.8328 9.26883 13.8164C9.34795 13.7996 9.41877 13.7816 9.48144 13.7615C9.54399 13.7419 9.59645 13.7269 9.63944 13.7171C9.68232 13.7071 9.7169 13.6953 9.74306 13.6823L9.79259 13.6723C9.8651 13.6458 9.9211 13.5977 9.96055 13.528C10.0001 13.4588 10.0098 13.384 9.99014 13.3045Z" fill="#393939"/>
</svg>
