<svg width="30" height="33" viewBox="0 0 30 33" fill="none" xmlns="http://www.w3.org/2000/svg">
<path d="M29.991 4.05974L27.524 28.1561C27.4398 28.9806 26.781 29.5967 25.9962 29.6452L25.6942 22.9208L26.407 22.9968L28.3637 3.8859L7.60826 1.67168L7.33414 4.35133L5.68064 4.42862L5.98059 1.49751C6.07472 0.579402 6.87915 -0.0865096 7.77849 0.00914031L28.5335 2.22347C29.4329 2.31996 30.0851 3.14163 29.991 4.05974ZM24.1177 6.07393L25.2053 30.276C25.2466 31.1983 24.5485 31.9794 23.6455 32.0216L2.79964 32.9982C1.89619 33.0404 1.13101 32.3278 1.08973 31.4059L0.0017451 7.20393C-0.0395923 6.28162 0.658483 5.50042 1.56149 5.45827L22.4073 4.48163C23.3112 4.43943 24.0763 5.15207 24.1177 6.07393ZM2.49931 26.3219L23.3451 25.3453L22.4826 6.15043L1.63676 7.12702L2.49931 26.3219ZM22.269 19.6238C22.2424 19.0319 22.0112 18.4688 21.6164 18.0344L20.1508 16.4212C19.6409 15.9225 18.8316 15.9605 18.3688 16.5047L15.7161 19.6398L9.9549 12.3953C9.45978 11.7704 8.52196 11.7766 8.03874 12.4099L3.53576 18.4667C3.1884 18.9342 3.01241 19.511 3.039 20.0967L3.27957 25.4488L22.4908 24.5491L22.269 19.6238ZM18.8995 13.0089C20.1421 12.9509 21.1012 11.8769 21.0444 10.6087C20.9875 9.34007 19.9355 8.36096 18.6933 8.41905C17.4506 8.47709 16.4915 9.55107 16.5484 10.8193C16.6057 12.0878 17.6572 13.0674 18.8995 13.0089Z" fill="#BF2629"/>
</svg>
