<svg width="27" height="26" viewBox="0 0 27 26" fill="none" xmlns="http://www.w3.org/2000/svg">
<path d="M9.87685 15.8592L9.87675 10.1395L1.85687 10.1396C0.831542 10.1396 0.000381996 11.0454 0.000399871 12.0711L0.000465889 15.8593L9.87685 15.8592Z" fill="#FEFCDD"/>
<path d="M26.0021 15.8582L26.002 12.0699C26.002 11.0443 25.1708 10.1385 24.1455 10.1385L16.1256 10.1387L16.1257 15.8584L26.0021 15.8582Z" fill="#FEFCDD"/>
<path d="M23.2175 25.9966C24.2426 25.9966 24.9625 25.1651 24.9625 24.1395L24.9624 16.6371L16.1256 16.6372L16.1258 25.9967L23.2175 25.9966Z" fill="#FEFCDD"/>
<path d="M2.79167 25.9977L9.88344 25.9975L9.88328 16.638L1.04651 16.6382L1.04664 24.1406C1.04666 25.1663 1.76661 25.9977 2.79167 25.9977Z" fill="#FEFCDD"/>
<path d="M15.0806 10.1401L10.9232 10.1401L10.9235 25.9993L15.0809 25.9992L15.0806 10.1401Z" fill="#FEFCDD"/>
<path d="M18.7475 2.1662C20.1123 2.16617 21.2226 3.28773 21.2227 4.66644C21.2227 6.04489 20.1124 7.16675 18.7476 7.16677L14.7641 7.16684L15.262 6.13469L15.9585 4.69071L16.0014 4.69071L16.6039 3.5075C17.0314 2.66774 17.8332 2.16621 18.7475 2.1662ZM7.87468 2.16639C8.78929 2.16637 9.59084 2.66787 10.0187 3.50736L10.6219 4.69054L10.6757 4.69054L11.3546 6.12176L11.85 7.16663L7.87477 7.1667C6.51001 7.16673 5.39941 6.04516 5.39939 4.66646C5.39963 3.28801 6.50992 2.16641 7.87468 2.16639ZM18.7475 -0.000270365C16.99 -0.000239738 15.4618 0.976555 14.6738 2.52427L14.6733 2.52427L14.672 2.42079C14.594 2.56353 14.5241 2.6579 14.4609 2.80922L13.3109 5.19305L12.1608 2.76896C12.0979 2.61791 12.0277 2.57007 11.9497 2.4276L11.949 2.52432L11.9484 2.52432C11.1604 0.97663 9.63212 -0.00011151 7.87464 -8.08818e-05C5.31172 -3.62172e-05 3.23356 2.10277 3.2336 4.66675C3.23365 7.23074 5.31214 9.33347 7.87481 9.33343L18.7477 9.33324C21.3106 9.33319 23.3888 7.23039 23.3887 4.6664C23.3887 2.10242 21.3107 -0.000315035 18.7475 -0.000270365Z" fill="#FEFCDD"/>
</svg>
