<svg width="19" height="19" viewBox="0 0 19 19" fill="none" xmlns="http://www.w3.org/2000/svg">
<path d="M15.6149 0.000488281H2.45314C1.10047 0.000488281 0 1.15769 0 2.58011V16.4204C0 17.8429 1.10047 19.0001 2.45314 19.0001H15.6149C16.9675 19.0001 18.068 17.8429 18.068 16.4204V2.58011C18.068 1.15769 16.9675 0.000488281 15.6149 0.000488281ZM9.034 14.1418C6.80591 14.1418 4.99325 12.2357 4.99325 9.89272C4.99325 7.54981 6.80597 5.64363 9.034 5.64363C11.262 5.64363 13.0748 7.54981 13.0748 9.89272C13.0748 12.2357 11.2621 14.1418 9.034 14.1418ZM16.5383 6.75615H12.8875C11.9659 5.59599 10.5806 4.85665 9.034 4.85665C7.48744 4.85665 6.10213 5.59606 5.18053 6.75615H1.52974V3.06689C1.52974 2.12916 2.25526 1.3663 3.14701 1.3663H14.9211C15.8128 1.3663 16.5383 2.12916 16.5383 3.06689V6.75615H16.5383Z" fill="#FEFDE8"/>
<path d="M9.0342 7.16089C7.60191 7.16089 6.43652 8.3863 6.43652 9.89244C6.43652 11.3986 7.60185 12.624 9.0342 12.624C10.4666 12.624 11.6319 11.3986 11.6319 9.89244C11.6319 8.3863 10.4665 7.16089 9.0342 7.16089Z" fill="#FEFDE8"/>
<path d="M14.5473 2.4563H12.984C12.6266 2.4563 12.3359 2.76206 12.3359 3.13779V4.78178C12.3359 5.15752 12.6266 5.46321 12.984 5.46321H14.5473C14.9046 5.46321 15.1954 5.15758 15.1954 4.78178V3.13779C15.1954 2.762 14.9046 2.4563 14.5473 2.4563Z" fill="#FEFDE8"/>
</svg>
