<svg width="17" height="26" viewBox="0 0 17 26" fill="none" xmlns="http://www.w3.org/2000/svg">
<path d="M8.50032 9.58984C8.12176 10.1282 7.63008 11.0993 7.50586 12.6124H9.49468C9.37055 11.0993 8.87883 10.1282 8.50032 9.58984Z" fill="#4C4C4C"/>
<path d="M10.9608 14.0781C10.8696 15.3706 10.545 16.3691 10.1824 17.1064C11.3999 16.5572 12.3039 15.4318 12.5473 14.0781H10.9608Z" fill="#4C4C4C"/>
<path d="M7.50659 14.0781C7.63242 15.5781 8.12653 16.5546 8.50334 17.0963C8.88151 16.5571 9.3709 15.5872 9.49468 14.0781H7.50659Z" fill="#4C4C4C"/>
<path d="M10.1824 9.58594C10.5451 10.3232 10.8696 11.3218 10.9608 12.6142H12.5472C12.3039 11.2607 11.3999 10.1352 10.1824 9.58594Z" fill="#4C4C4C"/>
<path d="M6.03922 14.0781H4.45288C4.69616 15.4317 5.60025 16.5572 6.81768 17.1063C6.45505 16.3691 6.13046 15.3706 6.03922 14.0781Z" fill="#4C4C4C"/>
<path d="M4.45288 12.6142H6.03922C6.13041 11.3217 6.45505 10.3231 6.81768 9.58594C5.60021 10.1351 4.69616 11.2606 4.45288 12.6142Z" fill="#4C4C4C"/>
<path d="M0 4.625V25.001H17V4.625H0ZM13.3439 21.8673H3.65617V20.4023H13.3438V21.8673H13.3439ZM8.5 18.9351C5.42611 18.9351 2.92545 16.4285 2.92545 13.3475C2.92545 10.2665 5.42616 7.75986 8.5 7.75986C11.5739 7.75986 14.0746 10.2665 14.0746 13.3475C14.0746 16.4285 11.5738 18.9351 8.5 18.9351Z" fill="#4C4C4C"/>
<path d="M0.653809 3.15903H15.5369V0L0.653809 3.15903Z" fill="#4C4C4C"/>
</svg>
