<svg width="19" height="18" viewBox="0 0 19 18" fill="none" xmlns="http://www.w3.org/2000/svg">
<path d="M2.49414 1H16.5059C17.3297 1 18 1.6729 18 2.5V12.5C18 13.3271 17.3297 14 16.5059 14H14.9785V16.5C14.9785 16.7022 14.8572 16.8846 14.6711 16.9619C14.4849 17.0393 14.2707 16.9965 14.1283 16.8535L11.2859 14H2.49414C1.67027 14 1 13.3271 1 12.5V2.5C1 1.6729 1.67027 1 2.49414 1ZM1.99609 12.5C1.99609 12.7757 2.21952 13 2.49414 13H11.4922C11.6243 13 11.7509 13.0527 11.8443 13.1465L13.9824 15.2929V13.5C13.9824 13.2239 14.2054 13 14.4805 13H16.5059C16.7805 13 17.0039 12.7757 17.0039 12.5V2.5C17.0039 2.2243 16.7805 2 16.5059 2H2.49414C2.21952 2 1.99609 2.2243 1.99609 2.5V12.5Z" fill="#616161" stroke="#616161" stroke-width="0.5"/>
<line x1="4" y1="5.5" x2="15" y2="5.5" stroke="#616161"/>
<line x1="4" y1="8.5" x2="15" y2="8.5" stroke="#616161"/>
</svg>
