<svg width="13" height="14" viewBox="0 0 13 14" fill="none" xmlns="http://www.w3.org/2000/svg">
<path d="M0.325091 11.7725H2.60014V13.6819C2.60014 13.7748 2.6305 13.8508 2.69158 13.9103C2.7525 13.9701 2.83037 14 2.92523 14H4.62124C4.70927 14 4.78543 13.9701 4.84976 13.9103C4.9141 13.8508 4.94617 13.7747 4.94617 13.6819V11.7725H10.0751C10.1697 11.7725 10.2476 11.743 10.3087 11.6832C10.3698 11.6234 10.4001 11.5473 10.4001 11.4544V10.1816C10.4001 10.0893 10.3698 10.0127 10.3087 9.95322C10.2478 9.89339 10.1697 9.86348 10.0751 9.86348H4.946V8.69013H8.39914C9.75324 8.69013 10.8584 8.28618 11.7152 7.47713C12.5716 6.66893 13 5.62492 13 4.34507C13 3.06606 12.5716 2.02203 11.7152 1.213C10.8586 0.404774 9.75321 0 8.39914 0H2.92506C2.83017 0 2.75247 0.0298867 2.69141 0.0893581C2.6305 0.149159 2.59997 0.225728 2.59997 0.318105V6.57252H0.325091C0.23023 6.57252 0.152496 6.60394 0.0914415 6.6669C0.0305553 6.72988 0 6.80445 0 6.89059V8.37197C0 8.46487 0.0303591 8.54097 0.0914415 8.60075C0.152524 8.66058 0.230061 8.69011 0.325091 8.69011H2.60014V9.86345H0.325091C0.23023 9.86345 0.152496 9.89337 0.0914415 9.9532C0.0305553 10.0126 0 10.0891 0 10.1816V11.4544C0 11.5473 0.0303591 11.6234 0.0914415 11.6831C0.152496 11.743 0.230202 11.7725 0.325091 11.7725ZM4.946 2.11811H8.19601C8.91364 2.11811 9.49245 2.32353 9.9327 2.73451C10.3727 3.14551 10.5928 3.68262 10.5928 4.34523C10.5928 5.00817 10.3727 5.54545 9.9327 5.95596C9.49245 6.36729 8.91361 6.57271 8.19601 6.57271H4.946V2.11811Z" fill="#393939"/>
</svg>
