<svg width="29" height="19" viewBox="0 0 29 19" fill="none" xmlns="http://www.w3.org/2000/svg">
<rect width="29" height="18.539" rx="2" fill="#8F1416"/>
<path d="M9.75031 13.2498H11.5003V14.75C11.5003 14.823 11.5237 14.8828 11.5707 14.9295C11.6175 14.9765 11.6774 15 11.7504 15H13.055C13.1227 15 13.1813 14.9765 13.2308 14.9295C13.2803 14.8828 13.305 14.823 13.305 14.75V13.2498H17.2503C17.3231 13.2498 17.383 13.2266 17.43 13.1796C17.477 13.1327 17.5003 13.0729 17.5003 12.9999V11.9998C17.5003 11.9273 17.477 11.8671 17.43 11.8204C17.3831 11.7734 17.3231 11.7499 17.2503 11.7499H13.3048V10.828H15.9611C17.0027 10.828 17.8528 10.5106 18.5119 9.87489C19.1707 9.23987 19.5002 8.41958 19.5002 7.41398C19.5002 6.40905 19.1707 5.58874 18.5119 4.95307C17.853 4.31804 17.0027 4 15.9611 4H11.7503C11.6773 4 11.6175 4.02348 11.5706 4.07021C11.5237 4.1172 11.5002 4.17736 11.5002 4.24994V9.16412H9.75031C9.67734 9.16412 9.61755 9.18881 9.57058 9.23828C9.52375 9.28776 9.50024 9.34635 9.50024 9.41404V10.578C9.50024 10.651 9.5236 10.7108 9.57058 10.7577C9.61757 10.8047 9.67721 10.8279 9.75031 10.8279H11.5003V11.7499H9.75031C9.67734 11.7499 9.61755 11.7734 9.57058 11.8204C9.52375 11.8671 9.50024 11.9271 9.50024 11.9998V12.9999C9.50024 13.0728 9.5236 13.1326 9.57058 13.1796C9.61755 13.2266 9.67732 13.2498 9.75031 13.2498ZM13.3048 5.66423H15.8048C16.3569 5.66423 16.8021 5.82563 17.1408 6.14854C17.4792 6.47147 17.6485 6.89349 17.6485 7.41411C17.6485 7.93499 17.4792 8.35714 17.1408 8.67968C16.8021 9.00287 16.3568 9.16427 15.8048 9.16427H13.3048V5.66423Z" fill="#FEFCDD"/>
</svg>
