<svg width="23" height="24" viewBox="0 0 23 24" fill="none" xmlns="http://www.w3.org/2000/svg">
<path d="M16.6334 7.45654H6.3667V8.41307H16.6334V7.45654Z" fill="#4C4C4C" stroke="#4C4C4C" stroke-width="0.3"/>
<path d="M16.6335 8.89124H15.7002V9.84776H16.6335V8.89124Z" fill="#4C4C4C" stroke="#4C4C4C" stroke-width="0.3"/>
<path d="M7.30004 8.89124H6.3667V9.84776H7.30004V8.89124Z" fill="#4C4C4C" stroke="#4C4C4C" stroke-width="0.3"/>
<path d="M11.9665 4.34778H11.0332V5.3043H11.9665V4.34778Z" fill="#4C4C4C" stroke="#4C4C4C" stroke-width="0.3"/>
<path d="M13.3664 4.34778H12.4331V5.3043H13.3664V4.34778Z" fill="#4C4C4C" stroke="#4C4C4C" stroke-width="0.3"/>
<path d="M10.5666 4.34778H9.6333V5.3043H10.5666V4.34778Z" fill="#4C4C4C" stroke="#4C4C4C" stroke-width="0.3"/>
<path d="M9.16674 4.34778H8.2334V5.3043H9.16674V4.34778Z" fill="#4C4C4C" stroke="#4C4C4C" stroke-width="0.3"/>
<path d="M14.7668 4.34778H13.8335V5.3043H14.7668V4.34778Z" fill="#4C4C4C" stroke="#4C4C4C" stroke-width="0.3"/>
<path d="M20.0304 21.6214C19.621 21.8453 19.266 22.0386 18.5256 22.043L21.2761 13.586C21.3518 13.3532 21.2433 13.0994 21.0249 12.9987L18.5 11.8343V7.21739C18.5 6.42626 17.872 5.78263 17.1 5.78263H16.4V3.39129C16.4 3.12716 16.1911 2.91305 15.9334 2.91305H11.9666V1H11.0333V2.91305H7.06663C6.8089 2.91305 6.59998 3.12716 6.59998 3.39129V5.78258H5.89996C5.12799 5.78258 4.49996 6.42621 4.49996 7.21735V11.8339L1.97506 12.9986C1.75666 13.0993 1.64815 13.3531 1.72392 13.586L4.47447 22.043C3.73404 22.0385 3.37908 21.8452 2.96962 21.6214C2.51123 21.3709 1.99166 21.0869 1 21.0869V22.0434C1.75834 22.0434 2.11615 22.239 2.53039 22.4654C2.98874 22.716 3.50826 23 4.49996 23C4.76247 23 4.98641 22.9822 5.1843 22.9457C5.75695 22.8533 6.13542 22.6467 6.46942 22.4643C6.88299 22.2385 7.24012 22.0434 7.99549 22.0434C8.75382 22.0434 9.11159 22.239 9.52587 22.4654C9.98422 22.716 10.5038 23 11.4955 23C12.4871 23 13.0067 22.716 13.4651 22.4655C13.8793 22.239 14.2371 22.0435 14.9955 22.0435C15.7535 22.0435 16.1117 22.2385 16.5266 22.4644C16.8616 22.6468 17.2411 22.8534 17.8158 22.9457C18.0136 22.9823 18.2375 23 18.5 23C19.4917 23 20.0112 22.716 20.4696 22.4655C20.8839 22.2391 21.2417 22.0435 22 22.0435V21.087C21.0084 21.0869 20.4888 21.3709 20.0304 21.6214ZM20.2573 13.6935L19.9227 14.7223L11.9666 10.976V9.87006L20.2573 13.6935ZM7.53328 3.86958H15.4666V5.78263H7.53328V3.86958ZM5.43327 7.21739C5.43327 6.9537 5.64261 6.73915 5.89992 6.73915H7.06659H15.9333H17.1C17.3573 6.73915 17.5666 6.9537 17.5666 7.21739V11.4038L11.6914 8.69431C11.5696 8.63811 11.4301 8.63807 11.3084 8.69431L5.43318 11.4036V7.21739H5.43327ZM2.74271 13.6935L11.0333 9.87011V10.976L3.07729 14.7223L2.74271 13.6935ZM17.5851 21.9095C17.3584 21.8339 17.1706 21.732 16.9644 21.6197C16.5058 21.37 15.9859 21.087 14.9954 21.087C14.0038 21.087 13.4842 21.3709 13.0258 21.6214C12.6115 21.8479 12.2537 22.0435 11.4954 22.0435C10.7371 22.0435 10.3793 21.8479 9.96502 21.6214C9.50667 21.3709 8.98707 21.087 7.9954 21.087C7.00692 21.087 6.48816 21.3702 6.03048 21.6201C5.82571 21.732 5.63921 21.8335 5.41461 21.9089L3.37413 15.6351L11.0333 12.0287V17.7391H11.9666V12.0287L19.6258 15.6352L17.5851 21.9095Z" fill="#4C4C4C" stroke="#4C4C4C" stroke-width="0.3"/>
</svg>
