<svg width="20" height="20" viewBox="0 0 20 20" fill="none" xmlns="http://www.w3.org/2000/svg">
<path d="M9.07619 1.22915C9.4172 0.406283 10.5828 0.406283 10.9238 1.22915L12.9322 6.07546C13.0761 6.42273 13.4027 6.65996 13.7774 6.68952L19.0072 7.10205C19.8951 7.17209 20.2553 8.28063 19.5781 8.85924L15.5896 12.267C15.3038 12.5111 15.1791 12.895 15.2668 13.2605L16.4905 18.3618C16.6983 19.2279 15.7553 19.9131 14.9958 19.4478L10.5223 16.7076C10.2018 16.5112 9.79821 16.5112 9.47765 16.7076L5.00422 19.4478C4.24466 19.9131 3.30168 19.2279 3.50946 18.3618L4.7332 13.2605C4.82089 12.895 4.69618 12.5111 4.41038 12.267L0.421898 8.85924C-0.255317 8.28063 0.104871 7.17209 0.992845 7.10205L6.22259 6.68952C6.59734 6.65996 6.92385 6.42273 7.06777 6.07546L9.07619 1.22915Z" fill="#FFCE4F"/>
</svg>
