<svg width="17" height="15" viewBox="0 0 17 15" fill="none" xmlns="http://www.w3.org/2000/svg">
<path d="M9.24604 0.822887L11.0685 4.21096C11.1952 4.44661 11.4403 4.60989 11.7237 4.64761L15.7991 5.19096C16.513 5.2862 16.7978 6.09086 16.2814 6.55256L13.3325 9.18979C13.1276 9.37317 13.0339 9.63757 13.0824 9.89641L13.7784 13.6203C13.9005 14.2725 13.1542 14.7698 12.5158 14.4621L8.8709 12.704C8.61743 12.5819 8.31442 12.5819 8.06095 12.704L4.41602 14.4621C3.77764 14.7701 3.0314 14.2725 3.15341 13.6203L3.84943 9.89641C3.89797 9.63757 3.80427 9.37317 3.59934 9.18979L0.650429 6.55256C0.134058 6.09055 0.418871 5.28589 1.13276 5.19096L5.20811 4.64761C5.49157 4.60989 5.73661 4.44661 5.86334 4.21096L7.68581 0.822887C8.00466 0.229448 8.92685 0.229448 9.24604 0.822887Z" fill="#8F1416"/>
</svg>
