<svg width="15" height="15" viewBox="0 0 15 15" fill="none" xmlns="http://www.w3.org/2000/svg">
<path d="M7.5 0C3.3645 0 0 3.3645 0 7.5C0 11.6355 3.3645 15 7.5 15C11.6355 15 15 11.6355 15 7.5C15 3.3645 11.6355 0 7.5 0ZM7.5 13.4041C4.24449 13.4041 1.59572 10.7557 1.59572 7.5C1.59572 4.24434 4.24449 1.59587 7.5 1.59587C10.7555 1.59587 13.4043 4.24434 13.4043 7.5C13.4043 10.7557 10.7555 13.4041 7.5 13.4041Z" fill="#8F1416"/>
<path d="M11.4083 7.2684H8.03781V3.2158C8.03781 2.87477 7.76131 2.59827 7.42027 2.59827C7.07924 2.59827 6.80273 2.87477 6.80273 3.2158V7.88594C6.80273 8.22697 7.07924 8.50347 7.42027 8.50347H11.4083C11.7494 8.50347 12.0259 8.22697 12.0259 7.88594C12.0259 7.5449 11.7494 7.2684 11.4083 7.2684Z" fill="#8F1416"/>
</svg>
