<svg width="34" height="19" viewBox="0 0 34 19" fill="none" xmlns="http://www.w3.org/2000/svg">
<path d="M33.1794 17.1587C33.139 17.0718 33.1014 16.9997 33.0664 16.942C32.4877 15.9014 31.3817 14.6242 29.7493 13.1099L29.7148 13.0752L29.6975 13.0582L29.68 13.0408H29.6625C28.9216 12.3357 28.4524 11.8616 28.256 11.6188C27.8965 11.1565 27.8159 10.6884 28.0124 10.2142C28.1512 9.85591 28.6726 9.09923 29.5755 7.94315C30.0504 7.33047 30.4265 6.83942 30.7042 6.46946C32.7074 3.81079 33.5758 2.11186 33.3094 1.37201L33.2059 1.19911C33.1364 1.09503 32.957 0.999805 32.6678 0.912963C32.3781 0.826304 32.0077 0.811973 31.556 0.869726L26.5544 0.904219C26.4733 0.875555 26.3577 0.878227 26.2069 0.912963C26.0564 0.9477 25.9811 0.965129 25.9811 0.965129L25.894 1.00855L25.8249 1.06071C25.767 1.09521 25.7033 1.15588 25.6338 1.2426C25.5646 1.32901 25.5068 1.43043 25.4605 1.54599C24.916 2.94462 24.2969 4.24499 23.602 5.44705C23.1736 6.16382 22.7802 6.78501 22.4208 7.31097C22.062 7.83676 21.761 8.22414 21.518 8.47246C21.2747 8.72102 21.0551 8.92015 20.8579 9.07057C20.661 9.22106 20.5107 9.28464 20.4066 9.26138C20.3023 9.23812 20.204 9.21504 20.111 9.19197C19.949 9.08788 19.8187 8.94632 19.7205 8.76717C19.6218 8.58803 19.5554 8.36254 19.5207 8.0909C19.4861 7.81909 19.4657 7.58528 19.4598 7.38871C19.4544 7.19237 19.4569 6.91466 19.4687 6.55637C19.4807 6.19789 19.4861 5.95534 19.4861 5.82818C19.4861 5.38887 19.4947 4.91209 19.5119 4.39772C19.5294 3.88336 19.5436 3.47581 19.5555 3.17557C19.5673 2.87503 19.5727 2.55706 19.5727 2.22184C19.5727 1.88662 19.5523 1.62373 19.5119 1.43292C19.472 1.24235 19.4108 1.05738 19.33 0.878045C19.2488 0.698897 19.13 0.560316 18.974 0.461936C18.8177 0.363678 18.6234 0.285703 18.3922 0.227768C17.7785 0.089126 16.9971 0.0141268 16.0474 0.00246701C13.894 -0.0206097 12.5103 0.118215 11.8967 0.418758C11.6536 0.54574 11.4335 0.71924 11.2368 0.938712C11.0284 1.1931 10.9993 1.33193 11.1498 1.35476C11.8446 1.45867 12.3364 1.70723 12.6259 2.1002L12.7302 2.30843C12.8114 2.45868 12.8924 2.72467 12.9735 3.10604C13.0545 3.48741 13.1067 3.90929 13.1297 4.37143C13.1875 5.21537 13.1875 5.93779 13.1297 6.53876C13.0717 7.13996 13.017 7.608 12.9647 7.94321C12.9125 8.27843 12.8344 8.55007 12.7302 8.75806C12.6259 8.96612 12.5565 9.09328 12.5217 9.13944C12.487 9.18559 12.458 9.21468 12.435 9.2261C12.2845 9.28367 12.128 9.313 11.966 9.313C11.8038 9.313 11.6071 9.23199 11.3756 9.07009C11.1441 8.90818 10.9039 8.6858 10.6549 8.40256C10.406 8.11926 10.1252 7.72338 9.81244 7.21484C9.49996 6.7063 9.17574 6.10528 8.83996 5.41176L8.56215 4.90881C8.38849 4.58525 8.15125 4.11412 7.85021 3.49585C7.54898 2.87734 7.28273 2.27904 7.05127 1.70109C6.95875 1.45836 6.81976 1.27357 6.63453 1.1464L6.54761 1.09424C6.48982 1.04808 6.39706 0.999076 6.2698 0.94685C6.14236 0.894684 6.00939 0.857275 5.87033 0.834259L1.11172 0.868753C0.625447 0.868753 0.295509 0.978732 0.12178 1.19839L0.0522524 1.30229C0.0175188 1.36016 0 1.45259 0 1.57982C0 1.70698 0.0347335 1.86305 0.104261 2.04785C0.798932 3.67779 1.55437 5.24974 2.37058 6.76394C3.18679 8.27813 3.89606 9.49785 4.49796 10.422C5.09999 11.3468 5.71364 12.2197 6.3389 13.0401C6.96417 13.8609 7.37805 14.3868 7.58055 14.6179C7.7833 14.8494 7.94255 15.0225 8.0583 15.138L8.49257 15.5541C8.77043 15.8316 9.17848 16.1639 9.71688 16.551C10.2554 16.9384 10.8516 17.3198 11.5057 17.6957C12.16 18.0711 12.9212 18.3774 13.7896 18.6143C14.658 18.8514 15.5031 18.9466 16.3253 18.9007H18.3225C18.7276 18.8658 19.0345 18.7386 19.2431 18.5191L19.3122 18.4322C19.3586 18.3632 19.4021 18.2561 19.4423 18.1118C19.4829 17.9674 19.5031 17.8082 19.5031 17.6351C19.4912 17.1381 19.5291 16.6902 19.6158 16.2915C19.7023 15.8929 19.801 15.5923 19.9113 15.3899C20.0216 15.1877 20.1461 15.0171 20.2846 14.8787C20.4234 14.7401 20.5223 14.6561 20.5803 14.6272C20.638 14.5981 20.684 14.5784 20.7188 14.5665C20.9966 14.4741 21.3237 14.5636 21.7003 14.8355C22.0767 15.1071 22.4297 15.4425 22.7598 15.8411C23.0898 16.2401 23.4863 16.6878 23.9494 17.1847C24.4127 17.6818 24.8178 18.0513 25.165 18.2944L25.5122 18.5025C25.7441 18.6413 26.0452 18.7685 26.4157 18.8841C26.7856 18.9996 27.1097 19.0285 27.388 18.9707L31.8339 18.9015C32.2736 18.9015 32.6158 18.8288 32.8585 18.6846C33.1017 18.5401 33.2461 18.3809 33.2927 18.2078C33.3392 18.0345 33.3417 17.8378 33.3016 17.618C33.2604 17.3987 33.2198 17.2454 33.1794 17.1587Z" fill="#FEFDE8"/>
</svg>
