<svg width="176" height="38" viewBox="0 0 176 38" fill="none" xmlns="http://www.w3.org/2000/svg">
<path d="M28.04 10.4748C28.04 10.4748 52.3801 2.07482 65.09 0.354815C77.8 -1.36518 91.3601 3.35483 102.09 10.4748C112.82 17.5948 120.61 20.5948 132.89 18.8748C124.06 20.8148 111.35 23.1848 101.02 19.5148C90.69 15.8448 77.92 9.71481 64.62 7.88481C51.52 6.09481 28.04 10.4748 28.04 10.4748Z" fill="black" fill-opacity="0.19"/>
<path d="M16.8501 17.1448C16.8501 17.1448 36.4401 9.14485 53.6701 10.2548C70.9001 11.3648 84.9001 17.1448 99.9801 22.5348C115.06 27.9248 127.12 24.4748 139.39 18.8748C145.092 16.3464 151.266 15.0577 157.503 15.0939C163.74 15.1301 169.898 16.4904 175.57 19.0849C164.81 14.5649 151.5 17.3748 141.33 24.9048C124.42 37.4148 112.46 39.0448 96.9601 36.3148C79.9601 33.3148 69.1801 22.9648 52.3801 16.5048C35.5801 10.0448 16.8501 17.1448 16.8501 17.1448Z" fill="black" fill-opacity="0.19"/>
<path d="M0 25.4649C0 25.4649 23.31 17.7949 33.21 17.5849C43.11 17.3749 51.41 18.8749 58.95 22.7549C66.49 26.6349 78.65 34.2949 88.56 36.8749C74.34 33.4349 70.56 33.8049 61.21 33.3049C49.15 32.6549 43.21 31.9849 33.14 26.8249C18.85 19.4849 0 25.4649 0 25.4649Z" fill="black" fill-opacity="0.19"/>
</svg>
