<?xml version="1.0" encoding="UTF-8"?><!DOCTYPE svg PUBLIC "-//W3C//DTD SVG 1.1//EN" "http://www.w3.org/Graphics/SVG/1.1/DTD/svg11.dtd"><svg xmlns="http://www.w3.org/2000/svg" xmlns:xlink="http://www.w3.org/1999/xlink"><symbol id="icon-arrow" viewBox="0 0 8 12">
    <path d="M.59 10.58L5.17 6 .59 1.41 2 0l6 6-6 6-1.41-1.42z"/>
</symbol><symbol id="icon-cross" viewBox="0 0 10 10">
    <path d="M1 1l8 8m0-8L1 9"/>
</symbol><symbol id="icon-facebook" viewBox="0 0 10 19">
    <title>
        facebook
    </title>
    <path d="M9.766.157v2.946H8.014c-.64 0-1.071.134-1.295.402-.223.268-.335.67-.335 1.205v2.11h3.27l-.435 3.303H6.384v8.471H2.97v-8.47H.123V6.82H2.97V4.387c0-1.384.387-2.457 1.161-3.22C4.904.404 5.934.023 7.222.023c1.093 0 1.941.045 2.544.134z" fill-rule="evenodd"/>
</symbol><symbol id="icon-minus" viewBox="0 0 10 2">
    <path fill-rule="evenodd" clip-rule="evenodd" d="M10 2H0V0h10v2z"/>
</symbol><symbol id="icon-plus" viewBox="0 0 10 10">
    <path fill-rule="evenodd" clip-rule="evenodd" d="M4 4V0h2v4h4v2H6v4H4V6H0V4h4z"/>
</symbol></svg>